/* XPM */
static char *_907bf2e246c48d29656c7ea3d2ffdc6XZLGNvlVKPbR7sHz[] = {
/* columns rows colors chars-per-pixel */
"64 64 208 2 ",
"   c None",
".  c #0D0D0D",
"X  c #18130C",
"o  c #131414",
"O  c #171A1A",
"+  c #1A1D1C",
"@  c #0E0F11",
"#  c #3D2C0F",
"$  c #262218",
"%  c #372D19",
"&  c #3A3226",
"*  c #2C2A27",
"=  c #4C3817",
"-  c #463829",
";  c #544015",
":  c #44463B",
">  c #484436",
",  c #594A3C",
"<  c #6C4C2B",
"1  c #624323",
"2  c #665137",
"3  c #7B5733",
"4  c #795516",
"5  c #00274C",
"6  c #18324A",
"7  c #003F66",
"8  c #364E54",
"9  c #3A5355",
"0  c #34535A",
"q  c #2F4F5F",
"w  c #004067",
"e  c #004269",
"r  c #0B4568",
"t  c #154966",
"y  c #194A66",
"u  c #004E7C",
"i  c #00507F",
"p  c #1A5176",
"a  c #315463",
"s  c #3B6476",
"d  c #4A5A59",
"f  c #56524A",
"g  c #795A4B",
"h  c #66544A",
"j  c #7E6757",
"k  c #545179",
"l  c #644669",
"z  c #68706E",
"x  c #B4161B",
"c  c #B8171B",
"v  c #AF181F",
"b  c #B91D22",
"n  c #9C2534",
"m  c #8F2B3E",
"M  c #BB2124",
"N  c #AB262F",
"B  c #C53A3A",
"V  c #936516",
"C  c #AD7616",
"Z  c #875F38",
"A  c #8C623B",
"S  c #92673E",
"D  c #C8403A",
"F  c #8D2D40",
"G  c #8A3248",
"H  c #986D45",
"J  c #9B744D",
"K  c #96734F",
"L  c #866D5A",
"P  c #8B7157",
"I  c #8F6E51",
"U  c #A47345",
"Y  c #AA7646",
"T  c #AA7748",
"R  c #AC7A4A",
"E  c #A3764A",
"W  c #A67B50",
"Q  c #8A7661",
"!  c #927864",
"~  c #AD4548",
"^  c #C74549",
"/  c #CE5655",
"(  c #D97375",
")  c #D8716C",
"_  c #D7705E",
"`  c #BE8A25",
"'  c #C18717",
"]  c #D28B13",
"[  c #FABE03",
"{  c #FBAD1B",
"}  c #EFB023",
"|  c #AC8259",
" . c #B59654",
".. c #998169",
"X. c #AE8E75",
"o. c #BB977A",
"O. c #A69267",
"+. c #9AAA7E",
"@. c #A6AA78",
"#. c #F0B25C",
"$. c #DD8279",
"%. c #C48F78",
"&. c #E18975",
"*. c #E6997C",
"=. c #F7BB71",
"-. c #DCAC58",
";. c #005282",
":. c #05568B",
">. c #065891",
",. c #1B5D90",
"<. c #325D8A",
"1. c #126C9B",
"2. c #2C6794",
"3. c #056BA5",
"4. c #047ABC",
"5. c #0A78B9",
"6. c #1378B6",
"7. c #1371A7",
"8. c #2A7CAA",
"9. c #2972A8",
"0. c #4F748D",
"q. c #6E7590",
"w. c #007EC5",
"e. c #097FC3",
"r. c #137EC0",
"t. c #1183BF",
"y. c #3481AC",
"u. c #2783BE",
"i. c #3787B9",
"p. c #718A93",
"a. c #5391B6",
"s. c #7897A8",
"d. c #648DA7",
"f. c #78ABA2",
"g. c #0080C7",
"h. c #0B82C5",
"j. c #0182C8",
"k. c #0B85C9",
"l. c #1284C4",
"z. c #1989C8",
"x. c #248AC3",
"c. c #2994CF",
"v. c #3592C5",
"b. c #2C96D1",
"n. c #3596CD",
"m. c #36B0EB",
"M. c #4898C3",
"N. c #49A4D6",
"B. c #57A9D8",
"V. c #68B1DA",
"C. c #76B9DC",
"Z. c #70A6C2",
"A. c #49B8ED",
"S. c #78BCE1",
"D. c #74C9F2",
"F. c #B18792",
"G. c #92AC8F",
"H. c #B6A698",
"J. c #928EA9",
"K. c #A692A7",
"L. c #B192A4",
"P. c #AC8FA2",
"I. c #A9B9BE",
"U. c #B6BBBA",
"Y. c #B8B1A6",
"T. c #95AAB4",
"R. c #D9979C",
"E. c #C6948F",
"W. c #E69495",
"Q. c #E79798",
"!. c #E79899",
"~. c #E8999A",
"^. c #EA9797",
"/. c #E58D8D",
"(. c #D3AC8A",
"). c #D7AB99",
"_. c #DFB893",
"`. c #CCA583",
"'. c #EAA387",
"]. c #F3A98E",
"[. c #F4AD91",
"{. c #E7BA95",
"}. c #F5B394",
"|. c #F6BA96",
" X c #F6BD99",
".X c #F9BC99",
"XX c #EDAC90",
"oX c #D499A0",
"OX c #E0BCA3",
"+X c #BCC1BF",
"@X c #EEC39B",
"#X c #F6C49C",
"$X c #F9C59D",
"%X c #F9C99F",
"&X c #FBC893",
"*X c #FACCA2",
"=X c #F5C9A0",
"-X c #FBD0A6",
";X c #9CB5C1",
":X c #8CB1C2",
">X c #A4B8C0",
",X c #B4BEC0",
"<X c #BCC2C1",
"1X c #89C6E6",
"2X c #CACECE",
"3X c #C3C8C7",
"4X c #CED2D2",
"5X c #D0D3D3",
/* pixels */
"                                                                                                                                ",
"                                        <X                                                                                      ",
"                                    <X<X+X<X                                                                                    ",
"                                  <X<X<X+X<X                                                                                    ",
"                                <X<X<X<X+X<X                                                                                    ",
"                                <X<X<X<X3X3X            [                                                                       ",
"                                <X3X3X2X4X            [ [                                                                       ",
"              [ [             2X4X5X5X5X5X                                                                                      ",
"              [ [ [           5X5X5X5X5X                                                                                        ",
"                              5X5X5X4X4X                                                                                        ",
"                            5X5X5X5X4X                                                                                          ",
"                            5X5X5X5X                                                                                            ",
"                            5X5X4X2X                                                                                            ",
"                          4X2X3X<X                                @ O + + +         + o                                         ",
"                          3X<X<X<X                            . X # = = $ O . . o + + o .                                       ",
"                          +X+X<X                            @ X V O.@. .C % . . o + + o                                         ",
"                        +X+X+X          [                 $ ; C @.D.D.A.@.C = X o + + o . o + +                                 ",
"                    >.>.d.T.I.          [               % C } { G.A.m.m.@.{ } ' 4 % + @ . o + +                                 ",
"                    <.:.:.>.>.:.                        &  .=.=.-.G.f.+.` V C ' ] C % . . O + +                                 ",
"                  Y E P z s >.>.                      * ..=X*X-X&X=.#.#.2 & P - $ % $ . . + + +                                 ",
"                  Y Y Y S E P                         L =X*X*X(.{.*X*X*X_.`.@X{...f * @ @ + +                                   ",
"                  Y T Y A A U R                       (.*X*X*XQ h {.*X=Xo.h X.*X*X#X`.& . + +                                   ",
"                  H H S S U T R T 0.                  #X#X$X#X{.X.{.*X@X! o.#X*X%X%X*Xg . + +                                   ",
"                  6 f I U Y R Y K 6.w.w.              |. X$Xo., (.*X%X*X_.j (.*X$X#X$XP . O                                     ",
"                  5 5     T T Y z w.w.w.w.w.        }.}.}.|.{.o.{.*X*X*X{.L (.$X X}.}.%.g !                                     ",
"                              W 8.w.w.w.w.w.w.w.g.  ).[.[.}. X*X*X X}.%X*X*X$X X}.[.[.].[.}.                                    ",
"                                  w.w.g.g.w.w.w.w.w.s.}.}.|. X=X*X%X#X*X%X%X#X X}.[.].].].[.                                    ",
"                                    w.w.w.w.w.w.w.g.x.)..X X$X%X X'.#X}.'.%X$X#X X}.[.[.                                        ",
"                                      w.w.w.w.g.g.g.j.a.OX$X=X*X#X&.$.$.XX*X%X$X$X X}.                  <X<X                    ",
"                                          g.g.j.j.g.g.g.i.H.|.*X-X*X*X*X-X*X*X*X|.&.B                 <X<X;Xv.                  ",
"                                            w.w.g.w.w.w.w.9.~ / ) &.*.'.'.*.&._ D b m <.              <X<XM.w.                  ",
"                                              w.w.w.w.w.w.w.<.n c c b M M b c v F k 6.w.w.w.          +X;Xl.w.                  ",
"                                                  w.w.g.g.w.g.9.l F n N n G l <.5.w.w.w.g.w.g.w.    <X+XZ.g.g.g.                ",
"                                                  n k 5.w.w.w.g.j.5.7.,.6.5.w.j.w.w.w.w.g.g.g.g.w.  ,X+XM.w.g.w.                ",
"                                                x x / P.i.w.w.w.w.g.w.3.w.g.j.j.w.w.w.w.g.g.g.g.w.l.>X,Xv.w.w.w.                ",
"                                              x c ^ /.^.J.w.w.w.w.j.n.8.N.k.k.z.w.w.w.e.h.g.g.g.w.x.I.I.x.w.w.w.                ",
"                                            x b / W.!.^.K.w.j.N.n.z.C.y.S.c.b.S.c.w.w.i.K.a.w.g.w.x.U.I.l.w.w.w.                ",
"                                          x M ) W.Q.!.~.K.w.k.S.S.B.C.8.C.V.S.1XN.w.g.i.~.oXt.l.e.v.,X;Xh.w.w.w.                ",
"                                        M ^ /.~.!.Q.!.~.L.e.j.B.1X1XC.8.C.1X1XS.c.w.w.i.R.  p.p.p.s.<X;Xh.w.g.g.                ",
"                                    b B ( W.~.~.~.^.!.~.L.h.w.k.b.N.V.8.S.B.n.z.g.w.w.u.R.    y.y.a.U.;Xl.w.w.w.                ",
"                                  ^ ) W.Q.W.!.Q.Q.Q.Q.^.L.e.w.w.w.h.N.y.C.z.w.w.w.w.w.u.E.    Q z p.U.>Xl.w.w.w.                ",
"                              / ( W.~.Q.!.Q.W.W.!.Q.~.^.L.h.g.g.w.w.5.7.z.w.w.w.4.4.w.l.L.  Y Y Y | U.I.z.w.w.w.                ",
"                          ( /.W.~.~.Q.Q.~.!.!.~.~.~.~.~.L.h.w.w.w.j.4.3.w.w.w.7.d d 1.r.  Y Y T Y | U.,Xx.w.w.g.                ",
"                      !.W.!.~.~.~.~.~.!.~.!.~.~.~.~.!.^.P.6.5.5.5.4.5.3.5.5.5.d < < 2 s   U S H Y W Y.<Xv.w.w.g.                ",
"                        ~.~.~.~.!.~.~.~.~.~.~.~.~.~.~.W.g > : > : : > > : : : > 1 < < < < U H S T T H.<XZ.w.w.w.                ",
"                          ~.~.~.Q.W.Q.~.~.~.~.~.~.~.~.W.z 0 0 9 9 9 9 9 8 8 8 0 0 a 2 < < Z U U T Y H.3X:Xk.w.                  ",
"                              ~.~.Q.~.~.~.Q.~.!.!.!.~.R.i.j.g.g.g.w.w.w.w.w.w.w.w.w.7.f < < 3 A       +X,Xv.w.                  ",
"                                    ~.~.~.!.W.W.Q.!.~.K.h.w.g.w.w.w.w.w.w.w.w.w.w.w.w.5.s 2 < < <     <X<XZ.l.                  ",
"                                          !.Q.!.~.~.~.J.4.4.w.w.w.w.w.w.w.w.w.w.w.w.w.w.4.2.2 < < <     <X<X                    ",
"                                              ~.~.Q.~.F.p u u i ;.;.;.0.J.q.:.;.;.i u u u :.    < < <                           ",
"                                                Q.W.^.F.r w w w e e t F.^.E.r w e e 7 w e w         <                           ",
"                                                    ~.q.w w 7 w e e p         e e e e e e w                                     ",
"                                                      r e e w w e e           e e e e e e e                                     ",
"                                                      w w e e e e e             e e e e e e                                     ",
"                                                      w e e e e e               e w e e e w                                     ",
"                                                      e e e e e e               e e w e e e e                                   ",
"                                                      7 7 e e e e                 e w e e e e                                   ",
"                                                    q y y t t t                   r t t y y y                                   ",
"                                                    E J J K K K                   I K J J J E T                                 ",
"                                                  Y T R Y R R R                     R R R R R R                                 ",
"                                                  R R T T R T                       R R T Y T R                                 ",
"                                                T T R Y Y T T                         R R Y Y R R T                             ",
"                                                T Y                                             T                               ",
"                                                                                                                                "
};
