/* XPM */
static char *_ff30663130a4574f8bf0b93d0aa84d1IhVbTcVhTuHlXpMG[] = {
/* columns rows colors chars-per-pixel */
"65 65 238 2 ",
"   c #85B436",
".  c #7FB032",
"X  c None",
"o  c #7CAF31",
"O  c #79AD2F",
"+  c #7AAE30",
"@  c #79AE2F",
"#  c #7AAF30",
"$  c #7BAF31",
"%  c #7CB031",
"&  c #7DB032",
"*  c #77AC2E",
"=  c #78AD2F",
"-  c #7AAE2F",
";  c #7BAF30",
":  c #76AB2D",
">  c #78AC2E",
",  c #79AC2E",
"<  c #7EB032",
"1  c #7BAE30",
"2  c #7CAF31",
"3  c #7DAF31",
"4  c #76AB2E",
"5  c #74A92C",
"6  c #76AB2C",
"7  c #78AD2E",
"8  c #7CB132",
"9  c #88B638",
"0  c #80B133",
"q  c #7EB132",
"w  c #88B637",
"e  c #7CAE30",
"r  c #83B334",
"t  c #77AC2D",
"y  c #7FB032",
"u  c #82B133",
"i  c #79AC2F",
"p  c #82B234",
"a  c #84B335",
"s  c #77AB2D",
"d  c #7EB031",
"f  c #7DB132",
"g  c #7AAD2F",
"h  c #88B537",
"j  c #85B435",
"k  c #7BB031",
"l  c #80B233",
"z  c #81B234",
"x  c #82B233",
"c  c #83B234",
"v  c #7DB031",
"b  c #84B435",
"n  c #85B535",
"m  c #85B335",
"M  c #7FB132",
"N  c #87B436",
"B  c #81B133",
"V  c #86B436",
"C  c #7FB133",
"Z  c #7FB031",
"A  c #7DB131",
"S  c #81B233",
"D  c #8AB638",
"F  c #89B537",
"G  c #7CAF30",
"H  c #79AD2E",
"J  c #87B536",
"K  c #87B537",
"L  c #85B436",
"P  c #75AA2C",
"I  c #80B132",
"U  c #8FB93B",
"Y  c #89B637",
"T  c #82B334",
"R  c #77AB2E",
"E  c #86B536",
"W  c #86B335",
"Q  c #7BAE2F",
"!  c #8BB839",
"~  c #7AB031",
"^  c #79AE30",
"/  c #8BB638",
"(  c #80B032",
")  c #85B536",
"_  c #80B234",
"`  c #7CB032",
"'  c #76AC2E",
"]  c #83B335",
"[  c #8DB93A",
"{  c #83B435",
"}  c #8AB738",
"|  c #84B436",
" . c #8AB637",
".. c #85B234",
"X. c #82B335",
"o. c #8EB83A",
"O. c #8CB83A",
"+. c #7FB233",
"@. c #8AB739",
"#. c #89B638",
"$. c #75AA2D",
"%. c #7DAF30",
"&. c #81B334",
"*. c #7FAF31",
"=. c #77AD2E",
"-. c #84B334",
";. c #87B637",
":. c #83B235",
">. c #88B536",
",. c #7EB233",
"<. c #8BB739",
"1. c #7AAC2E",
"2. c #8DB83A",
"3. c #82B435",
"4. c #8AB839",
"5. c #78AC2F",
"6. c #7EB133",
"7. c #81B134",
"8. c #7BAD2F",
"9. c #75AB2D",
"0. c #8CB739",
"q. c #7EAF31",
"w. c #80B033",
"e. c #81B032",
"r. c #89B737",
"t. c #7DAE30",
"y. c #77AD2F",
"u. c #74AA2C",
"i. c #7DAE31",
"p. c #86B637",
"a. c #84B234",
"s. c #74AA2D",
"d. c #84B536",
"f. c #7AAF2F",
"g. c #7FB232",
"h. c #7BB030",
"j. c #85B537",
"k. c #80B232",
"l. c #8BB738",
"z. c #7BAD30",
"x. c #78AE2F",
"c. c #80B334",
"v. c #7AB030",
"b. c #79B030",
"n. c #79AF30",
"m. c #7CAE31",
"M. c #7AAD30",
"N. c #87A932",
"B. c #91A232",
"V. c #8BA230",
"C. c #82AB31",
"Z. c #83AA31",
"A. c #8BA130",
"S. c #85A530",
"D. c #7FAB30",
"F. c #86A631",
"G. c #8D9F30",
"H. c #83A42F",
"J. c #7EAB2F",
"K. c #88A932",
"L. c #83AB31",
"P. c #76AE2F",
"I. c #76AC2D",
"U. c #78AA2D",
"Y. c #90A031",
"T. c #A49232",
"R. c #9B9230",
"E. c #88A230",
"W. c #919D30",
"Q. c #A58A30",
"!. c #9E9431",
"~. c #89A932",
"^. c #8BA331",
"/. c #9D9130",
"(. c #8E9C2F",
"). c #7EAA2F",
"_. c #949930",
"`. c #969830",
"'. c #7EA92F",
"]. c #8CB839",
"[. c #76AA2D",
"{. c #83B133",
"}. c #889F2E",
"|. c #9C902F",
" X c #92982F",
".X c #89A832",
"XX c #959D32",
"oX c #A7872F",
"OX c #A19331",
"+X c #8BA833",
"@X c #909E31",
"#X c #A08F30",
"$X c #939B30",
"%X c #83A831",
"&X c #969731",
"*X c #9C9230",
"=X c #87A430",
"-X c #82A22D",
";X c #8A9C2E",
":X c #7EA62E",
">X c #84A830",
",X c #8F9A2F",
"<X c #8BA030",
"1X c #84A731",
"2X c #909D30",
"3X c #85A631",
"4X c #89A230",
"5X c #87A12F",
"6X c #7DA92F",
"7X c #86B435",
"8X c #7CA82E",
"9X c #7CA92E",
"0X c #77AE2F",
"qX c #7CAB2F",
"wX c #7DAC30",
"eX c #7CAC30",
"rX c #7CAB30",
"tX c #78AA2E",
"yX c #74AB2C",
"uX c #79AD30",
"iX c #83B134",
"pX c #80AF32",
"aX c #81B132",
"sX c #85B334",
"dX c #73A92C",
"fX c #7CB131",
"gX c #77AC2F",
"hX c #88B738",
"jX c #7BAE31",
"kX c #7EB131",
"lX c #7AAF31",
"zX c #8FB83A",
"xX c #8AB838",
"cX c #88B538",
"vX c #86B537",
"bX c #76AA2C",
"nX c #73A92B",
"mX c white",
/* pixels */
"O O + @ + + O # $ % # @ & # O + # % % O * = - ; - + = : * = O + + @ = = = @ + > , < 1 O * O ; % # * 2 3 4 5 5 6 7 = = + % ; + ; % ",
"= O O 1 1 % 8 ; # ; O + 9 0 - @ ; q w 0 + + + = 1 e ; O O r r 1 > t = O y 0 + + < u 1 @ O = - + * i p a = * s e d O @ - d r $ f f ",
"O O g h j a ; # @ k + $ l 1 1 z & & 0 2 + O * * x c v % k b r ; t : 7 + p n f & # + + y m M r - O M v 3 % $ ; a a = O + 0 a O % % ",
"+ * , N a B = = % 3 - # % - 3 V < O + a C x Z > 1 2 $ $ f A 2 ; @ O O 7 + 2 $ + O + ; S D b D $ & F C + ; p G ; ; = = @ H * s O + ",
"= O 7 O : O @ + V J ; # v 1 - G + @ % K z B < O = # f f % $ % $ = t - p L M 2 + & S 1 2 < 2 & % ; ; O * + m M @ O 7 - M $ O ; N + ",
"= O > > P O + = 3 I ; 1 h I - # ; $ % f q % < v O ; J D b S S q * : + K U Y p + T j - + $ ; + + # O + @ 7 R O ; S O 1 E & O ; W Q ",
"* u p h O @ @ = O # + O B ; + ; % ; + $ ; @ m p O + K ! j b E l ~ ^ * + < y 2 * O - 7 @ k ; O ; % # @ @ @ = > g x ; + g O O > 1 = ",
"H / 9 m + = + ; + ; O @ @ > + k % # @ O @ ^ M q $ $ q q % % & v v & O R O ; + 1 ( g * O S ) f B d + Q 2 + ; # @ + O + @ > * = = : ",
"@ S _ % @ * $ + B d ; + - @ O + 0 d x 1 7 k l q ; ; ` _ z l f # 2 J a 7 - r c G u 1 ' > ] [ { } ] f | L + ; # O 2 0 y a + $ z ; ^ ",
"t O + # + g  .0  .0 m M O t s : ..m h S ; ; { X.% % 8 K o.O.T @ + 0 0 @ @ 3 d - - 7 7 = v l q C M v +.C % k ; + C K B @.2 _ #.+ ; ",
": : O + 1 + E l S 2 1 O > : $.* %.G G G % % f % k % % +.&.l ; 7 # % & $ @ = ^ + @ 7 @ ^ - % f % ; ; % f $ + + + v & 1 q + + 1 @ ; ",
"@ 1 N *.W d % f # @ 2 g e O * = @ @ @ # % v ; + 2 & % q a a M ; - % & # @ = > + + + G + + ; % f $ + ; % % ; M { f v a C @ @ + ; ; ",
"@ ; S ; d 2 + k + + b r j < R $.=.O -.0 0 ;.y O :.S @ ; N >.x 2 % a 0 ^ 2 ; - q T c V 3 O + % T 9 ,.&.l f % S <.; % x < # ; % % A ",
"k f % # O O O + # + & v v + = = # + y < q T 2 = v v ' ' g 1.O ^ + e + ^ L #.$ ; v 3 < + > - % b 2.3.4.] @ @ ` C + ; f 2 % $ # # % ",
"+ & f k @ @ O + $ $ + * : 5.+ % % k O * + ; @ = O g * * : : * O O = = + X.L $ k % 1 y a m 2 $ l z f l 6.- * + v % % f $ ; v ; 3 3 ",
"S J l K 3 # < #.K h & O O c v ; ; # O < S 1 * = O > * * * : * O y e 7 # 2 # = + ; 2 c N L $ - $ f % $ + t : g N T r a # B <.&   . ",
"z L < c $ # < D b b ` $ ; l ; = 5.5.* B a 1 * 1 0 7.e 7 O * ' O 3 8.* # @ * * = O @ 1 2 2 = i I S T z e 0 > O I 3 m p O 0 V k X o ",
"+ 1 ^ g ; $ 2 < 2 v f $ + ; O : 9.: : > - H * < h 0.-.1 = y 0 + * * O M M > q.p + 3 w.1 O = g c B p a 3 b = 4 * * 1 O > 1 % ; ; $ ",
"O ^ 7 O ; ` $ @ G l f C y 1 1 y > * * : = - + % < 0 < + = c a O : : = b h g < u = < -.2 - 1 + 1 + g $ + ; * 4 * R * =.= O + - # + ",
"O + O = @ ^ @ 7 < 9 q L b % 2 x 1 ^ % B v G @ 7 - + + @ 7 ; 2 O > 5.> 3 0 1 1 1 * O G + G -.0 7 - =.4 * 4 * - O > = O = > * ; $ O ",
"= O + O > * * = 2 _ v l +.$ ; v ; + < J S a < : e.r $ = > H @ + O O 7 * = @ = * * * O + 1 I y + % - * O @ 2 Y J V L p O * - r.0 = ",
"* g F N ( = = @ # # k # ^ = ^ ; ; @ % C v M G =.3 < O > O O 7 O = 7 O * $.4 * * O + % % + @ - + p N @ ; % +.} J b a 3 * = @ c G P ",
"* O h >.0 = - G - + 2 O + > - +.q G # + @ 7 @ @ + + = < S 2 0 M < 0 + : , t.e I < a E &.] ; # O S K & b X.% q v M v ' y.G 2 > * u.",
"# ^ 3 Q R : 3 N 8.q.m g W i.1 } p.K & ^ l S 2 + ; + = r V & p p C 0 - * y a.y a M 0 S v S $ ; + % C q ] X.8 % 2 m y * = y a * * : ",
"; + O 4 s.: 3 V 1 3 c + p 1 O V | 3.q k d.w C ; % # ^ < d 2 M < % 2 f.^ 3 y 1 e - 1 & 1 G 2 # # + ; % 6.+.f % $ y G * * 2 z @ = * ",
"= = > = = + $ 2 - - G O g O O % f X.T & g.&.,.h.; + # ; 7 I E C + O O # + = > q.I B K 2 S V + + @ + k f f $ + O + @ * > $ k # + = ",
"* : * - $ 8 k = 7 7 # ^ O ; + + $ j.L % + $ % $ # ; % % # < ] & = O @ + O ' : %.k.l ] + y p @ O @ @ @ @ + ^ > = ^ v + ; % ; ; # O ",
"7 > < v ; M b ; @ ; % ; ; -.y + + +._ % # k _ ) C k k % % + # + + v & $ ; = =.1 y d ; ^ = O O O + = * , Q 3 = = ; #.z - 2 -.B - R ",
"7 ; l.C > 3 V % < K < @ @ S 3 O q f q q f f &.j q ; ^ 0 E M f.# < V T k k # @ 2 B z.: ^ @ + < p + x.> y m a 1 x.; K z : + c I g 4 ",
"7 - b 3 > g 3 k & j v ^ = @ @ + Y L #.3.q ) ] 2 @ ; 1 0 E c.v.b.& T +.n.G I 3 - m.1 O & y M.y m + + - d p 0 + ; @ 2 $ ' @ $ 2 # = ",
"* s 7 H > = + % 2 ; % $ + $ @ + j T ;.T % b z = : N.B.V.C.Z.A.S.D.F.G.H.J.K.L.P.1 a r p m @ 1 2 O + + G T M % + @ ; + = @ # k k @ ",
"1 5.O 7 $.7 ; q N u B ; 1 a v @ - O 1 % ` % @ I.U.Y.T.R.E.W.Q.!.~.^./.(.)._.`.'.$ T 0 & 0 - @ @ @ @ + & ].J p * 1 L 2 = ; ; % q I ",
"a y 0 y [.7 ; v N {.p + + c v @ * : R O $ + 5.= i }.|. X.XXXoXOX+X@X#X$X%X&X*X=X; # 7 - y 0 @ @ = ' t + a 0 q.P = a & O b z + v -.",
"z d y y 7 O + O g O + @ 1 + O @ @ + O g + @ @ O =.-X;X:X3 >X,X<X1XG.2XA.3X4X5X6X+ @ = + B p @ > g q., y M @ O g : @ 2 1 K j = + < ",
"+ + M.> - 3 r + s > 3 O B < - @ 2 7Xy c B O - 3 H 8X9XR * 0XqXwXeXeX; eXrXqXtXyXO ; ^ ^ + G @ O q.>.3 a { + ; a.1.4 - + < q # # $ ",
"a.B S = uXC 0.3 7 > iX8.I M ; = + 7X0 L c > g I 1 x.x.= ; z S x y # l q * = 3 pX( 3 $.* 2 y + + ; I 2 q q > > aX, $.* + + # % < % ",
"sXpXu O O $ z - 7 7 3 - + $ + = O ; ; % ; = # v 2 # ; k & c B B < @ 0 3 : O x 7XB z.dXR e y = @ = * O @ ^ : 9.R : : 8.- $ fX& V G ",
"; 1 1 # + + = * > @ - = + # O = O = 7 @ @ @ ; k fX$ ; & $ * O 3 O : * P 9.= ; G * : =.= 7 7 O O ^ = ; 0 v 1 ; @ * > a.2 + $ G -.1 ",
"M w E z + ; q.> * = + * 1 % 0 & + O 7 ; M v $ k % $ ; r y : < p g : : [.* = 7 > 1 1 $ < ; - v d + = e Y p p b O 4 [.( 1 * * * H + ",
"q / w 0 * G x O = q.1 : < C K 0 - O @ & @.{ T ] +.% % j S gXG d g = > > = ^ = + B B v j M 2 p r # @ > B < T r * $.[.* =.* * 7 7 $ ",
"= 2 ; 1 > O ; > g F 3 : Q 2 0 v < % # q ].| ;.hX+.; + 2 + * ' O + + @ O < M + + d 3 - M v % q % @ @ = g ; + O 7 7 > O @ @ @ @ > + ",
"O * ^ + $ 1 = * O p g s s y.C ] <.{ & v +.f q q + 7 H < C 2 v v % 0 < + x p + + @ 1 G 7 7 ; ; @ + + + % ; O 7 * = * e y d e + g @ ",
"@ 7 5.= < p > > * O * > O = 0 j w T q A % G 1 + + O > r K L K C v #.| = 1 3 + + + S j - 7 - $ % % O = # ^ > 4 * = O ( N m S v B O ",
"+ O g O & p > * O 1 + 3 + O ; % $ + + S l M 0 & x d = q &.T c 2 3 a y : : * + $ O d x > * G a | ] 7 = 1 2 + M.+ $ + 8.B C l S N > ",
"O > c 1 ^ = * > c C & h 3 ^ r z $ @ ^ z S S r < x M + @ ; @ * @ ; ; - * : * = # @ * * : 9.G K w #.- 7 3 L 0 a y { - 5 * > + q & * ",
"@ O m + = 7 * = D p 2 V e O c S ; O + ^ + ; ; # # ; ; @ + O 7 @ ; % $ @ = = @ @ + + @ > * @ 1 % < @ = 3 F z V -.Y ^ > + : ^ 7X< O ",
"; O O = > @ > * e Q 7 7 > O O O = O O O + ; % h.# ; v v v jX1 # ; % q < ; + ^ = 1 y y C G # v v > : > g 2 + % M M = + O : O c t.: ",
"k + + @ O 7 7 O > : : x.O O # O O O * > 1 2 - @ + # b Y E m c kX# $ r 7X% = * ' 1 p ] K T % T J O 4 7 O O + f v + O = ' : : * ' P ",
"; O # % - Q 1 ; 7 + + ; + % q ; v @ * * G 7X3 @ ; @ B V b r 0 v - @ M S ; @ * I.> O 2 q f & C T + = O 7 O + ; + 1 u 3 O O - * : * ",
"a.C v K v r v ; + K z L C l ;.M -.v = * > c d l a 3 @ + q M # - + ^ lX$ ; ; O 7 O + v f % $ $ $ O : - M l % @ + y zXh 0 B x * s 7 ",
"o.V v w M S 3 $ $ 2.| w p & 0 1 m.- 7 I.P H @ d S 2 # O 0 b v @ ; $ $ % q l v + - g 0 ) & + ; $ @ * <  .J l O + $ r l 2 y < = > : ",
"C < + S q # ; O = 6.v % 2 ; = * : * @ @ * = @ O @ # + O + + + v l l 2 @ M K p x.@ @ T xXq $ k ; % 2 e u y 2 @ > * + $ # @ > @ > R ",
"+ @ - cXb ; # + - $ $ # # + - + = = @ ^ < 3 2 2 ; ; ; + ^ > 1 L <.h y * - r ] k $ $ fXf % ; $ $ % ; > R 7 = = > O @ + + 7 > @ O g ",
"O = @ 1 1 g ; % v f f + O 7 u u + > * * m c p p 1 ; r M ^ O + p p 3 1 = = ; % k # # % f % + ; k + - ; = @ O = q.a z 2 < + O O y V ",
"* = * $.* $ # B T ] & + O = 2 & O : : * 2 2 y M O M.x Z 7 * : : * * O ; % $ % k $ fXf ,.f f f - O < J M O O ^ p o.V y sX; = + r F ",
"> > g + ; ; + 7Xh / 3 # 7 * > ^ 2 g O O @ # ; ; # O H * = e O g y 3 q.v $ q l l M l l vX_ T C 7 @ l 2.L v B - % C 1 2 ; ; + ; O + ",
"O G #.{ { # ; 2 $ 1 O + > : 3 m <.Y p + O + M +.# - - = g m B 3 V a S M # C h K j J l J l C C ^ @ + ` 2 y >.; k % < N > @ ; # @ ; ",
"* % 2.vX0.+ - = : * = @ > : t.h V a 0 + O 2 Y b ; + ; ; + v Q : O + = @ ; & S y v < 7 7 O > > ^ # O * O $ O > O O - y O - % $ + + ",
": + v 1 & + + @ t : : = = * > ; ; ; @ * = O v & # + ; # ^ O O + $ $ 5.* ; % + = O + =.9.1 a...C = * > O + = : : s * O % % 1 % + % ",
"= + + - + # k ; O * 7 > O > * > = 7 = 7 O H = O + + + = : * + ; % k ^ * O ; O O O O = * 1 W W d = = = g I -.O O 2 $ = ; +.& % # k ",
"= + ; 3 2 k % % + + + g > = 3 z O * @ O @ + O O z l % ; O O # + - - + @ @ ^ > 7 @ + + * > > * * > : : = y V O - V N = & ! l + + O ",
"@ % ; a } % % + = + b x ^ ^ M B O - G ; ; ; - + L b % $ lX] z = > > q.B 1 = > = = B W O @ = * g y i $.* * R s > S r > % E q O = + ",
"; # @ < b lX- 3 + # ] 0 = ^ + @ ^ L #.J b f v B v ; + - ; E vX$ @ @ y 0 O = 3 i.9.O e O O - - 3 V d : * P * y M +.a * @ C C @ * # ",
"$ @ * = ; @ M } & ; ; + 7 + % $ k r E E r ; v a 1 u., p l f q f % ; - O O > e 3 = O 0 a %.sX3 : 1 ; O uX[.bXm L T <.+ R ] J O = O ",
"O * 7 @ + # % l v + # ; ; $ ^ O $ k G ; ; @ > , P nXO J r ; % f % + O = @ O = H @ @ M -.1 3 Q * O @ ^ # = > ; 5.1 3 + = 2 2 s = @ "
};
