/* XPM */
static char *_937dd942c7a4db9eca302738c38728cyYmCXVzH2b8nye1e[] = {
/* columns rows colors chars-per-pixel */
"65 65 145 2 ",
"   c #6E6868",
".  c #726C6D",
"X  c #756F71",
"o  c #767072",
"O  c #7A7475",
"+  c #7D7779",
"@  c #7F797A",
"#  c #827C7E",
"$  c #857E81",
"%  c #887F83",
"&  c #878082",
"*  c #8A8385",
"=  c #8D8689",
"-  c #8F888A",
";  c #928C8D",
":  c #958E91",
">  c #988F94",
",  c #979192",
"<  c #999395",
"1  c #9D9699",
"2  c #9F999A",
"3  c #A1979D",
"4  c #A29B9E",
"5  c #A397A0",
"6  c #A59DA1",
"7  c #A99EA4",
"8  c #A6A0A1",
"9  c #A5A1A2",
"0  c #A6A0A2",
"q  c #A7A0A2",
"w  c #A6A1A2",
"e  c #A7A0A3",
"r  c #A7A1A3",
"t  c #A7A2A3",
"y  c #A7A3A3",
"u  c #A5A0A1",
"i  c #A7A2A4",
"p  c #A7A3A4",
"a  c #A6A1A2",
"s  c #A8A0A3",
"d  c #A8A1A3",
"f  c #A8A2A3",
"g  c #A9A0A4",
"h  c #A9A1A4",
"j  c #A8A2A4",
"k  c #A9A2A4",
"l  c #A8A3A4",
"z  c #A9A3A4",
"x  c #A8A3A5",
"c  c #A9A3A5",
"v  c #AAA3A4",
"b  c #AAA2A5",
"n  c #AAA3A5",
"m  c #ABA3A5",
"M  c #ABA2A7",
"N  c #ADA3A7",
"B  c #A8A4A5",
"V  c #A9A4A5",
"C  c #AAA4A5",
"Z  c #AAA4A6",
"A  c #ABA4A6",
"S  c #AAA4A7",
"D  c #ABA5A7",
"F  c #AAA6A7",
"G  c #ACA4A6",
"H  c #ACA4A7",
"J  c #ACA5A7",
"K  c #ACA6A6",
"L  c #ADA6A7",
"P  c #AAA3A5",
"I  c #ADA5A8",
"U  c #AEA5A8",
"Y  c #AFA5A8",
"T  c #ADA6A8",
"R  c #ACA7A8",
"E  c #ADA6A9",
"W  c #AFA6A9",
"Q  c #AEA7A9",
"!  c #AFA7A9",
"~  c #AFA7AA",
"^  c #AEA6A9",
"/  c #ADA8A8",
"(  c #ACA8A9",
")  c #AFA8A9",
"_  c #AFA9A9",
"`  c #AFA9AA",
"'  c #AEAAAB",
"]  c #AFACAD",
"[  c #AEA9AA",
"{  c #B0A7AA",
"}  c #B1A7AB",
"|  c #B1A7AC",
" . c #B0A7AA",
".. c #B0A8AB",
"X. c #B1A8AB",
"o. c #B0ABAB",
"O. c #B0A9AC",
"+. c #B1A9AC",
"@. c #B2A9AC",
"#. c #B2A9AD",
"$. c #B2AAAD",
"%. c #B3AAAD",
"&. c #B3ABAD",
"*. c #B3AAAE",
"=. c #B4ABAE",
"-. c #B0ACAD",
";. c #B2ADAE",
":. c #B2AEAF",
">. c #B3AEAF",
",. c #B4ACAF",
"<. c #B5ACAF",
"1. c #B5ADAF",
"2. c #B2ABAD",
"3. c #B3AFB0",
"4. c #B5ADB0",
"5. c #B6ADB0",
"6. c #B5AEB0",
"7. c #B5AEB1",
"8. c #B4AFB1",
"9. c #B5AFB1",
"0. c #B7AEB1",
"q. c #B5AEB1",
"w. c #B8AFB2",
"e. c #B8AFB2",
"r. c #B5B0B1",
"t. c #B6B0B1",
"y. c #B6B0B2",
"u. c #B7B1B2",
"i. c #B7B0B3",
"p. c #B7B1B3",
"a. c #B6B1B2",
"s. c #B8B0B2",
"d. c #B8B1B3",
"f. c #B9B1B3",
"g. c #B9B1B4",
"h. c #B8B2B4",
"j. c #BAB2B4",
"k. c #BBB3B6",
"l. c #BAB4B6",
"z. c #BAB2B5",
"x. c #BDB7B9",
"c. c #BDB6B9",
"v. c #BEB8BA",
"b. c #BFB9BB",
"n. c #BFB9BB",
/* pixels */
"w 6 h ; ~ N { { ~ ~ 4 - ; < , : : < , = 4 f.0.] <.r.D < 3 D h w 4 D 2 < D ~ X.| h , ; , < : , < : : 4 6 w w , ' ' +.X.{ X.+.1 , h ",
"w 4 h : H ~ ~ { X.=.h * : < < : : : , - 4 f.0.:.0.r.' , 2 ' D d D D , ; ~ ~ ~ { X.< ; , ; , < , : : D w 6 3 : w :.~ <.=.{ { < , h ",
"p d h ; 3 w.w.{ h < * # < < : , < , < * 4 x.b.l.j.b.+.< 2 w 6 w D ~ , < =.+.X.X.H < ; < : < < , , = 3 w 6 6 ; h =.X.0.+.H +.1 < 6 ",
"* & * & - = & $ # ; - $ # * - = - ; ; # - 4 h w 6 3 = X # 1 3 3 1 = O * h H { 0.~ , - < < : ; < , & , h h 4 & w :.+.=.+.+.0.; , H ",
"3 # 6 h 6 1 # 1 ~ f.f.+.: O O @ # # O O # = = ; ; O o ; : # o o o # - ; = $ # # # O + = : ; ; * # . O # * +   @ : d =.0.w ; . @ : ",
"' < ~ +.X.~ 1 0.0.=.r.j.D - , , : , $ = 1 7 6 4 3 ; 1 { +.' = @ , 6 w w 6 < # O ; 4 < + . # * = ; < * O # 2 2 < ; < * $ # * * * # ",
":.1 h ~ +.~ 1 +.0.:.3.r.X.; , , : < = ; 3 6 4 3 3 : 4 X.+.=., ; p D w 6 h D 1 : +.j.r.: $ 4 w w h w h < : r.3.r.j.r.; ; h <.j.0.=.",
"' 4 ~ +.<.~ 1 0.:.r.:.r.X.; : : < , = : 3 3 3 5 5 : 6 0.' ' 1 , w w 6 D d w 3 1 +.r.0.4 = h 6 6 h 4 w 2 < 3.0.r.0.0.; 4 r.' 0.r.r.",
"<.4 =.+.+.~ 3 w.r.0.f.j.' ; ; < < < * : 5 4 1 3 3 : d +.h ' 1 , D w 6 h h D 4 4 <.j.r.6 ; 6 h h D w h 3 1 f.:.+.0.w., w r.:.0.r.X.",
"<.4 X.~ { D 1 0.r.0.r.k.~ ; : : : : * : 3 7 6 3 6 1 3 ~ { h < < w p 6 6 6 h 4 3 0.j.f.4 ; h h d 6 p 4 4 2 r.0.w.+.j.1 h j.j.:.X.f.",
"~ 3 0.f.j.~ 4 j.0.j.0.f.' ; : , < , = < 3 3 3 5 3 < 3 ~ X.X.< , 4 6 p 6 4 w 4 2 <.r.:.6 ; ~ p 6 D w w 6 1 j.:.:.:.w.3 D x.:.+.:.+.",
"* @ ; ; ; # # w <.:.0.3.< # ; < < < & : 5 6 h h 6 = < ~ =.:.< : w D h 4 h ' 3 2 l.k.k.h $ 2 h w ~ h 3 ; = +.j.j.b.f.< 2 x.j.k.x.j.",
"< > ; O $ , , : * # = - * # # # # & O + * = = = $ O # = , ; + + * < 6 6 4 , & & 4 ' ~ , O # = ; $ $ + O @ ; < ; ; & O + ; ; , , < ",
"h h w ; 6 0.0.<.1 # : 2 4 4 , + # ; , < < , @ O & - ; = # # : 4 , $ + # # # $ # @ + = 4 h H h h : O $ = ; ; - O # ; , : * O , 4 w ",
"D w w 1 +.<.3.l.~ : 6 6 h D 4 = 4 H X.{ { ~ ; = , < < : = , ~ r.j.2 # * : : : : = $ < j.0.r.j.0.D ; < : , < : & 1 h w d 4 ; ' r.<.",
"4 6 6 < ~ :.3.0.:., w 3 6 6 h , w X.~ ~ ~ X.1 ; , < , < - < <.r.r.h : : , , : < < ; 2 r.0.j.:.:.D ; , < < : : = 4 h h w 6 < f.0.j.",
"d 4 2 < :.0.:.j.' , 4 3 w h D < w X.{ ~ ~ { 1 ; , < , , ; 1 0.r.3.h : ; ; ; , , : ; 2 r.0.r.<.:.D : , < < : , ; 4 D w 4 6 1 0.0.0.",
"3 w 6 , X.0.:.3.' ; 6 6 6 w h , h ~ ~ =.+.' < ; < < < 1 ; < 0.0.0.h ; ; , ; : , ; ; 2 r.0.r.:.+.D ; , < , < , - 3 4 4 h 6 1 3.0.0.",
"w D d < 0.j.j.j.<., w 6 w D D < h { +.+.X.0.1 ; : , < < : 2 0.l.x.D - : < : , 1 < ; 2 l.j.l.r.k.X.; < , < 1 < * 4 6 w h 6 < l.:.+.",
"2 < ; # 1 h 6 2 & # 1 6 w 2 ; $ 4 X.X.h 6 6 = = < < 1 < = ; w +.| < @ $ ; ; ; ; & + # < 4 4 4 1 * O & * - ; = # < D ~ d 3 ; r.r.j.",
"# + O X . + $ - = - ; - & + o . + $ & & = ; * * * # # $ # @ # # + o O # * $ @ O . + = , < < ; @ + $ = ; ; ; & o O = , : * # ; 1 2 ",
"= = ; = O - 3 h h ~ 7 6 - O & = - # # < h ~ ~ ~ 4 $ $ 1 4 4 4 ; O @ ; : : : - @ + 1 H ~ ~ ~ d = : w 4 6 w w 3 = X . # * = - - : ; ",
"< < 1 1 $ 4 X.+.+.+.+.0.1 & < < 1 = , 0.j.0.j.j.j.4 < +.<.X.<.~ = * 1 < < 1 1 ; = h X.+.+.X.+.1 1 w w h w h w 6 = @ : : < , < , , ",
"< < < 1 = 4 X.~ +.X.+.X.4 * : , < ; 4 <.0.:.<.<.k.N 5 ~ +.X.' H : = , , < < 1 : ; ~ ~ ~ +.+.{ 1 1 4 4 h 6 h 4 w : & < , , < 1 , < ",
"< , , < = 6 +.~ <.X.X.~ 7 * ; , < : 6 0.<.:.0.f.k.h 3 ~ +.' ' h ; - , : < , < ; : { +.X.+.{ H < 2 d 6 h h h w w ; $ , < < , < ; < ",
"< < ; < = 6 X.+.X.~ X.+.h = , , < : 4 0.f.r.r.0.j.h 6 ~ ~ ~ ' h ; = , , < , , ; : ~ +.X.{ { ~ 1 3 h 4 h H w w D ; # < , < < < , , ",
", : ; < & 7 =.+.~ ~ +.<.6 - , : , ; 4 :.0.j.f.+.0.h 3 D ~ { X.h ; = < < , ; , ; , +.<.X.X.+.~ 1 3 w 6 6 w 6 w H : # < < 1 < < < : ",
"< , < < # 6 j.=.X.X.<.w.3 = : , 1 ; 3 r.j.r.0.0.k.h 6 { +.+.0.~ * $ < < , : , * $ 6 ' ~ +.<.H : 2 H d H h H H 3 $ X $ & ; < , : = ",
"; , : & . * 3 H :.X.d 3 & O & = - O # 6 0.w.j.l.0.: = 1 3 1 1 < $ @ # # * * & + . + & * = ; = + & < : ; ; , ; $ $ & $ + + # * $ # ",
"& # @ + # $ & = , < ; * @ # $ O O # & - , < 1 , - # # # O $ : 1 4 1 = O X # : 1 ; o + = * = * $ o + * # $ # O = 3 3 1 < * # : : , ",
"< # & , 4 3 < ; # = < 1 1 4 < # ; h ~ 4 4 < ; + & 1 3 = # < ~ 0.l.r.:.2 # , f.k.<., ; D w 6 6 4 & # : ; : - & 3 7 6 7 6 < - D w w ",
"D : , w h h h h = : 7 7 7 h 4 : X.0.<.<.=.<.h * < H ~ 1 1 :.j.0.0.3.l.0.1 w x.0.<.3 < H h h D w ; - < , 1 < ; 7 3 6 6 3 3 ; h 6 4 ",
"D , < w 6 6 w h : , 6 3 3 6 3 , +.+.{ X.{ <.~ ; 1 6 w 1 3 ' :.0.0.r.f.+.2 6 j.0.+.4 1 D w w h w ; ; , < 1 , ; 7 3 6 3 3 3 , h w w ",
"D , < D w 6 6 D , : 6 3 5 3 3 < ~ +.X.=.X.~ h ; 1 h h 2 2 +.0.0.r.0.0.+.3 6 j.r.:.4 1 h h h D w ; ; < < < < ; 3 5 3 3 3 1 , h w w ",
"D 1 < p h 6 6 D , , 5 6 6 3 1 < ~ X.~ +.~ H h ; 1 D H 4 1 +.r.0.r.<.:.:.3 6 j.j.r.4 1 h w w D d ; ; 1 , ; : = 3 5 3 3 3 3 : w p p ",
"~ < 1 ~ h 6 ~ ~ - , 6 7 6 5 1 ; ~ <.+.+.+.0.h ; 1 h D 4 4 :.j.:.<.:.f.j.3 6 k.k.r.3 4 ' D w D h ; = 1 , , : = 6 3 3 6 6 3 - w ~ D ",
"4 = = 3 < : < : O $ ; : > < ; # ; 2 H h 6 d ; $ 4 D h < , D h.:.0.j.l.H - < j.j.h - ; w h d w 2 * * 1 , < ; # : 1 1 1 3 , # ; < : ",
"1 ; ; 1 = # # * * * $ + $ : < - $ # * ; ; ; & $ : : ; * @ = < 2 6 4 < = @ $ , < : $ # = * ; ; * # $ * & & $ * - = = # * = # & $ @ ",
"w ~ +.+.6 > - H :.:.D ; ; N 0.+.~ < $ ; < 2 4 4 ; + # * = = * * * # $ ; , * @ - 2 3 3 = O & , : < < = # # 2 +.D 4 ; O & : < < , ; ",
"~ { X.X.=.H 1 f.<.r.b.4 3 { +.+.w.~ 1 w h h h D w ; ; 3 7 5 3 4 ; * 3 H h 2 , h 0.<.0.{ 1 2 r.r.w.j.0.4 1 b.l.r.x.:.* : : < 1 < < ",
"X.~ ~ { { D 1 <.0.:.l.4 3 ~ ~ +.<.~ 2 w h w 6 w 4 , 1 5 3 5 5 7 1 < 6 6 6 4 < h +.~ ~ X.4 4 r.0.0.f.f.d 4 b.<.r.0.' = , ; : , , , ",
"+.X.~ +.X.H 3 0.:.3.k.w 3 ~ X.+.0.D < w D d h w 3 : < 2 3 6 5 7 1 , 4 w h 4 < ~ +.X.+.~ 3 7 h.r.0.r.:.d 6 r.<.l.r.' ; , , : , , , ",
"{ +.X.+.X.D 4 w.3.:.0.6 3 { +.X.X.N < w ~ 6 w h 6 : < 3 4 6 3 7 3 : 3 D h 1 2 X.+.{ X.~ 3 7 j.0.<.0.<.~ 5 0.+.r.3.X.- , < < , , , ",
"<.X.~ =.=.h 3 0.r.r.x.3 < ~ =.X.<.5 = , 6 w 4 w 3 = , 4 3 7 6 6 : - 3 D h 3 1 ' +.+.+.+.3 6 l.<.0.l.r.D 3 j.0.:.r.+.; : , 1 , ; ; ",
"~ h N X.h < ; w +.~ h = # < 4 h 3 * o + * ; & & $ O O $ ; 1 , ; $ # , < , - = 4 ~ ~ +.~ ; , +.~ ' ' ~ 2 ; 6 ' +.0.h $ * ; ; ; * * ",
"1 4 1 ; # * $ * ; & O # * ; ; $ # * ; ; = # o . . O O O + + o O ; 1 < : $ . o * < 1 , : - * ; ; ; * * : , ; - : ; ; = - * + % # & ",
"N ~ 7 : @ : < < - * o , H d w = < w.k.j.0.+.d * * ; ; : : * # 1 f.j.r.r.2 # = < 4 < * - ~ +.' ~ 3 + # X.=.X.1 o * 3 6 h , * d ~ ~ ",
"j.j.j.0.; < < 1 < 1 - 4 D 4 D , H k.0.+.:.l.f., ; < : , < ; ; h j.0.<.f.h < h ~ D R w h l.0.r.x.r., , =.~ <.~ ; w w w h 3 1 <.~ ~ ",
":.:.r.+.- < < , : , ; 4 w w h , ~ j.0.:.0.w.<.< : , : < < ; ; D r.0.r.r.w 1 6 w w p 4 d +.+.f.0.0.< , +.+.w.h : 4 h 6 d 1 < +.X.X.",
"r.0.j.+.; , < ; , : = 1 w 6 h 1 ~ r.r.r.f.<.:.< : < , < < ; ; h j.0.0.r.h 2 6 6 h 6 3 6 0.r.r.0.0.1 , f.+.+.h : w 6 6 w 1 < :.~ ' ",
"k.r.0.:.; : , , , , = 1 w w p : w :.:.f.w.0.' : - < < < , ; : h j.r.:.r.D 2 H h d 6 < 4 j.:.3.j.3.4 , w.~ { ~ : D h 6 h < , 3.' :.",
"r.r.+.6 $ * ; : : : # = 3 6 , @ * < 3 d D h ; @ * : < < , : ; 3 0.0.:.r.d , d h 4 4 < < j.j.:.r.0.2 : +.X.+.d = 4 6 d 4 ; = d D D ",
"; ; ; - + + @ # # * O O @ # O # # # + # # $ # * ; = $ # * = + + = 1 h h ; # - 1 2 , & $ 3 D h h 1 # # ; > , = O & < : = # + # = ; ",
"1 1 3 4 3 1 ; # , 2 w < o & < < < 1 < ; # 1 0.k.+.& @ ; < 2 2 ; # O = < < < : # O = , < 3 , # X # ; - # X o + + # O # , 4 6 1 1 1 ",
"5 3 5 3 3 6 6 ; d D ~ 6 - , ; , : : < < ; h r.r.:., 1 D D h p ~ h ; 2 x.j.r.k.d ; +.x.j.r.0., $ < < 1 < * * 1 < 1 ; < ' h D ~ D D ",
"6 1 3 7 7 3 6 , w 6 w 3 - < , , : < < , ; ~ f.0.0., < w w w d D w 1 h 0.:.:.=.h 3 0.0.0.0.+.2 - < , ; , - = < ; < : : D h D w 4 6 ",
"7 3 3 6 6 3 6 : w h h 6 - : < < < , : < ; w 0.j.0., 1 h 4 6 w D w 1 h r.r.:.0.H 1 :.r.0.r.0.1 - 4 < , , - = < , < ; , D 6 D w h 6 ",
"7 5 3 5 5 5 3 : w 6 w 3 = ; , , , < < , - d j.l.:.; 1 d 6 p D D w 2 D j.0.<.r.D < <.j.f.r.0.1 = < < < , - = < ; , ; : H h D w h w ",
"5 5 1 5 3 3 3 : h D w 3 & ; , , ; , : , - w 0.j.D = 2 D 6 w w D w 1 ~ j.:.+.0.d < +.r.f.k.:., = < < < , = & < , : ; : ~ h h D w w ",
"5 7 3 7 3 6 4 = 6 6 w 4 # ; 1 < , , 1 : # < 0.j.2 @ * 2 w h D ~ 3 : h j.0.l.j.4 & 2 0.f.w.~ = & , < < < = & 1 < ; ; ; D 3 3 6 w D ",
"# = ; ; ; 1 ; O : 4 1 & . X # ; , ; $ @ X O * * @ @ & * & & * = + . & , ; ; - * # + @ * & # O O @ - ; - # # , : < & * 4 6 h w 6 4 ",
"3 1 ; o o = & # . . @ + # # + o O * < < < 1 * # < h 6 w 4 : + O ; < - + X # - : < : = + . = D ~ : o # $ # $ = + * # + @ # - & = * ",
"H D w * ; 0.=.r.; # ; 2 , , < * # h 0.=.{ +.6 1 6 D w w w H , , +.j.f.1 * < 1 < , , , - * +.r.<.+.; 3 w w p 6 = < 3 4 < ; * O < :.",
"4 4 6 - 4 j.+.<.4 ; ; : , , < ; = 6 ~ +.~ +.4 1 6 6 6 h w w < 4 r.:.r.4 = : ; ; , , , ; ; 0.f.0.X.; 2 w 4 4 w : 5 3 6 6 3 6 ; 3 f.",
"w 3 3 * 4 f.+.f.1 ; , < : : < ; & h =.X.X.+.3 1 w D w 4 3 6 4 d 0.f.r.4 - ; , , : , < ; ; :.:.0.X.; 3 D d 4 w : 5 5 6 3 1 7 : 3 j."
};
