/* XPM */
static char *be7c6701111d4126ff35b89f4651150eDaiC8ATA395DCauo[] = {
/* columns rows colors chars-per-pixel */
"64 64 218 2 ",
"   c None",
".  c #79AD2F",
"X  c #7AAE30",
"o  c #79AE2F",
"O  c #78AD2F",
"+  c #7AAF30",
"@  c #7BAF31",
"#  c #7CB031",
"$  c #7DB032",
"%  c #7BAF30",
"&  c #78AC2E",
"*  c #77AC2E",
"=  c #7AAE2F",
"-  c #76AB2D",
";  c #75AA2C",
":  c #7FB032",
">  c #7BAE30",
",  c #7EB032",
"<  c #74A92C",
"1  c #78AD2E",
"2  c #7DB132",
"3  c #8DB83A",
"4  c #7DAF31",
"5  c #7FB233",
"6  c #8CB839",
"7  c #7CAF31",
"8  c #7CAE30",
"9  c #8AB738",
"0  c #7DB031",
"q  c #85B335",
"w  c #86B335",
"e  c #76AB2E",
"r  c #81B133",
"t  c #88B537",
"y  c #7BAD2F",
"u  c #84B435",
"i  c #7AAD2F",
"p  c #8BB738",
"a  c #85B435",
"s  c #7BB031",
"d  c #80B233",
"f  c #83B335",
"g  c #7EB132",
"h  c #80B133",
"j  c #8AB637",
"k  c #7EB232",
"l  c #89B537",
"z  c #87B536",
"x  c #80B132",
"c  c #87B436",
"v  c #86B436",
"b  c #84B335",
"n  c #89B638",
"m  c #87B435",
"M  c #79AE30",
"N  c #8EB93A",
"B  c #81B233",
"V  c #8FB93B",
"C  c #8CB739",
"Z  c #81B234",
"A  c #7CAF30",
"S  c #74AA2C",
"D  c #8AB638",
"F  c #8BB739",
"G  c #83B234",
"H  c #7FB132",
"J  c #8EB83A",
"K  c #83B334",
"L  c #82B334",
"P  c #93BB3D",
"I  c #75AA2D",
"U  c #84B334",
"Y  c #89B637",
"T  c #84B234",
"R  c #88B637",
"E  c #87B537",
"W  c #86B536",
"Q  c #77AB2E",
"!  c #8AB739",
"~  c #82B234",
"^  c #75AB2D",
"/  c #84B436",
"(  c #90B93B",
")  c #8CB738",
"_  c #83B233",
"`  c #7EAF31",
"'  c #92BB3D",
"]  c #81B434",
"[  c #84B536",
"{  c #8FB93A",
"}  c #8EB839",
"|  c #88B536",
" . c #7EB031",
".. c #77AB2D",
"X. c #8AB537",
"o. c #88B638",
"O. c #7FB133",
"+. c #8CB93A",
"@. c #80B234",
"#. c #8BB638",
"$. c #87B637",
"%. c #8CB83A",
"&. c #8DB739",
"*. c #83B435",
"=. c #7DB131",
"-. c #90BA3C",
";. c #80B334",
":. c #8DB93B",
">. c #86B537",
",. c #7CB132",
"<. c #91BA3C",
"1. c #81B334",
"2. c #7DAE30",
"3. c #82B133",
"4. c #82B233",
"5. c #86B435",
"6. c #77AC2D",
"7. c #90BA3B",
"8. c #7EAE31",
"9. c #73A92B",
"0. c #85B234",
"q. c #8EB739",
"w. c #7AAD30",
"e. c #86B637",
"r. c #7EB233",
"t. c #85B436",
"y. c #8BB839",
"u. c #72A82A",
"i. c #92BB3C",
"p. c #80AF32",
"a. c #7DAC30",
"s. c #79AF30",
"d. c #83B133",
"f. c #84B134",
"g. c #78AA2D",
"h. c #9E9F35",
"j. c #A09532",
"k. c #8F9C2F",
"l. c #939A30",
"z. c #9C9130",
"x. c #85A630",
"c. c #86A831",
"v. c #999630",
"b. c #9C902F",
"n. c #7AAB2E",
"m. c #88A330",
"M. c #909E31",
"N. c #78B030",
"B. c #8FB83A",
"V. c #76AC2D",
"C. c #7FA82F",
"Z. c #999730",
"A. c #A88830",
"S. c #93972F",
"D. c #8AA632",
"F. c #A48D30",
"G. c #B17F2F",
"H. c #9CA135",
"J. c #80B032",
"K. c #939930",
"L. c #A28D30",
"P. c #79B030",
"I. c #8B9F30",
"U. c #AC8631",
"Y. c #7AAC2F",
"T. c #8DB839",
"R. c #76AC2E",
"E. c #8A9A2D",
"W. c #96932E",
"Q. c #8DAF36",
"!. c #93982F",
"~. c #A6882F",
"^. c #87A731",
"/. c #8EA031",
"(. c #A08F30",
"). c #A09130",
"_. c #87A531",
"`. c #8BA231",
"'. c #979630",
"]. c #8AA130",
"[. c #79AC2F",
"{. c #87A02E",
"}. c #7DA82E",
"|. c #85A32F",
" X c #84A630",
".X c #7EAB30",
"XX c #81A830",
"oX c #80AA30",
"OX c #81A62F",
"+X c #73AB2C",
"@X c #90B93A",
"#X c #78AE2F",
"$X c #7FB031",
"%X c #76AA2D",
"&X c #79AC2E",
"*X c #8CB637",
"=X c #86B336",
"-X c #71A72A",
";X c #78AB2E",
":X c #7CB032",
">X c #88B436",
",X c #92BA3C",
"<X c #85B334",
"1X c #89B536",
"2X c #96BD3F",
"3X c #8FBA3B",
"4X c #88B738",
"5X c #8EB93B",
"6X c #73A82B",
"7X c #7FAF31",
"8X c #89B738",
"9X c #94BC3E",
"0X c #91BB3C",
"qX c #8CB73A",
"wX c #85B536",
"eX c #7EB133",
"rX c #7DAE31",
"tX c white",
/* pixels */
". . X o X X O + @ # + o $ o . + + # % & * . = % o X * - O * . X % O O * o . X ; : > X * O X # # - > , * < < ; 1 O O X # % X % # ",
"O . . X X # 2 % + % . X 3 4 o o # 5 6 7 X @ . O 8 > % & X 9 0 . - * O X q X @ X w 7 o O O 1 @ * e r t O * - y : . o o 0 u @ 2 2 ",
". . i p a q o + o s X @ d . 7 f @ g h X X * * * j : # # # 9 0 o ; 1 . 4 9 k g @ o X X l 4 z % * x 0 7 # # o q c O . X h v & # # ",
"X * & l b r * O 0 4 o + # = , n X 1 X t 7 m 8 * 4 X s @ k % @ + . . 1 * X @ % O M % % N B V $ M C Z X o b A = % O O o 1 - - & X ",
"O . 1 * S O o X D t o % 0 X o % . o g F $ G > & O # g # @ @ # X - 1 4 n B , X X u 7 X $ @ @ # % = O * * c B o . 1 o h # . % D . ",
"O . & & ; X X O 7 H + > C 0 o + % @ # # g @ H 7 O , J n K d L + ; 1 , P F l X 0 p > o @ % X X % O X X 1 I & X U . . Y , . = c = ",
"- T K C * o o O . + X . r o X % # % X @ % . C 0 & 7 N R K E W s s O - 7 7 , * * . 1 1 s # . X # % o o o O & & G % X & O . * X O ",
"& J n b . O X % X % . o O & + # # o o & o X H # @ # 2 @ + @ # # g 7 Q & o 7 * G 8 * * 0 ! 2 ~ H X = 4 X % s o o . X o & * O O ^ ",
"o H 5 + o * 7 X G 0 % X = o . X ~ 4 a & o 2 Z 0 = @ 2 / Z B s X H ( . o 0 ) . _ ` * - 7 ' ] 6 E # [ n X % + . 7 ~ : t X @ f % X ",
"- O . + X i { : } , |  .* ..- - X.b D g % % o.O.s 2 2 V V +.% . % ~ X o . , = o 1 1 O X g 2 $ g # g g # s % X g D : 3 @ @.C . % ",
"- - i X > X W O.H X . * & - I 1 A = o % 2 # # + # # # 5 g # * o # # $ + O O X % * o + o % 2 # % % @ 2 @ X X X # @ . # X . & o % ",
"X % #.` X.0 + 2 o o , i 4 . * O o o X % 0 0 X X 4 2 # d t L g o % g @ o o & . @ X 0 > X % # 2 # X + # # % g $.2 # z Z o o % % % ",
"o % H X A 7 X s X X R b z 7 I ; O i j , L %.. X D % * , &.T r M ~ c O 7 , = % W h C h O = @ g V 5 *.L 2 # g V > s B , + % # # =.",
"# 2 # + O . . X + X @ % X . O X s X ` 0 g d O O 0 X S * ..; O . . . O 0 P O.M A > 7 % & o % d -.;.:.>.o 1 @ # X % ,.@ # @ + X # ",
"X $ 2 # o o . X 7 7 o - I . % =.# s * - % o . O . . * * - Q O . . O o @ $.7 @ 2 X : f C , X g g # # 2 % - . , 0 # g @ X , % , 4 ",
"K p H C 7 + h V n F @ X > t % X X X . b K & * o . * - * * - * 8 G ..+ @ o * . % o ~ q E 7 o X 2 # @ X - - - #.K a E o r <.# t   ",
"h b 7 h X + , n d 1.@ # % H . * * * * b ~ & * : q b i o . * * X 2.- o + & - O O . O . X O I 3.4.f W i v . O 4 . b ~ & : b + > 7 ",
"O . O & % @ @ X X # 2 @ X X O - ; - I ; 1 1 O K C } x O . t , * I O % W . . X.7 X q 4 . X * G r : v > W o I - - O * * . + % % @ ",
". + 1 o % 2 @ o 0 f # ~ h X 4 G - O * * X % + % . 7 X o . D 7 - - Q X <.` O q & O 5., o 7 % . O 6.O o 1 - * 1 Q * 1 O . X o + o ",
". X . O 1 O 1 & h %.s o.u @ 0 4.. @ d v % 4 * & 7 X X . 1 o X . O . & 7 % X o * * 1 X o 5.v 1 % o I * e * A X . o X O Q - 0 # . ",
"O . 7 i & - * O @ # # 2 # X + % % o O.Y , F o - X.L O 1 & = o X O . * - O O - * * . % . A , X $ 0 1 . % + N 6 F ! W . * o 7.B * ",
"- i ( &.G O o o + X s o O * + # % o # @ + % o 1 A . * . X . & o 1 . X ; I * 1 . > g 2 # O o 1 h ( X # 2 2 $.u d Z i ^ . O 8.. 9.",
"O O q U 4 * %  .. > 4 & 4 & % *.g  .o X . 1 X X % M . E B 7 p > t 0 * < 0.y q h ~ N 5 F 0 # . % E # t E s % o x 0 ^ O 0 H - * ; ",
"s + . - < ; : q.& r X.& } w.8 P e.%.X + $.u X % @ o o Y ~ X v 7 h % o O X.8 b h % , . 0 @ + % + # # h 1.2 2 @ t r O * : l * * - ",
"X X . * I * 7 G o > H O , * . L 5 2 2 2 $.$.# % # o @ % 1 H , s # o + X 7 . & . & h 7 % , X + o X # 2 r.2 # X X = * - X g + o & ",
"* * * o X # s . . o % . & X M + # o.f + # 2 2 + X X % % 1 D o.o . * X % O - 8 j 0 <.7 g ( % X o o + =.2 X . . X X O . # + + X O ",
"& - * % # 2 # O 1 1 + M = 0 X X @ o.f X X @ # @ % # 2 2 X 7 $ O . % X X * ^ .. .% d . . 4 o . X . o * 1 X * O O d 7 % # 0 7 + . ",
"1 . t.g . h p + X H 2 % A ) , o + # 2 # s 2 $.y.@ # o , $ o + X 0 Z # 2 + o o r r o @ O O . X X O I i 2.r X O o -.t.1 X l U . I ",
"* % 7., - > K + Z V = * 1 % 1 . a g 1.r.5 5 O.: + % M D y.% % @ t.C s @ % % . r 8.u.O % X 4 C X + 1 h D Y 7 M o Z O.S . , 0 X * ",
"1 & % = . . . # @ 0 # @ . X o 4 i./ ' 5 $ V Z * . p.a.p.1.$ % s.7 4 X 1 d.f.o * 4 H g v . X G X X = = % % o # o = X O o + @ s . ",
"* - * 1 - O # 0 : X # % X , o o H 7 1.g @ d o - g.h.j.k.a.l.z.x.c.v.b.n.m.M.N.* W n , D % . o . o @ X ! u B O . g X O o % # # o ",
": > > i < 1 % H B.w q O A &.# o * - & @ 2 . * V.C.Z.A.S.D.F.G.H.J.K.L.P.I.U.k.Y.2 % o X > o o + O o O T.t c ; . 3 , * g # @ x w ",
"t 4.q T - O % X J.8 H o X 8 . o * R.* & X . . X * E.W.i Q.!.~.^./.(.)._.`.'.].8.o * 1 x D + O * - ; & 0 . 1 - S 7 $ . F E * X B ",
"X . [.i o X % * - * * O 4 X o X 7 x X ` > o X 1 ..{.}.- 1 * |.w. Xa..XXXoXOX+X* % X M > : o & & #.i q W + X J...* % . L K o + @ ",
"4 7 7 * X h N X & [.w & | J.o 1 4 @X7 3 3.; ` _ * #X* * o 7 % $X* s # O O O %X&X0 . O O % X % X t 0 Z *.X 1 j 2.I . X X + @ @ # ",
"*X0.| O . $ D = 1 & r i X # + O X H # d 7 R.7 , . o + @ d J r #.+ H p & *  .#.w =X-XI > c . o . 1 . X @ - S Q - S - . % s # ~ % ",
"A ;Xi O o + O * . o o o # @ 1 * O . o o O = # # 2 @ # :X% [.& 7 I O & 9.* X 4.> ..- * & & O . M * X = X 1 * 1 * - 3.> @ 2 0 &.> ",
"A L O.g X X . - * X % * . + X X X & 1 % + + @ s # M X h * ; f , ..- I ; O o * * - o M X o = . X O o D K , L % O I >X` * O 1 = . ",
"B ,XN f *  .<X& * * X - h O.F H o . o g o.0 0 $ 2 # H { X O 5.4 * * Q * O O * , U X v h o h | % + I 1Xh u F * < < - * - - * 1 @ ",
"O h 0 > - >  .* > #.X ^ x , K > o X + Z 2X5 3X4X2 # X H O - * . X o 1 . 7 % . ` q 1 K Z # O.d o o * & X @ > 1 * & . o o o o & X ",
". * + @ X O O * i D [.- - O g d n g @ g *.2 *.5 . o = 7 . * X # % 7 O 4 Y X + o . & 1 & % # o . % X $ # X . 1 o * . % o . X . o ",
"o & . O , h * & O . - & . O E D 3XL g # # % X X * & 1 6 f b W + h 5XX > 3.X X X # W # 1 o X + # X O + X & * - * * J.w w r = 8 . ",
"X . * 1 O.c - * * X O . . . o # 7 + % B 0 4 7 7 r . . W 1.D t.O q D * - * X # X X T.i & . H O.Z * O X X . e . X X 2.c ~ L L &.& ",
". Q r X X O * * , $ 7 E X X L , M o X t 4.a z 7 Y X . + # & * + % % & ; - * + X 6.& - I * C 9 <.% 1 = ~ $ ~ > 5 % 6XQ . @ # , - ",
"o & #.i O 1 * . <.Z $ J i o D L X . X X X % X + % @ % o @ 1 O % % # X & * O o % o o * - 1 > 0 L % O X B.~ C K N X - + - O a , o ",
"% O i O & o & * J.A 1 . & . . . O . . o X # 2 % + % o o X * o o # # @ + X @ . O 4 7 7 . o % X . - * . : X % H L O X X - . l 7X- ",
"# X X o . 1 1 & & - - o . . + & . . * . X o o % X # Y W t.G 4.% @ 2 j H M * * * v G ! W % g p > I 1 . . X 2 g % O o * - - & * ; ",
"+ & + o o 1 X % * * . o . % % o + * * & H c * O o o D t W b B % o = | 0 + * - * . X O.g g , E @ . . 1 * X @ % . 4 . - R.& * - - ",
"J.7 # E % U 7 X . t., f # L 8X0 | X O * i #.o a ~ . X @ g % o % . M @ X % . * 1 . # # # @ @ # X - 1 = 2 % o X A ,XD r h K - - O ",
",XE # T., U 7 # # 9Xf 3 Z $ b X : o * ^ ; > o K G o % O Y f o + % @ # # 5 # X % . 7 u g X + @ + ; > p 9 K . X @ 5.L 7 h h O & - ",
"Z O.X H # + % . O Z 0 0 7 % O * - * o 1 - o o 1 o % X O 7 X X % g # X % W t O o 1 7 0X1.@ # + # # > <Xr , o & * X # + X & o & Q ",
"X o o qXwX+ + X o @ X + + X 1 O * o X + 7 X X % % + O M O * H ! 3 t.. * x n # s @ # r.# % @ @ # # & Q & O O * * 1 X X 1 * o O * ",
". O o 4 7 . % # # 2 2 o . 1 w r O & * O C h b h . g a X X . , n h , O * o 2 # % X % 2 # X X # + o o * o X * 8 r h > 4 X . O 4 q ",
"* O * < * @ + h d Z # X . O : , & - - * H > 4. .* 4 | = & - - - - * o # @ % s X s 2 ,.2 # 2 % . X v H . O O h <.D : | % O o a C ",
"& * * . X % X Y D J > + & * * O X - O . o @ + % X . & * . i ^ 4 7 > , % $ g d # d # $.@.1.L * o # -.9 % r . % Z X X % % X % . X ",
". > n L L o % 0 7 > . X * - : q 5X| h O . X g 2 o = o * 4 &.& v n r a + # t.3 ~ J 2 6 L h f + o o $ $ 7 &.% s # $ D & o % + o % ",
"* # <.E V O = O I * O o & - J.T.t.t.h . X g 7.g X X % % X x - - 7 O O % @ d G % B o 1 o * - O + X * . @ X & . . = r 1 . # @ X X ",
"- X 0 X , X X o - - - O O * & # % % O * . . d @ + X % + X O . X @ X I % # @ O 1 X o S * d.0.~ O * * . X * - - - * O # # X # X # ",
"O X X = X + s % O * 1 & o & - * O 1 O 1 . 1 O . X o X - I O % # # s * * % X . . . . * * w X.B O . O .  .5.. . > X O X 2 $ # + s ",
"O X % 7 X s # # X X . . & O : ~ - * X O o X & X u $ # X & o + X = X o 1 + O * o o X * * & Q * * - - * 4 D X 1 v D O @ 5Xd X X . ",
"o # % t.6 + # M O X z r O X B r * = % o % + . % %.d @ s @ t X * & & b 4 o & & O > &.i o . * * J.Y.I * * Q - - h a * % R g . O X ",
"% + o : W M = 8 X + v : * X X O + n 9 W u s H r % @ o o # 5XO.o o X q > O X 3.I * 8 & O . = . l 4.- * ; - : H g t.- o eXO.o * + ",
"@ o * O % o h N @ % + M & % # @ # W z W ~ o h v I ; 8 v # g 2 2 @ % 1 . & . J.O O > D . m r ; i % . X Q u.q t d V X I b D . O . ",
". * 1 o X + # d # X + % % @ O . s % % + + O * & 9.9., 6 % @ # 2 + . O o . O & o o X z > rXA * . o M % O * % Q X 7 X O @ 7 - O o "
};
