/* XPM */
static char *_1fd03dffe6a4b62ceddfefc35f095cb70BaeXCf6X0K8PQb[] = {
/* columns rows colors chars-per-pixel */
"64 64 197 2 ",
"   c None",
".  c #BF050F",
"X  c #BE1E28",
"o  c #BF272F",
"O  c #BF2930",
"+  c #BA343C",
"@  c #B53039",
"#  c #C3050F",
"$  c #CA040F",
"%  c #D2030F",
"&  c #C50510",
"*  c #CC0511",
"=  c #C50A13",
"-  c #CC0B15",
";  c #CD0E19",
":  c #D30612",
">  c #D90613",
",  c #D40A15",
"<  c #DA0B16",
"1  c #D50E18",
"2  c #DA0E18",
"3  c #CC131A",
"4  c #CC1A1D",
"5  c #C81218",
"6  c #D4131B",
"7  c #DC141B",
"8  c #D31A1E",
"9  c #DD1A1E",
"0  c #D41117",
"q  c #E01B1F",
"w  c #CC1621",
"e  c #C61B24",
"r  c #CC1B24",
"t  c #CC1F29",
"y  c #C41C26",
"u  c #D31C22",
"i  c #DE1D21",
"p  c #D21B26",
"a  c #E01F22",
"s  c #CE2226",
"d  c #C3242C",
"f  c #CB2329",
"g  c #C72429",
"h  c #D42324",
"j  c #DD2424",
"k  c #DC2927",
"l  c #D2252B",
"z  c #D32A2B",
"x  c #DD2C2A",
"c  c #D72928",
"v  c #DD342E",
"b  c #C32B34",
"n  c #CC2B33",
"m  c #C82934",
"M  c #D22631",
"N  c #D12B34",
"B  c #D62E38",
"V  c #CA3036",
"C  c #C6333B",
"Z  c #CB333B",
"A  c #C8383F",
"S  c #DD3532",
"D  c #DD3B35",
"F  c #D5393C",
"G  c #E02425",
"H  c #E02827",
"J  c #E12A29",
"K  c #E12628",
"L  c #E1342E",
"P  c #E13632",
"I  c #E23C33",
"U  c #E33D3A",
"Y  c #D8403C",
"T  c #E44236",
"R  c #E5453A",
"E  c #E74D3D",
"W  c #E84D3E",
"Q  c #E7503F",
"!  c #E8503F",
"~  c #BC3A43",
"^  c #BB3F49",
"/  c #B33841",
"(  c #C53C43",
")  c #CA3A43",
"_  c #C83741",
"`  c #D23942",
"'  c #B3444C",
"]  c #BB444C",
"[  c #BA494F",
"{  c #AD4A52",
"}  c #BA4C55",
"|  c #B64E56",
" . c #AF535B",
".. c #BA545C",
"X. c #B95C64",
"o. c #B35A63",
"O. c #9F646C",
"+. c #AA646B",
"@. c #BB626A",
"#. c #B5666E",
"$. c #B36B73",
"%. c #BC6C74",
"&. c #B4757E",
"*. c #BA737B",
"=. c #AB6F76",
"-. c #CB4144",
";. c #C3444C",
":. c #CA434B",
">. c #CA4B4F",
",. c #D54443",
"<. c #DA4443",
"1. c #D44B4B",
"2. c #D94545",
"3. c #C34C55",
"4. c #CA4D54",
"5. c #D24C54",
"6. c #C4525A",
"7. c #CA555A",
"8. c #CC585B",
"9. c #D45558",
"0. c #E24A45",
"q. c #E84F40",
"w. c #E85140",
"e. c #D1605E",
"r. c #C65D65",
"t. c #CD5E63",
"y. c #C25660",
"u. c #D15D65",
"i. c #CC656A",
"p. c #C56469",
"a. c #D46367",
"s. c #C26C73",
"d. c #D46D73",
"f. c #C4767C",
"g. c #C7767B",
"h. c #D47175",
"j. c #D87679",
"k. c #BD7C83",
"l. c #C57B82",
"z. c #D57980",
"x. c #968B93",
"c. c #9B8C93",
"v. c #8E969D",
"b. c #90979E",
"n. c #91989F",
"m. c #9B959C",
"M. c #B6848C",
"N. c #B78A93",
"B. c #B6929A",
"V. c #959DA4",
"C. c #AA9EA6",
"Z. c #BD9EA5",
"A. c #B59BA3",
"S. c #9CA5AC",
"D. c #9AA2A9",
"F. c #9FAAB2",
"G. c #ABA5AD",
"H. c #B8A4AB",
"J. c #A3ACB3",
"K. c #ABAAB3",
"L. c #A3AFB8",
"P. c #AAB0B7",
"I. c #A6B1B9",
"U. c #ABB3BB",
"Y. c #B2B3BB",
"T. c #B2B8BF",
"R. c #BDB6BE",
"E. c #C4848A",
"W. c #CB858B",
"Q. c #CD898F",
"!. c #C78289",
"~. c #D18087",
"^. c #D2848A",
"/. c #D1898E",
"(. c #CB959B",
"). c #C08B93",
"_. c #C29DA3",
"`. c #CCA8AF",
"'. c #C9ACB2",
"]. c #CEB3B9",
"[. c #C7B4BA",
"{. c #D0B3B9",
"}. c #B4BCC3",
"|. c #B8BCC4",
" X c #CBBBC1",
".X c #B9C0C7",
"XX c #BDC4CB",
"oX c #C2C6CC",
"OX c #C3C8CF",
"+X c #CDC4C9",
"@X c #C5CCD2",
"#X c #C9CED4",
"$X c #CCD1D6",
"%X c #CED4DA",
"&X c #D3D7DD",
"*X c #D2D6DB",
"=X c #D4D8DE",
/* pixels */
"                                                                                                                                ",
"                                                                    > < 7 7                                                     ",
"                                                              > > 2 G J S S G 7                                                 ",
"                                                          > < 9 G 1.s.$.B._.h.<.J 9                                             ",
"                                                    > > 2 i S ,.f.C.V.v.U.=X&X'.E.9.J 9                                         ",
"                                                > < 9 G S 9.Z. XXXS.v.V.P.@X@X|.I.H.p.F x a 7                                   ",
"                                            9 > > k 2.4.N.Y.@X=X&X}.}.#X@XL.V.U.@X@XL.x.#.9.L G 7                               ",
"                                          2 G J 8 e $.[.%X@X|.XXXX}.@X&X#XJ.J.@X=X*X}.V.J.Y./.j.U G 7                           ",
"                                  > 2 7     > 7 G x h -.Q.+X}.J.L.U.U.}.U.}.%X=X%X}.I.}.OX$X=X&X(.7.D G 9                       ",
"                            > > 7 G J J H q > * * 2 G k h C +.c.V.U.|.U.S.J..X@X|.S.S.@X=X%X.XT.U.|.Z.p.2.G 9                   ",
"                        > < 9 J 1.8.s.).h.0.G 7 * & * 1 a J h d  .'.*X@XV.v.D.I.S.b.b.U.@X|.V.D.#X&X%X|.A.4.D k ,               ",
"                  > > 2 G S 1.f.C.V.S.$X&X Xg.e.x 7 - & * , i G j f r.Z.F.J.U.|.U.D.S.}.oX.XL.I.XXOXT.J.I.K.*.e * > 7           ",
"              > > 9 G x i._.R.U.V.n.D.XX%X@XU.K.%.F x 7 - & $ , 9 G j f } B.$X=X@XU.U.%X=X*X|.U.XXXXU.x.=.] w 1 i J G 2         ",
"        2 > > 6 S F 7.N.}.%X=XOXJ..XOX|.S.J..XOX}.c.+.1.S 9 , & $ : 9 G k h 4.(.R.F.S.T.oXT.I.}.$X].s.o , 7 G J j 2 >           ",
"        9 H 7 ; 3.Z.oX@X.XXX#X.X|.&X=X.XV.U.*X&X@XD.V.K.E.a.0.j , & & * 7 L L h @ O.m..X@X|.G.M.3.r , 7 G G 9 , * &             ",
"        > 7 j x l ) !.+XXXJ.L.U.U.}..XU.OX%X&XOXU.U.|.XX%X*X{.t.D k 0 & # 3 I R L h C !.`.f.b ; < i H j 7 : * & &               ",
"            * < G H h V #.c.V.S.U.U.J.J.|.#X@XU.S.}.=X=X$XoX}.}.H.i.,.x 6 * & 3 v T I c r , 7 G G 9 , $ # & * * *               ",
"            & & * , 9 k h g { A.$X%XP.v.V.U.U.V.V.S.OX@XJ.n.Y.%X%X.XG.p.x k 6 * & ; x R E U G 7 : * # . & > > * >               ",
"            > & # # $ , 9 G h z r.`.U.D.J.U.U.S.D.J.|..XU.F.|.#XoXU.L.K.N.) - > , - & ; k 8 * & & & & * * * & *                 ",
"              * * : * # & : 9 H k s ^ M.oX%X%X}.U.XX&X&XoXL.U..XU.V.c.&.^ 5 1 i J i k 4 & . $ : * & : > > > * :                 ",
"              : * > > * * # $ : 9 G k h >.(.+X}.F.U.@X@X}.U.@X*X].X.X , 7 G J i 7 j E E h & : > > * * > > > , 7 ,               ",
"              : & * * * > > & . & : 7 J L h _ +.x.J.XXXXU.K.M.4.r , 9 G G 9 , * x E w.w.J > * > > * # * t 6.@.f * > 7           ",
"              > * * > : : > : & & & & - v R I h O f.].].%.b - < j H i 2 : & . = I W E w.G > : : % 6 ` o.=.| y , 9 k G 7         ",
"          > > 7 , % > > * > > * * > : & & 3 v R T c f r , 7 J J 9 , * # & * $ n 1.Y R E u % * e u./.g.+ ; 1 9 J G 7 >           ",
"        i k 6 ; _ _ 6 : * : > : > > > * , 3 & 3 x R T U J j 7 : * # & * > * * p + ' >.R u Z p.*.p.n , 7 G J i < * $             ",
"        > 9 G k f ( t.5.r * * * > > * & , T v 4 & ; k P 1 * & & & * * * * & 6 T P s ( i.~.l.] 5 , i J G 7 , $ # # *             ",
"          * * 7 G k z ( ..~ r * : * & * > I ! R v 4 = & & * : & * > > > : * - u I E I z f , 7 j J i 2 * $ # * & *               ",
"            & & * 2 G k h O ' 4.M * $ * > k Q Q w.E v = * > > * * > > > > , 1 * = 8 P E T U G 9 , * & . & > > * :               ",
"            > & & & * 1 a H h V 7.t.n - % 6 E E E w.R 1 * > > > * * : M 6.) ; > > * & 3 x i * & # & * : * * * *                 ",
"            > * * : * & * , i H k n ] 3.F 6 I w.w.w.T < > * > : 6 C o.&.} e , 9 J i u 4 & & # * * & : > > > * *                 ",
"              : * > > * * & $ : 9 k h f >.t.1.R R w.I > : * l u.^.#.@ 3 2 G J G 9 i R E h & : > > & : > > > : 1 >               ",
"              * * * : * > > $ . # : 7 J x l ;.| ;.<.x 6 Z @.k.r.f , 7 G J i < * k q.w.w.x : * > > * $ * 4 :.y.f * > <           ",
"              > * * > : : > : & # # $ , I R L h + r.d.Q.%.~ 5 1 9 J G 9 , * & * T w.w.E G > : : % - N } $.X.b - 7 j J 7         ",
"          > > 2 , : > > * > > * * : : & = 8 I R I c n m , 7 j J i < * & & & & l 2.R W Q i : : 3 ,.~.W.' e , 9 J J 9 <           ",
"        i G 7 ; V N 2 % & : > : > > > * - ; & 4 v R I P J k 7 , * # & * > * * t ] ' -.T 8 M 6.*.s._ 3 < i J G 7 : *             ",
"        > 9 J k f 3.i.` 3 $ * * > > * & 6 I z 5 & 3 x I 7 * & & & & * * * & 6 I x e ~ i.~.W.} y , 7 G G 9 , * & & *             ",
"          * : 9 J k l -.6.~ 3 $ * * & * , I w.R v 4 & & # & * & * > > > : * - h I T x l n 3 1 i J G 7 : & $ * & *               ",
"            & & : 7 G k s @ ' :.p * $ * > G w.w.w.E v = * > > * * > > > : , , # = u I T I P J i , * # . & > > * :               ",
"            : & & # * 2 G k u A t.5.p : : 8 E E E w.R 1 * > > > * $ * p :.Z 3 : : & = 8 S j : $ . . & * * * * *                 ",
"            > * * * & & * < i J h V } 3.N , I E E R I < > : > % , m | $...d : 7 j i 3 = & & & * * & : > > > * *                 ",
"              : * > > * & & * , i J c V 7.u.2.T R E I > > * p 5.~.*./ 5 , 9 G j 9 9 T R r # : > > * : > > > > 6 >               ",
"              : * : : * > > & & * , i J k n ;.[ -.E x , n r.E.g.C ; < i J i 2 * h R Q w.x : * > > * $ $ ; Z 3.s - > >           ",
"              > * * : : : > : & & & * 1 I R x e ~ i.d.^.E.} e , 9 G k 7 , * # = I w.E E G > : > : : t ^ $.$.~ ; 1 i J 7         ",
"          > > < : : > > * > > * * : * & = c T R P z :.Z 3 < i J G 7 * # # # # l <.R W E i : $ - F h.W.{ X - 7 j J i 2 >         ",
"        i G , 3 n M > > * > > : > > > * * = = u I R L x J H 9 , * # . * > * $ f } [ ,.R 8 u ;.*.f.4.w , 9 G G 9 , *             ",
"        2 j J u d 6.a.B , * * : > > : * 6 I c = & 8 v R 7 : & # . & * * * & 6 I c d ] a.h.W.@.b , 7 G J i 2 : & & &             ",
"          * , i J k N 4.6.m 1 $ : * & * , I E T c 5 & = $ # & & * > > > : * , x R T c n ) e , 9 G G 9 , * & & & *               ",
"            & * , 9 G k f + ' ) u * * * > J w.E W R z = * > > * * > > > > : , & ; c T R L J H i < * & . & : > * :               ",
"            > & & & : 9 G x s ( i.5.p * % 8 E w.E E R 1 * > > > * * : 6 ) Z 3 > * & = h I x , * & . & * * : * *                 ",
"            > * & * & & : 7 G k h A } ( p - T ! E E I > > : > : * e ] *.$.b * 2 i i 3 = & & & * * & : > > > * :                 ",
"              * * > > & & $ * 2 j k u b 6.9.<.T R E P > > $ 6 ` z.*.' d , 7 G J i 9 I R 4 # : > : & : > > > > >                 ",
"              * & : : * > : & & * 1 9 J c V 3.[ Y T k : t 3.l.W.4.w < i J G 7 : h R E E x * * > > * * * : > >                   ",
"              > * * * * > > * & # # * 6 T I k g / t.9.d.k.X.b , 7 G J i 1 * $ = D w.w.E k > * : > * * >                         ",
"                * : > > * > > * * * * # ; c T T x z 4.>.w 1 9 J J 9 , * # # # , L R E E i > * * : >                             ",
"                > > > > * > > : > > > * * = ; c T R L j K J i 2 : & & * : * *     j L T 6 : >                                   ",
"                    > > * * * * > > : * 6 L u = = h I 0.i , * & & & * * : & *           >                                       ",
"                          : * * > : & * , I E D h = = - * & * & * > > : : * :                                                   ",
"                              > : * & * > J E E E R l & & > > * * > > > > *                                                     ",
"                                  > : * > 7 E Q E E R 1 * > > > & * * > >                                                       ",
"                                      > : - T ! E E T < > : > : * * :                                                           ",
"                                          > x R E w.I > > * : : >                                                               ",
"                                              9 P R v : : :                                                                     ",
"                                                    9 >                                                                         ",
"                                                                                                                                "
};
