/* XPM */
static char *result[] = {
/* columns rows colors chars-per-pixel */
"65 65 221 2 ",
"   c #BF1D16",
".  c #BE2317",
"X  c #BC2A19",
"o  c #BC2818",
"O  c #BB341C",
"+  c #B43C1B",
"@  c #BC3C1E",
"#  c #B6361A",
"$  c #AF3F1B",
"%  c #BF323B",
"&  c #BD3C20",
"*  c #C5040F",
"=  c #CA030F",
"-  c #C60510",
";  c #CB0511",
":  c #C50C12",
">  c #CC0B14",
",  c #CB0F18",
"<  c #D30612",
"1  c #D80613",
"2  c #D20C16",
"3  c #D30E19",
"4  c #D90A15",
"5  c #C41415",
"6  c #CD1216",
"7  c #C21B16",
"8  c #CE141A",
"9  c #CD1A1C",
"0  c #C6151F",
"q  c #D4131B",
"w  c #DA161C",
"e  c #D41A1E",
"r  c #DA191E",
"t  c #D11317",
"y  c #C3251A",
"u  c #CA2B1E",
"i  c #C8271C",
"p  c #D2231E",
"a  c #C3341D",
"s  c #C8301F",
"d  c #CC1C25",
"f  c #CC1F29",
"g  c #C61923",
"h  c #D11621",
"j  c #D31D23",
"k  c #DB1D21",
"l  c #D01F29",
"z  c #CC232B",
"x  c #CE2826",
"c  c #D52323",
"v  c #DB2325",
"b  c #D42B23",
"n  c #D4242A",
"m  c #D52A2C",
"M  c #DB2C2A",
"N  c #DC2928",
"B  c #CA3724",
"V  c #DD322E",
"C  c #D03123",
"Z  c #C52B33",
"A  c #CC2C33",
"S  c #C82B34",
"D  c #D12D34",
"F  c #D82D30",
"G  c #CB3136",
"H  c #C3343C",
"J  c #CB343A",
"K  c #CD393F",
"L  c #C63339",
"P  c #D43334",
"I  c #DB3532",
"U  c #DE3B34",
"Y  c #D33439",
"T  c #D43B3C",
"R  c #D73A38",
"E  c #E0332E",
"W  c #E23C33",
"Q  c #E02E2C",
"!  c #AC4C1E",
"~  c #B4441E",
"^  c #B5471F",
"/  c #A6541F",
"(  c #B54E21",
")  c #BB4A25",
"_  c #A45C21",
"`  c #A85D23",
"'  c #B35324",
"]  c #B75727",
"[  c #9D6D24",
"{  c #9E6722",
"}  c #947C27",
"|  c #9A7B29",
" . c #9B7627",
".. c #A56324",
"X. c #A36A25",
"o. c #AB6727",
"O. c #A5782B",
"+. c #B36029",
"@. c #C24324",
"#. c #C8472B",
"$. c #CC4839",
"%. c #DE4A3D",
"&. c #D84439",
"*. c #C85232",
"=. c #C2552E",
"-. c #E24237",
";. c #E3463A",
":. c #E64C3C",
">. c #E8503F",
",. c #BD3D45",
"<. c #C43C44",
"1. c #CC3C43",
"2. c #C33740",
"3. c #D13D42",
"4. c #BD444C",
"5. c #BB4C54",
"6. c #BF4750",
"7. c #B5545C",
"8. c #B9676C",
"9. c #BA6C73",
"0. c #B7787E",
"q. c #C64247",
"w. c #CD4244",
"e. c #C3434B",
"r. c #CB444A",
"t. c #CA4A4D",
"y. c #D44344",
"u. c #D34845",
"i. c #D1454A",
"p. c #D34B4D",
"a. c #DC4941",
"s. c #C44B53",
"d. c #CC4C53",
"f. c #D44F52",
"g. c #CE555B",
"h. c #CA565A",
"j. c #D25557",
"k. c #D3544B",
"l. c #E85140",
"z. c #E64E40",
"x. c #C45B63",
"c. c #CA5D62",
"v. c #D05E62",
"b. c #CB646A",
"n. c #C86469",
"m. c #D26466",
"M. c #C26D72",
"N. c #C8757A",
"B. c #D17474",
"V. c #7F9929",
"C. c #7DA52E",
"Z. c #77AB2D",
"A. c #79AD2F",
"S. c #75A72B",
"D. c #7BAE30",
"F. c #7EB032",
"G. c #8D8C2A",
"H. c #8F8327",
"J. c #94832A",
"K. c #98892D",
"L. c #86932A",
"P. c #8C932C",
"I. c #859C2D",
"U. c #899D2F",
"Y. c #93932E",
"T. c #929B31",
"R. c #9B8E30",
"E. c #83A22E",
"W. c #80A82F",
"Q. c #83A630",
"!. c #8AA432",
"~. c #84AC32",
"^. c #89AC34",
"/. c #83B334",
"(. c #88B537",
"). c #8AB738",
"_. c #8EB83A",
"`. c #87B837",
"'. c #B77B81",
"]. c #AF7880",
"[. c #C57B82",
"{. c #9B9299",
"}. c #A9868D",
"|. c #B7848B",
" X c #BA8D93",
".X c #B9959B",
"XX c #AA9198",
"oX c #9B9CA3",
"OX c #A49CA4",
"+X c #B39DA4",
"@X c #9CA3AA",
"#X c #A5A5AC",
"$X c #B5A4AB",
"%X c #A5ACB3",
"&X c #AAAEB6",
"*X c #BAACB3",
"=X c #ACB4BB",
"-X c #AAB0B7",
";X c #B1B7BE",
":X c #B9B4BB",
">X c #B1B8BF",
",X c #BEB0B7",
"<X c #C98489",
"1X c #C7979C",
"2X c #C48D94",
"3X c #C59DA3",
"4X c #C999A0",
"5X c #D49DA1",
"6X c #C7B6BC",
"7X c #C8ABB0",
"8X c #B5BBC2",
"9X c #B9BDC4",
"0X c #C5BCC2",
"qX c #B9C0C6",
"wX c #BCC3C9",
"eX c #C2C5CB",
"rX c #C2C8CE",
"tX c #C6C3C9",
"yX c #C6CBD2",
"uX c #CACED3",
"iX c #CDD2D7",
/* pixels */
"A.A.D.A.A.F.A.F.A.F.A.A.F.F.A.A.A.F.F.A.A.A.A.A.A.A.A.A.A.Z.A.A.A.A.A.A.Z.Z.A.A.A.F.A.A.A.A.F.F.F.Z.F.A.Z.Z.Z.Z.A.A.A.A.F.F.A.F.F.",
"A.A.A.D.F.F.F.A.F.A.A.F.`.F.A.A.F.F.(./.A.A.A.A.A.F.A.A.A././.A.A.A.A.A.~./.A.A.F.F.A.A.A.A.A.A.S.A././.A.Z.Z.A.A.A.A.A.F.F.A.F.F.",
"A.A.A.(./.F.F.A.A.A.F.A.F.A.A.F.D.D./.D.A.A.Z.Z././.F.F.F.(.(.A.A.Z.Z.A./.(.F.F.A.F.A.~.(.F.F.A.A./.F.F.F.F.F.F.F.A.A.F./.F.A.F.F.",
"D.Z.A.(./.F.A.A.F.F.A.A.F.F.F.`.F.A.A.`.F./.A.A.A.A.A.F.D.~.A.A.A.A.P.J.G.W.D.A.A.F.A./.(.(.(.F.F.`.F.A.F.F.A.F.F.A.A.A.A.A.A.A.A.",
"A.A.A.A.A.A.A.A.(.`.A.F.F.F.A.F.A.A.F.`./.`.D.A.A.F.D.~.D.A.A.I.J.` O b B ] K.C.Q./.A.D./.F.F.F.F.D.A.Z.A.F.F.A.A.A.A./.F.A.A.`.A.",
"A.A.A.A.Z.F.F.A.F.F.A.A.(.F.A.A.D.D.F.F.D.D.D.A.A.F.(.).^.P.O.( x b M R u.&.#.] K.T.W.A.A.A.A.A.D.A.F.A.A.A.A.F./.A.A.`.F.A.A./.A.",
"A.F./.(.A.A.A.A.A.A.F.A.F.F.F.A.F.A.D.D.A.A.`.~.A.Z.T.R.o.@.u V &.x.9.'..X5XB.g.$.] O.Y.C.A.A.D.F.A.A.A.A.A.A.A./.A.D.A.A.A.A.A.A.",
"A.).)./.A.A.A.A.F.A.A.A.A.A.A.F.F.A.A.A.A.A.~.E.P. .' s b P f.m.|.XX{.oX9XuXtX3X0.h.#.] o.Y.W.F.F.A.A.A.F.A.F.A.D.A.A.A.A.A.A.A.A.",
"A././.D.A.Z.A.A.F.F.A.A.A.A.A.A./.A.~.D.A.W.K.o.@ i c P p.N.3X6XeX=X%X-X9X8X8XqX:X Xn.t.$.=.o.R.Q.F./.`.D.A.D.A.D./.F.`.A.A./.A.F.",
"S.A.A.A.D.A.)./.).F.(.F.A.A.Z.Z./././.!.A.G.] b e e w.N.1X6XeXuXeX9XqXyXqX%X-XwXyX9XoX}.N.m.k.*.o.J.U./.F.F.D.D.F.`.F.).F./.`.F.A.",
"A.Z.A.A.D.D.`.D./.F.A.A.Z.S.Z.A.E.K.X.o.| J.] b k c Y n.4X0XwX8X8X8X9XwX8X>XwXiXyX8X-X=X6X6X5XB.u.=.] | L.Z.D.D.F.F.A.F.F.A.A.A.A.",
"A.A.`.D.`.D.D.F.A.A.F.A.D.S.L.} ' a b m B #.' a q w v I p.M.|.OX@X-X=X=X-X8XyXyX>X-X8XuXuXrX9X*X Xn.u.#.]  .P.^.F.F.F./.A.A.F.A.F.",
"A.A./.A.D.D.D.F.A.A./.^.K...@ s C T i.g.m.k.$.C t ; > r v P K 5.0.&XrX>X@X@X=X=X@X@X-XrXeX=X-XqXtX6X.XM.&.B ) O.P.A./.F.A.A.F.F.F.",
"D.F.F.D.A.A.D.D.F.I.| ' a b M T h.'.}.+X6X5X<Xh.P w 2 : > q c M K h.2X$X@X%X=X8X%X@X-XqXqX-X=XwXyX8X%X$X0.q.9 p ^ O.E.A.F.A.A.F.F.",
"A.F.F.F.A.A.C.P.[ ^ u p v p.N.3X$XoXoX%XyXuX:X$X0.w.N q 2 = > q k M Y s.0.*XyXwX>X=XeXiXyX8X=XqXqX-X{.9.s.z r k v B G.F.A.A.F.F.A.",
"/.(.F.(.D.P...O p v F y.M..XtXuXwX=X=X9X>X;X8XqX:XXX8.d.P r 2 ; > 3 r N P d.<X7X-X%X;XeXqX>X8XtX7X9.% z k v v p s +.!.F./.).F.(./.",
"/./.A.`.C.X.C r q A n.1X6X9XwXyXeX9XyXyX=X%X9XiXwX-XoXOX<Xv.3.N 8 > > 2 k M T t.8.}.&X9X8X$X|.c.1.n r c r w 2 y X.!./.A.F.(.D.F.A.",
"D.A.A.A.A.J.@.p k N q.N.3X:X&X&X=X=XqXqX9XwXuXuX8X8X8XwXtX6X1Xb.1.c q : 6 c E I Y r.M.2X[.s.A k r r w q 2 : : + G.A.A.A.A.F.D.A.A.",
"A.A.A.Z.D.W.K.+ 8 q k F r.n.0.{.#X8X=X=X=XqXyX9X%X=XwXiXuXeX:X*X2Xb.r.m q 8 9 c M V R 3.D k k r w t < - = ;   _ I.Z.Z.A.A.A.A.D.A.",
"A.F.A.A.A.A.C./ 5 : 3 q w n H 7.'.7X9X%X@X%X=X%X@X@X9XyX9X%X;XrXeX*X Xn.T j > > 8 c M Q v k q , ; ; * * = : o  .A.A.A.A.A.A.F.D.A.",
"A.A.A.A.A.A.Z. .o - - : > 3 w n 3.m.[..XOX8X8X=X@X%X8XyX8X&X8XwXqX=X#X|.5.z 2 4 q 8 9 j h > : - * ; < ; < , ~ Y.(./.F.A.Z.A.`./.Z.",
"A.A.(.(.F.A.A.L.+ 5 ; ; - - > q k m T s.9.3XwXwX-X8XwXiXwX8XqXrX:XXX8.5.J j k r r v b e : ; < ; - < < < 1 6 @ R.Q./.D.A.A.A./.D.S.",
"A.A.(.(.F.A.A.Q._ 7 ; < ; ; = ; ; 3 k k R j.N..XOX-X9XrX9X8X,X4XN.q.S n k k r k Q -.;.N 2 < < < ; = < h z S i ^ X.P.C.A.D.D.Z.Z.Z.",
"F.A.A.A.Z.A.D.^...7 : < < < < ; - ; > 3 k I a.t.7.].:X0X$X'.x.1.D v r r q 2 > j W z.:.E 3 1 < 1 > z H 4.e.S q e B ] L.D.F./.Z.Z.Z.",
"A.A.A.A.Z.C.J.] @ 8 ; < 1 < 1 < ; - ; ; , c M I R r.n.n.d.G n k k q 3 > ; * , D :.:.:.M 3 < h Y d.h.,.L A c r r c ' L.Z.D./.D.Z.A.",
"A.A.Z.A.W. .@.p q j f q < = < < < < 1 < ; > q e V I U P N k r k 3 ; - * ; * 6 A q.u.a.N l J s.c.d.J n k k r e 9 ( J.C.Z.D.D.D.D.A.",
"A.Z.Z.A.A. .C r k n J 1.Y d - ; < 1 1 ; ; j c d 6 e N V N q > ; - * ; ; ; ; j I G H f.v.c.h.<.D n k k r 3 < - o } ~.D.D.F.F.D.D.A.",
"A.A.F.A.D.I.X.s h j m T w.<.Z 0 ; 1 ; - ; k W W m 9 8 6 > ; - - ; < < < - : r V W T 3.i.1.A j r k k q < = *   ! I.`.F.D.D./.~.Z.Z.",
"Z.A.`.F.A.F.U.! , > q r m J H % S d , - < q W :.:.&.N 8 = ; < ; ; 1 1 1 2 > , q v V I M N k w w 3 ; - ; ; ; 7 { Q.`.F.Z.D./.F.D.Z.",
"A.A./.A.A.A.D.[   * ; > q r b G 1.1.J g , 2 M :.>.:.;.v < < 1 < < > h A A j < > 3 h c N m q > ; - - ; ; < : + K.D.D.D.A.D.D.D.D.A.",
"A.Z.Z.A.A.A.F.J.# : ; ; ; > w r n Y 3.J A z P ;.:.l.:.k < < 2 h f L <.6.2.h q k r q 9 8 , ; ; - - ; 1 < < : ( L.A.D.D.A.A.D.D.F.A.",
"A.A.A.A.Z.A.A.I.' 5 < < = ; ; 2 3 h j m Y 1.y.u.a.l.-.r 2 d D 3.d.<.<.J n k k k v W I c ; ; < ; ; < 1 1 8 h O { G.Q.D.A.D.F.F.F.F.",
"/.F.F.F.A.A.F.C.X.7 ; < < < < = - > 2 q M R y.q.1.p.a.Y 2.<.t.d.1.A j k k h 3 k W :.:.Q 3 < < < < 3 d S 2.A e y ) O.!.Z././.Z./.`.",
"/./.F.D.A.A.I.J.' 9 ; ; < < < ; - * ; > q N I P J 1.p.j.r.2.G n j k k h 2 ; > n :.l.:.Q 4 < 2 h D 1.,.4.1.z w w v ( P.A.(./.Z.A.F.",
"A.A.A.Z.Z.G.o.@ 9 q h 2 < ; < < ; ; < = : 8 c N I Y 3.y.Y l k r w 3 2 ; ; - , D u.%.;.N q l G r.g.t.2.A c k k r B X.I.A.D./.A.D.A.",
"/.F./.Z.C.O.C j q z A A j > ; ; < 1 < 2 ; 2 8 9 c N E E N k h 3 ; - - ; ; ; 9 P 2.K u.p.w.e.e.t.1.D k k r q 8 o [ V.S.A.D.D.A./.F.",
"/././.Z.C.G.) c p c Y y.K S g ; ; < < ; ; k V M j 9 j j h 3 ; - - ; ; < ; ; k F P Y r.f.d.1.D j k k w 3 > ; : + L.S.D.A.D.F.F.(.F.",
"D.D.D.D.D.D.H.+ q w k M P 1.H Z d 3 * * > r W :.&.V j , - - ; - ; 1 1 1 < ; 3 c M V R P m k k k q 2 ; - ; ;   / C.A.(.A.A.D.D./.A.",
"~.`././.A.D.E._ 7 - , q r v A H 1.K z , < 4 E :.>.>.-.e ; < 1 ; ; < 1 h d q > ; 6 j M V M v 8 > - - - ; > > o } Z.Z.F.A.Z.A.A.A.A.",
"/.`.(.F.A.D.^.} o : * * > w r k D i.r.A z q N ;.>.:.:.v 1 1 1 1 - g S <.q.z 2 3 2 > 6 d q > - - - ; ; ; ; > ~ L.Z.Z.Z.Z.Z.Z.A.A.A.",
"A.D.D.D.A.D.D.L.~ : ; ; ; - ; q r k A 1.r.K P %.:.:.;.k 1 2 h D 1.e.5.4.S j r k k v c 8 - ; ; - ; < 1 1 < 6 ^ G.C.Z.A.A.A.A.A.A.A.",
"A.A.D.A.D.D.Z.C...5 < < ; ; ; ; ; q w v P y.i.w.&.%.&.v j A 1.g.g.1.z q r k k w N W ;.M 3 ; < < ; ; 2 q n z y ~ [ G.W.A.F.D.D.A.A.",
"D.A.A.A.F.^.C.I...y ; 1 < < < ; - - : q c F Y J H p.p.i.d.s.d.3.m r r j q > > j ;.:.:.E 3 < 1 4 q f Z ,.e.S 3 q b ] U.(././.F./.A.",
"A.A.A.A.D.!.} ..# 8 > < < < < < ; ; ; ; 8 c N V P 3.f.g.d.A d k w w q > - - > m a.z.;.Q 3 3 h D r.e.,.,.L c w w b ( G././.F./.(.A.",
"A.A./.F.C.} @.p q q l j 3 ; < < 1 < < < > 6 e c M V I P k k k q 3 > - - - - 8 G w.a.a.I m L e.d.d.1.z k r w q i ( J.S.Z.Z.A.F.F.Z.",
"A.A.(.A.C.| B j r n K 3.D l 3 < < < < ; > q c c 9 c M V v 3 2 ; * - ; < ; - j P J J r.k.d.s.<.D n k w k q > , O K.C.A.A.S.A.(.F.A.",
"D.A.A.A.A.I.[ a q k m Y 3.2.Z 0 , 2 < - 2 c W W m j 9 h , ; - - - ; < < ; > w V I P K p.1.A j k k q 3 3 : ; : ! I.Z.A.A.A.A./.A.Z.",
"F.A.D.A.A.A.L.! 5 3 4 k v D L % S n 8 ; = q W >.:.;.m h ; ; < ; ; < 1 1 3 , , q c M U V F k k q > - - - ; ; 7 [ C.Z.A.Z.Z.S.A.Z.Z.",
"F.A.F.A.A.A.W.[ . - : 2 q r v A Y t.T f q 3 M :.:.:.;.c ; < < > ; > h D L z 2 < 2 8 c N v q > : - ; ; ; < , # G.A./.F.A.A.A.S.A.Z.",
"(.A.F.(.A./.D.J.# - = = * ; q r v D L 2.S z M ;.:.>.;.k < < < 3 l L 4.7.q.c 3 r r h 9 6 : * = = ; < 1 < < 5 / E.F._.(./.`./.Z.A.A.",
"_./.F.(.F./.A.I./ : = < ; = * ; 2 e c c J t.i.y.%.:.W r < h A p.b.x.H f q k v r v E W c : ; 1 ; - < 1 < 8 # } C.A././.D.F.F.A.A.Z.",
"F.F.A.F./.D.D.Z.[ y : < ; < < ; * ; 2 r M m J e.q.y.U N A s.n.b.1.j r v v r 2 r U >.:.E 3 < 1 < ; : 6 X ' J.C.Z.Z.A.D.A.A.A.A.A.A.",
"F.A.A././.F.A.F.J.# : < < < 1 < * * - > r V V m S q.h.v.x.s.A q r r k w > = : u %.:.:.M 4 2 2 > 7 + _ L.C.A.A.A.A.A.D.A.A.A.A.A.A.",
"A.A.A.A.A.A.A.F.E...y t 4 ; < < < ; < ; : 6 M V I I T T n r k k r 2 < ; = = 7 ^ *.%.%.N 6 5 o !  .P.D.A.A.D.A.F.`./.F.A.F.A.A.F./.",
"A.A.Z.Z.A.A.F././.Y./ a 9 - > < < < 1 < = q e 9 v V E M v k w 2 ; - - ; < ; + P.G.o.=.@.^ ..K.E.A.F.`.D.A.D.A./._.`.F.`.A.A.A.F.`.",
"A.Z.A.A.A.A.A.(.(.(.W.G.{ ~ . > < 1 < ; ; c E b d 9 c M j > ; * - ; ; < = 5 .././.Q.Y.R.Y.^.A.A.A.F._.`.D./.D.D./.A.F.F.A.F.A.A.F.",
"A.F.)./.`.F.A.F.A.D.A.D.C.P.X.~ y 6 ; * = r -.;.&.V c > : = = ; ; < 1 < 2 # R.).`.`.F.(./.F.D.A.A.A.A.F.F./.A.F.A./.(.A.A.A.A.A.A.",
"Z.F._./.).A.A.A.Z.Z.Z.A.A.Z.W.T.O.! o 5 t 4 E ;.:.>.W r ; 2 < = ; > > 8 y [ ~.F.F.F.A.A.A.A.Z.A.A.A.A.A.A.A.A.A.A.A./.A.A.F.A.F.A.",
"Z.A.F.F.A.A.D.A.Z.Z.Z.A.A.A.A.A.C.I.} / X 9 N ;.:.:.;.k < < < ; > 7 + ` J.E.A.A.A.A.Z.Z.A./.`./.A.A.A.A.F.A.Z.Z.S.A.A.F.F.A.F.A.F.",
"A.A.A.A.A.F.F.D.A.Z.A.A.A.A.A.A.A.A.C.I.J./ @.&.:.>.;.k < > > y ~ [ G.V.A.F.A.A.A.A.Z.Z.A./.`.D.A.A.A.A.F.F.A.A.D.F.A.A.F.F.F.F.F.",
"A.A.F.A.D.F.F.F.D.A.A.A.A.A.F./.A.Z.A.A.C.E.P.X.*.:.&.p 5 O / } L.E.A.A.A.A.A.Z.A.D.D.Z.Z.A.A.A.A.Z.Z.Z.A.(.A.A./.(.A.A._./.A.A.A.",
"A.F.F./._.D.D.A.A.D././.A.A.F./.A.Z.D.D.A.D.A.C.T.O.] ' [ Y.!.A.A.A.A./.A.A.A.A.A.F.`.A.A.A.Z.A.F.A.Z.Z.Z.Z.Z.A././.A.F.`.F.A.A.F.",
"A.A.A.F./.D.A.F.D.D./.F.A.A.A.A.A.`.).`.`.~.D././.A.E.W.Z.(.(.D.A.A./.F.A.A./.A.A.A.D.A.A.A.A.A.`.F.Z.Z.Z.Z.F.F.F./.A.A.F.F.A.A.A.",
"A.A.A.A.D.A./.`.F.D.A.F.A.A.F.A.A././././.A.~./.A.S.Z./.F.F.F.F.F.D.D.A.A.A.A./.A.A.F./.A./.F.A.A.A.A.A.A.S./.(./.).A.A./.(.A.A.A.",
"A.A.A.A.A.F.F.F.F.F.A.A.F.A.A.A.F.F.A.A.F.A.A.A.Z.S.A.`./.A.F.F.A.A.A.A.A.A.A.A.A.A.F./.F.A.A.A.A.A.A.A.A.A.A.A.A.D.D.A.D.A.A.A.A."
};
