/* XPM */
static char *_216338fd17b420bdab351b421b1cc80SGy3rcScjR8uV9Cy[] = {
/* columns rows colors chars-per-pixel */
"64 64 143 2 ",
"   c #754719",
".  c #76491A",
"X  c #7A4B1B",
"o  c #73541C",
"O  c #7D561E",
"+  c #735D1E",
"@  c #6E651E",
"#  c #6F681F",
"$  c #70661F",
"%  c #7F601F",
"&  c #71681F",
"*  c #6F6D20",
"=  c #726720",
"-  c #7E6521",
";  c #736A21",
":  c #7B6922",
">  c #737623",
",  c #7A7123",
"<  c #747E25",
"1  c #82511F",
"2  c #80591F",
"3  c #8A5722",
"4  c #875F21",
"5  c #8E5C23",
"6  c #915D23",
"7  c #856423",
"8  c #8F6024",
"9  c #966125",
"0  c #9C6326",
"q  c #9C6429",
"w  c #837025",
"e  c #807C28",
"r  c #A16727",
"t  c #A76C2A",
"y  c #AC6E2C",
"u  c #AE712C",
"i  c #B1722D",
"p  c #B9772F",
"a  c #AF7232",
"s  c #B47532",
"d  c #B87732",
"f  c #B67835",
"g  c #BC7A34",
"h  c #C37E33",
"j  c #748225",
"k  c #788126",
"l  c #768D28",
"z  c #759529",
"x  c #7A932A",
"c  c #769B2B",
"v  c #7B9C2D",
"b  c #76A42D",
"n  c #79A62E",
"m  c #76AB2D",
"M  c #79AD2F",
"N  c #7BAE30",
"B  c #7BAE3C",
"V  c #7DB031",
"C  c #7EB03A",
"Z  c #7CAF40",
"A  c #7EB141",
"S  c #7FB14F",
"D  c #84912F",
"F  c #8C962F",
"G  c #8E8132",
"H  c #849830",
"J  c #9E9631",
"K  c #949E32",
"L  c #9D9A32",
"P  c #AF8D32",
"I  c #BE8633",
"U  c #B38C33",
"Y  c #BC8B35",
"T  c #A59532",
"R  c #AC9234",
"E  c #A19932",
"W  c #B09937",
"Q  c #85A42F",
"!  c #89A32F",
"~  c #86A632",
"^  c #8FA332",
"/  c #83AB32",
"(  c #8AAE36",
")  c #89AE38",
"_  c #95A534",
"`  c #9FA336",
"'  c #83B334",
"]  c #89B537",
"[  c #82B33B",
"{  c #8BB739",
"}  c #8EB83A",
"|  c #91BA3C",
" . c #A2A037",
".. c #C68134",
"X. c #C88335",
"o. c #C38836",
"O. c #C78438",
"+. c #BD8443",
"@. c #89AD45",
"#. c #82B343",
"$. c #89B643",
"%. c #81B24F",
"&. c #8DB848",
"*. c #83B351",
"=. c #8EB956",
"-. c #97A968",
";. c #91BB6D",
":. c #C38644",
">. c #C58946",
",. c #C78C48",
"<. c #8FBA8E",
"1. c #91BB8F",
"2. c #92BC8F",
"3. c #8FBB92",
"4. c #91BB91",
"5. c #91BC92",
"6. c #96BE92",
"7. c #97BE94",
"8. c #98BF96",
"9. c #91BC9A",
"0. c #ADAA90",
"q. c #B2A99E",
"w. c #B3AA9E",
"e. c #97BEB4",
"r. c #98BFB5",
"t. c #99BFB8",
"y. c #B3ACA0",
"u. c #9CC196",
"i. c #9AC0B6",
"p. c #9AC1B7",
"a. c #9AC1B9",
"s. c #9DC2B9",
"d. c #9EC2CF",
"f. c #9EC3D1",
"g. c #A1C4CF",
"h. c #A1C4D0",
"j. c #A0C3E7",
"k. c #A2C4E6",
"l. c #A5C6E7",
"z. c #A3C6E8",
"x. c #A6C7E9",
"c. c #A7C8E9",
"v. c #A8C9EA",
/* pixels */
"M M N M N N M N N V N M V M M N N V N M m M M N M N m m M m M N M M M m M M N m V N N m M N V V m N V m m m m M M M N V N N N V ",
"M M M N N V V N N N M N } N M M V V } N N N M M N N N M N { V M m m M N ' N N N ' N M M M M N m m ' ] M m m M V M M M V ' N V V ",
"M M M { ' ' M N M V N N ' M N ' N V ' N N m m m ] V V V V { V M m M M N { V V N M N N ] N ' N m ' V N V V M ' ' M M N ' ' M V V ",
"N m M ] ' ' m M V N M N V M V { N M N ] N ' N m N N V N V N N N M M M m N N N M N N N } ' } V N { ' N M ' N M N M M M M m m M N ",
"M M M m m M M N { ] M N V N M N M M V { V ' N M M N N n n N B B B B C $.[ [ B B [ C B C C C C C C B B B [ [ B B B C [ V M N { M ",
"M M M M m N N M N V N N { V M N N N V V V N V N b v D e w G -.1.<.<.1.u.6.7.<.3.8.5.4.4.5.5.2.1.1.2.4.<.<.5.4.6.1.<.;.C M M ' M ",
"m ' ' { m M M M M N N M ' M N N V N N N n c H k , 7 8 r p +.q.l.x.x.x.x.x.z.z.k.z.x.c.x.x.x.c.x.c.c.x.x.x.c.x.x.x.x.r.B M m N M ",
"M } { ' M M N N N N M M M M N N n b z j > : 7 9 t s h X.X.>.q.l.z.x.x.z.z.k.k.k.z.x.c.x.z.x.c.x.x.x.z.z.z.x.z.x.x.x.i.Z m M M m ",
"M V V N M m N N ' V N N M n c l < ; - 4 9 t p h ..X.X.X.X.:.q.l.z.x.x.z.z.k.k.z.x.x.c.c.z.x.x.x.x.k.k.k.x.z.z.x.x.x.s.A N ' N N ",
"m M M N N M } V } N ~ x < * $ % 5 0 y d h ..X...h h g h ..:.q.k.z.z.x.x.z.z.z.z.x.z.z.c.x.z.x.x.x.z.z.x.x.z.z.x.x.z.s.A ' { M N ",
"m m M N N N / n l > # + 2 5 r i g ..X.X.X...g d s s s s ..:.q.k.z.z.z.z.x.x.z.z.z.z.z.z.x.z.x.x.z.x.x.x.x.z.z.x.x.z.a.A M M M N ",
"N N { N ~ j ; + o O 6 t p g ....X.X...g g s s d g h g s h :.q.l.x.z.x.x.x.z.z.z.z.z.z.z.z.x.x.z.z.z.x.x.z.k.z.x.z.x.a.A M N N N ",
"M N V n > . 1 9 t p g ..X.X.....g g f g g g h h ..X.h s h >.q.k.x.x.c.x.x.z.x.x.z.z.z.z.z.z.x.x.x.x.x.x.x.z.z.x.x.x.a.A N V V V ",
"V V V n # X t ............g f s f g ..........X.X.X...s h >.y.l.x.x.x.x.x.x.c.x.x.z.z.k.z.z.z.x.c.c.x.c.x.z.x.x.x.x.r.A N N N V ",
"N V V N & X i X...h d s s f g ....X.X.....X.X.X.X.X...s h >.q.l.x.x.x.c.z.x.x.z.z.z.z.z.z.z.x.x.x.c.x.x.z.z.x.c.c.v.a.A V N V N ",
"' { V ( $ X i X.g s s g ..X.X.X...X.......X.X.h ....h s h >.q.k.k.z.z.c.z.z.x.x.x.z.z.z.x.c.x.x.x.x.x.z.z.z.x.c.x.c.i.#.| V ] ' ",
"' ' N N # X u ..d g ..X...X...X.X.X.X.X.X.X.X...X.X...s h >.q.l.z.z.x.x.x.z.z.x.x.z.z.z.x.x.x.z.z.z.z.k.z.x.x.x.x.c.i.#.' N N N ",
"M M M n $ X u ..s g ............X.X.X.X.X.X.....X.X...s h :.q.l.x.x.x.x.k.z.x.z.c.x.z.z.z.x.x.z.z.x.x.z.z.x.z.x.x.c.a.Z N N N N ",
"M N M n $ X i ..s g ..X.X.............X.X.X.X...X.X...s h :.q.l.c.c.c.x.z.x.x.x.x.x.x.x.x.x.x.x.x.z.x.x.x.x.z.z.z.z.a.A N M N M ",
"M N M n # X i ..g g X.X.X.......h ....X.X.X.X.X.X.X...f h >.q.x.c.c.c.x.z.x.x.x.x.x.x.x.x.x.x.x.x.z.z.z.x.x.z.x.x.z.e.B m V V M ",
"M M N n $ X i ..g g ..X.X...........X.X.X.....X.X.X...s h >.q.x.c.c.x.x.x.z.z.x.z.z.z.z.x.x.x.x.x.z.z.z.z.x.z.z.z.x.e.B M | ' m ",
"m M | ( ; X i ..g g X.X.....X.X.....X.X.X.X...X.X.X...s h >.q.x.c.c.x.x.x.z.z.z.z.z.z.z.x.c.x.x.x.x.x.x.x.x.z.z.x.x.e.B M N M m ",
"M M ' / = X i ..g g X.X.....X.X.X.....................s ..>.q.c.c.c.c.x.x.z.x.x.z.z.z.z.x.c.c.c.v.c.c.x.x.x.x.x.x.x.e.#.V m m m ",
"V N M b # X u ..g g X.X.X...........X.X.......h ....h f ..>.q.c.c.c.x.z.x.c.x.x.x.x.x.x.x.c.c.x.x.c.x.x.c.x.x.x.x.x.r.#.] m m m ",
"N N M n # X y h d g X.X.X...X.....X.X.X.X.....h ......s ..>.q.l.x.x.x.x.x.x.x.x.z.x.x.x.x.c.c.c.c.v.c.c.c.x.x.x.x.x.i.A V N M M ",
"m m m n $ X y h d g ..X.X.X.X.X.X.....X.X.X.....X.X.h s ..>.q.l.z.k.z.x.z.z.x.c.x.z.z.z.x.x.c.v.v.c.x.x.x.x.c.c.x.x.i.#.N N N M ",
"M m m n $ X i ..s d ..X.X.X.X.X.X.X...X.X.....X.X.X...s h >.q.k.z.z.z.z.x.z.x.c.x.c.x.x.x.x.c.c.c.c.z.z.x.x.x.x.x.x.a.#.V N N M ",
"M M ' N # X i ..s d ....X.X.X.X.X.X.X.X.X.X...X.......s h :.y.k.z.z.z.z.k.z.c.z.z.z.x.x.x.z.x.x.c.z.z.z.z.z.x.x.x.x.e.A ] ' M m ",
"m N | N # X y ..s g ....X.X.....X.X.X.X.X.X.X...h h h s h >.q.l.z.z.z.z.k.z.x.z.z.z.z.z.x.z.z.z.x.x.z.z.z.z.z.z.x.x.e.B V V N m ",
"M M N n # X i ..g g ..X.X.X.X...X.X.X.X.X.X.X.......h s h >.q.l.x.z.x.z.z.z.x.z.z.z.z.x.x.z.z.x.z.x.z.z.z.z.z.z.x.x.r.A N N V M ",
"m m m n # . i ..g g ....X.............X.X.X.X.X.X.X...s h >.q.l.x.z.x.x.x.z.z.z.z.z.z.x.x.z.x.x.z.x.x.x.x.x.x.z.z.x.a.A N V V M ",
"V N N n @ X u h s g ..X...............X.X.X...X.X.X...s h >.q.k.z.x.x.x.z.x.z.z.z.x.x.x.x.x.x.x.x.x.c.c.x.x.z.z.z.z.e.#.V N ' ' ",
"] ' ' / # X u g y s ..X.X.X.....................X.X...s h >.y.x.x.x.x.z.x.x.k.j.z.x.x.x.x.x.x.x.x.x.c.c.x.x.z.z.z.z.e.&.' m N ' ",
"N M M n # X y t 1 6 p ..X.X.....................X.X...f ..>.q.l.x.x.x.x.x.z.x.z.z.z.x.x.x.x.x.x.c.c.c.c.x.x.z.x.z.z.r.#.' M N N ",
"N N N n # . y i 5 X 9 h X.......X.X.X...X.....X.X.X...f ..>.q.l.c.x.x.x.x.x.x.z.k.z.x.x.x.z.x.x.x.c.x.x.x.x.x.x.x.x.r.A N N N V ",
"{ ' ] n # X u ..s 3 1 d X.....X.X.X.X...X.X...X.X.X...f ..,.q.l.x.x.x.x.x.c.c.x.z.z.z.z.x.z.z.x.z.k.z.z.x.x.x.x.x.x.r.A V V ' N ",
"N n M n # X i ..g q X u X.....X.....X.X.X.........X...f ..>.y.l.x.x.c.c.x.x.c.x.x.z.k.z.x.x.x.x.x.z.x.x.x.x.z.z.x.x.t.A V V { N ",
"N ' V N $ X i ..g 0 X y X.X.........X.X.X.X.X.X.X.X.O.f ..>.q.k.x.c.c.x.x.x.z.z.x.z.x.x.x.z.z.z.x.x.x.x.x.x.x.z.c.c.i.B M M M M ",
"' | } / @ X y g q X 1 p ........h ..X.....X...X.......f h :.q.k.z.x.x.z.x.x.x.x.x.x.x.x.z.x.x.x.x.z.x.z.z.x.z.x.c.x.e.B m m M N ",
"M ' V n @ X y r . X t h ..X.....h ..................h s h >.q.k.z.z.z.x.x.x.x.c.x.x.z.z.z.x.z.z.k.x.x.z.k.z.x.x.x.z.i.C M M M N ",
"M m N N $ X u s r s ..............X.....h ........X...s h :.q.k.z.z.z.z.x.x.z.z.z.z.x.x.z.x.z.z.z.x.c.x.z.z.z.x.x.x.i.C M N M M ",
"M M M n ; X u ..g g ........h ....X.....h ....X.......s h >.q.l.x.x.x.z.z.x.z.z.z.k.k.k.z.z.x.x.x.c.x.k.z.k.z.x.c.c.i.$.' M N M ",
"N M m n ; X i ..g g ..h ....h ....X.........X.X.......s h >.q.l.c.x.z.z.z.z.j.z.z.z.k.z.z.z.x.z.x.x.z.z.z.z.z.z.x.x.s.#.' ' { M ",
"M m ' n ; X i ..g g ....h ..X.X.............X.X.......f ..>.y.x.x.z.z.x.z.z.k.z.x.z.z.x.x.x.x.z.z.x.x.x.z.z.z.z.z.x.r.A N V V m ",
"M M { n & X i ..d g ..........X...............X...X...f ..,.y.x.x.z.z.x.x.x.z.x.z.z.z.x.x.x.x.z.z.x.x.z.z.z.z.z.z.x.i.B M ' V M ",
"N M M n $ X i ..s g ....X.......X.............X.X.X.O.f ..>.y.l.x.x.x.x.x.x.x.x.x.x.x.x.x.x.x.x.x.c.x.z.z.z.z.z.z.z.i.B M ] N m ",
"V N N n $ X i ..s g ..X.X.X.....X.............X.X.X...s h >.q.k.x.x.x.x.x.x.z.z.x.x.x.x.z.x.x.x.z.x.x.z.x.z.z.z.x.x.e.B m M m m ",
"N M N n # X u ..s g ..X...X.............X.X...X.X.X...s h >.q.l.x.c.z.x.x.x.z.z.z.x.z.z.z.z.x.x.z.x.x.x.x.x.z.z.x.x.e.Z M m m m ",
"' N V / $ . y h s g ..X.X.X.............X.......X.X.h s h >.y.x.x.x.x.x.c.c.x.x.x.x.x.z.z.x.x.x.z.z.x.x.x.x.x.z.z.z.a.#.' m m M ",
"| ' V ( #   y h s g X.X.X.X.X.X.............X...h g s s ..>.y.l.x.x.z.x.c.c.x.x.z.z.z.x.c.x.x.z.z.x.z.c.c.x.z.z.z.z.e.#.' M M m ",
"' V N n #   y h s g X.X.X.X...X.X...X.......g f a s d h ..:.q.l.z.x.x.x.z.z.x.x.z.z.x.x.c.c.c.x.x.z.x.x.z.z.z.z.z.z.e.A M M M m ",
"N M M ) ; . y h s g ..X.X.X.X.X.......g g s s g h ....h ..>.0.g.h.h.f.f.g.g.d.h.f.f.h.h.h.h.g.f.f.h.f.d.f.f.d.d.f.f.9.B m M M m ",
"M M M n # . y ..d g ..X.X.X.....g g s s g h ..X.....o.U T K @.=.*.*.*.*.%.*.*.*.*.*.*.*.*.*.*.*.%.*.*.*.*.S *.*.*.*.#.N M M N ' ",
"m M m b # X u ..s d ......g s s s g h ..X.O.o.I U T ` ~ n m m m m m M V N N V N V V V V V V N M N ' V M M M ' | { V ] N M M ' { ",
"M m m n $ X i ..s s d d f s d h ..X.O.o.Y R E _ ~ M M m M M m N N N V N V V ' V ' V ' ' ' ' m M V | { N ' M N ' N N N N N N M N ",
"M N { / = X i ..g s s d h h ....o.Y R L ^ ~ ' V M M M m N { M ' { ' ' N V ' } ' } V } ' ' ' N M M V V N { N V V V { M M N N M N ",
"m V | / : X u ..h h h ....I U W  ._ ( M N V | V N N N N N ' m m N M M N N ' ' N ' M M M m m M N N m M N N M M M M ' M M V N N N ",
"m N V n ; X u X.....I U T K ! ~ N N M m M M ' N N N N N N M M N N N m N V N M M N M m m ' ' ' M m m M N m m m m m M V V N V N V ",
"M N N n j O u I P J K Q / n m m M M M M M M M M N M N m m M N V V V m m N N M M M M m m ' ] ' M M M M V ' M M N N M N V V V N V ",
"M N N N n x F ^ ~ N M M M M V ' m m N M M N M N ' V V N M M N N M N M M N M m M M N m m M m m m m m m N { N M ' { M N } ' N N M ",
"M V N ' { N N N M N ' ' M N ' ' m M N M N N M N } ' N V N ] N m M M ' N M M M M N { M M M m m ' M m m m m m m ' ' m N ] V M M N ",
"N N M V ' N M N N N ' V m N N M N { { ' ' V V ' N N M M V } V M M N ' N M N ' m m N M M M M M ] ' m m m m V V V ' m M V V M m N ",
"N M m M N M ' } N N N N M N V N V ' ' ' ' M ' ' m m N ' V V V V N N M M M M ' M M N { M ' ' m M N M N m m ' ] ' } N m ' { M M M ",
"M m M M N N V ' V N N N N N M M V N N N N M m M m m V } N N V V N M M M M M M M M N ' N N N m M M N N M m N m N N N M N N m M M "
};
