/* XPM */
static char *result[] = {
/* columns rows colors chars-per-pixel */
"65 65 122 2 ",
"   c #764C1B",
".  c #7A4F1C",
"X  c #7D531E",
"o  c #755C1E",
"O  c #795B1E",
"+  c #7D6120",
"@  c #716D21",
"#  c #7A6C22",
"$  c #737323",
"%  c #787323",
"&  c #737B24",
"*  c #797C25",
"=  c #83521F",
"-  c #8A5721",
";  c #865E22",
":  c #8B5B22",
">  c #925D24",
",  c #856422",
"<  c #8C6625",
"1  c #816E24",
"2  c #946425",
"3  c #9B6527",
"4  c #976826",
"5  c #9C6A27",
"6  c #986128",
"7  c #817927",
"8  c #887D2B",
"9  c #A56A2A",
"0  c #AA6D2B",
"q  c #A5722B",
"w  c #AC702C",
"e  c #B2732E",
"r  c #B67632",
"t  c #B87732",
"y  c #B77A35",
"u  c #BC7A33",
"i  c #C27E33",
"p  c #768526",
"a  c #768B27",
"s  c #778D28",
"d  c #7D8D2A",
"f  c #77942A",
"g  c #7B972B",
"h  c #769C2B",
"j  c #7E9B2E",
"k  c #77A32D",
"l  c #79A52E",
"z  c #77AB2D",
"x  c #79AD2F",
"c  c #7EA730",
"v  c #7BAE30",
"b  c #7CAE3D",
"n  c #7EB031",
"m  c #7EB03B",
"M  c #7CAF41",
"N  c #7EB142",
"B  c #7EB149",
"V  c #81882B",
"C  c #89972E",
"Z  c #80982E",
"A  c #9D9731",
"S  c #949D31",
"D  c #9D9B32",
"F  c #AD8F32",
"G  c #B78732",
"H  c #B18E33",
"J  c #BB8A34",
"K  c #BF8839",
"L  c #A39532",
"P  c #AC9435",
"I  c #A09A33",
"U  c #AC9835",
"Y  c #89A32F",
"T  c #87A631",
"R  c #8CA532",
"E  c #84AA32",
"W  c #8BAC35",
"Q  c #89A739",
"!  c #93A333",
"~  c #9BA034",
"^  c #83B334",
"/  c #88B537",
"(  c #81B23D",
")  c #8AB638",
"_  c #8EB83A",
"`  c #A1A036",
"'  c #C68134",
"]  c #C88335",
"[  c #C08936",
"{  c #C5833A",
"}  c #C8863B",
"|  c #91994C",
" . c #82B344",
".. c #88B647",
"X. c #82B24A",
"o. c #88B248",
"O. c #B19C63",
"+. c #B4976E",
"@. c #BB9973",
"#. c #8EB965",
"$. c #92B378",
"%. c #8DB985",
"&. c #8FBA89",
"*. c #92BB8A",
"=. c #98BF8D",
"-. c #95BDA4",
";. c #96BEAA",
":. c #98BFAB",
">. c #99BFB6",
",. c #A1B8A0",
"<. c #A8B9BE",
"1. c #99C0AD",
"2. c #9AC0B7",
"3. c #9AC1B8",
"4. c #AAB9C7",
"5. c #ABBAC8",
"6. c #A3C6DF",
"7. c #A3C6E5",
"8. c #A6C8E4",
"9. c #A5C7E9",
"0. c #A7C8E9",
"q. c #A8C9EA",
/* pixels */
"x x v x x v z x v n v x n n x x v n n v x x x v x v z z z z x v v z v z z v v x x n v x z v x n n z n v z z z z x x x x n n v v n ",
"x x x v n n n n n x x x / n x x v n / n v v x v v v v x x ^ ^ v z z z x n n v v n n v x v z n x z z ^ ^ x z z z n x x x n n v n n ",
"x x x / ^ ^ v v z n x v n n x n v v ^ n v v z z n ^ v n n / ^ v z z x x ^ ( n v v v n n m n ^ x x ^ n n n n n n n x x n n ^ x n n ",
"v z x / ^ ^ z x n n z n n v n / n x v ^ v n v z v v v v v E v v v v x x x v v v x v v n / ^ / n n / n v v n n x n x x x v z z x v ",
"x x z x z v z n ( / v x n n x n x x v / ^ ^ v v v v v c c z v b b b b ( ( ( m m N m m N M M M M m m m m m m ( m b b m n n v v / v ",
"x x x v z v v x n n v v / n x x v v v n v v v v z h j V * 8 | $.&.%.%.*.=.=.*.%.&.&.&.&.&.%.%.&.&.&.&.&.%.&.&.&.*.&.%.#.m z x ^ x ",
"z ^ ^ / z x x z x n n x n n v v v v v v c k Z d * # < 4 0 y +.4.7.6.7.7.6.7.6.6.6.6.6.6.6.6.7.7.6.6.6.6.7.6.6.6.6.6.6.-.m n z n x ",
"x ) / ^ x x n v n x x x v x v x v l h s & % 1 < 5 w y i i } @.5.9.9.9.7.7.7.7.7.9.9.9.9.9.9.9.9.0.0.0.9.9.9.9.9.0.0.7.;.M z z z z ",
"x ^ n n x x x x n n x v x l k f a $ # 1 < 3 r t i i i i i { @.4.9.9.9.9.9.9.9.7.9.9.9.9.9.9.9.9.9.9.7.9.9.9.9.9.0.0.7.1.N v ^ v x ",
"z x x x x x / ^ ) n T j a & @ # > > 9 w y i i i i i i i i i @.4.7.7.9.9.9.9.9.9.9.9.9.9.9.9.9.9.9.9.9.9.9.9.9.9.0.0.7.:. .^ / v v ",
"z z x n x n E x g p $ @ + ; 2 9 u i i i i i i u i t r r i { @.4.9.9.9.9.9.9.9.9.9.7.9.9.7.9.9.9.9.9.9.9.7.9.9.9.0.0.7.;.N v v x v ",
"x x ^ n T s * % o o , 3 w e u i i i i i i y y t t i u r u { @.5.9.9.9.9.9.9.9.9.9.9.7.7.9.9.9.9.9.9.9.9.9.9.7.7.0.7.7.;.N x v v v ",
"x x n l p o = = 3 w r u ' ' ' ' i i u u i i i i i i i i t { @.4.9.9.9.9.9.9.9.9.9.9.9.9.7.9.9.9.9.9.9.9.9.9.9.7.0.0.7.1.N v n n n ",
"n n n l @   3 r u i ' ' ' i u t i i i i i i i i i { i u i { @.5.9.9.9.9.9.9.9.q.9.9.9.7.7.7.9.9.9.9.9.9.0.9.9.9.9.0.7.;.N v v v n ",
"x n n x @ X 9 ' ] ' u t r y u u i ] } ] i i ] ] } i i i u i @.4.9.9.9.9.9.9.9.9.9.9.9.9.7.9.9.9.9.9.9.9.9.9.9.0.0.0.8.;.N n x n v ",
"^ ^ ^ E @ . w ' i t r u u ' ' ] i ] i i i } } i i i i u t { @.4.9.9.9.9.9.9.9.q.9.7.9.9.9.9.9.9.9.9.9.9.9.7.9.0.0.7.8.1.X.) n ^ n ",
"^ ^ n x @ . 0 i t t i ' ] ] ] ] ] ] ] ] ] ] ] i i ] ] i i i @.4.9.9.9.q.9.9.9.9.9.9.9.9.9.9.0.9.9.9.9.9.7.9.9.9.9.9.7.:. ./ v n n ",
"n n x l @ X 0 i t u i ] ] i i ] ] ] ] ] ] ] ] ] ] ] ] i u i @.5.9.9.9.9.9.9.9.9.9.9.9.9.9.9.9.0.9.9.9.9.9.9.9.9.9.9.7.;.N v v v n ",
"x x x l @ . 0 i t u i ] ] ] i i ] ] ] ] ] ] ] i ] ] i t u { @.4.9.9.9.9.9.9.9.9.9.9.9.0.9.9.0.9.9.9.7.9.9.9.9.9.9.9.9.;.M v v v v ",
"x x x l @ X 0 i u u ] ] ] i ] ] i i i ] ] ] ] ] i } i i i i @.5.q.9.9.9.9.9.9.9.9.9.0.9.9.9.9.0.9.9.9.9.9.9.9.9.9.9.7.;.M v v v z ",
"x x x l @ . 0 i u u i ] ] ' ' ' ] i i ] ] ] ] ] ] ] ] i u { @.5.q.0.0.0.9.9.9.9.9.9.9.9.9.9.9.9.9.9.9.9.9.9.9.9.7.9.7.;.b v / n z ",
"x x ^ W @ . 0 i i u ] ] ] ' ' ] i ] ] ] ] ] i ] i } ] i u { @.4.q.0.0.0.9.9.9.9.9.9.9.9.9.q.q.9.9.9.9.9.9.9.9.9.9.7.7.;.b v ^ v z ",
"x x ^ E @ . 0 ' u u ' ] ' ' ] ] ] ] ] ] ] ] ] ] } i i u u { @.5.0.9.0.0.9.9.9.9.9.9.9.9.9.9.9.q.9.q.q.q.9.9.q.9.9.0.8.-.N v x z z ",
"^ x ^ l @ . 0 i u i ' ] ' ' ' ' ] ] ] ] i i ] i i i i t i { @.5.q.0.0.9.9.9.9.9.9.9.9.9.9.9.q.q.9.9.9.9.9.9.9.q.0.9.8.;.X.^ z z z ",
"x x x l @   0 i t u ' ' ] ' ] ' i ] ] ] ] i ] i ] i ] i i { @.5.q.0.9.9.9.9.9.9.9.9.9.9.9.9.q.9.q.q.q.q.q.q.9.9.9.0.7.;. .E x x x ",
"x x z l @ . 9 i t u ' ] ] ' ] ' ] ] i ] ] ] i i ] ] i i i { @.4.9.9.9.9.9.9.9.9.9.9.9.9.9.9.q.q.q.q.9.9.9.9.9.9.0.0.8.;. .x n x z ",
"x z z k @ . 0 i r u ' ' ] ] ] ] ] ] ] ] ] ] i ] ] i i i u { @.4.9.9.9.9.9.9.9.9.9.9.9.9.9.9.9.9.9.q.9.9.9.9.9.9.9.9.7.:. .x x x v ",
"x x n l @   0 i r r ' ' ] ] ] ] ] ] i ] ] ] ] ] ] i i i u i @.4.9.9.9.9.9.9.9.9.9.9.9.9.9.9.9.9.0.9.9.9.9.9.9.9.0.9.7.;. ./ ^ x z ",
"z x ) n @ X 9 ' r u ' ' ' ] ] ' ] ] ] ] ] ] ] i i i i i t i @.4.9.9.9.9.9.7.9.9.9.9.9.7.9.9.7.9.9.9.9.9.9.9.7.9.9.0.7.-.m ^ n v z ",
"x x ^ l @ . 9 ' u u ' ' ] ] ' ' ] ] ] ] ] ] ] ] ] i i t i i @.5.9.9.9.9.9.9.9.9.9.9.7.7.9.9.7.9.9.9.9.9.9.9.9.9.9.9.7.;.N v v v z ",
"z z z k @   q i u u ' ' ] ' ' ' ] ] ] ] ] ] ] ] ] ] i i i } @.5.9.9.9.9.9.7.7.9.9.9.9.9.9.9.9.9.9.9.9.9.9.9.9.9.7.9.7.1.N v n n z ",
"x x x l @   0 ' u u i ' ' ' ' ' ] i i ] ] ] ] ] ] ] ] i t i @.5.9.9.9.9.9.9.9.9.9.9.9.9.q.9.9.9.9.9.0.0.9.9.9.7.7.9.7.1.N v n n n ",
"^ ^ n c @ . 0 i e i i i i ] ] i ] i ' ' ] ' ' ] ] ] ] u u { @.5.9.9.9.9.9.9.9.9.7.7.9.9.9.9.9.9.9.9.9.9.q.9.9.9.9.9.7.-.B n v n ^ ",
"^ n n c @   9 e > 9 i i ] ] ] ] ' ' ' ' ' ' ' ' ' ] } u u { @.5.9.9.9.9.9.9.9.9.7.9.9.9.9.9.9.9.9.9.9.9.q.9.9.9.9.9.7.;.X.E v v n ",
"l x x l @   9 0 - - 9 i ] ] ] i ] ] ] ' ' ' ' ' ] ] ] u i { @.5.9.9.9.9.9.9.9.9.9.7.9.9.9.9.9.9.9.9.9.9.q.9.q.9.9.9.9.;. .v v v n ",
"^ n ^ l @   0 u 9 = - i ] ] i ] ] ] ] ' ' ] ' ' ] ] ] u u } @.5.9.9.9.9.9.9.9.9.9.7.9.9.9.9.9.9.9.9.9.9.9.q.9.9.9.9.9.>.N v v v n ",
"/ v ^ l @   0 i i > = 0 ] ] i ] ' ] ] ] ] ' ' ] ' ] ' u u } @.5.9.0.0.9.9.9.9.9.9.9.9.9.9.9.9.9.9.9.9.9.9.9.9.9.9.9.7.;.N n n / x ",
"x v x l @ . 0 i i 3 = 9 i ] ] ] i ] ] ] ] ] ] ' ] ] ] u i { @.5.9.0.0.0.9.9.0.9.9.9.9.9.9.9.9.9.9.9.9.9.9.9.9.9.9.9.9.;.N v v ( n ",
"^ / / v @   9 i e > = 9 i ] i ] ] i ] i ' ] ] ] ] ' ] u u ' @.4.9.9.0.0.9.0.9.9.9.9.9.9.9.9.9.9.9.9.9.9.9.9.9.9.9.9.7.;.m z x x z ",
"^ ) ^ E o = 9 e >   - e i ] ] i i i ] ] ' ] ' ' ' ' } u u i @.4.9.9.9.9.9.9.0.9.9.9.9.9.9.9.9.9.9.9.9.9.9.9.9.9.9.9.7.;.m z z x n ",
"z v n l @   9 9 - - e i i i ] ] i ] ] i ] ] ] i ' ' ' u u ' @.4.9.9.9.9.9.9.9.9.9.9.9.9.9.9.9.9.9.9.9.9.9.7.9.9.9.q.7.-.m x x x n ",
"x z x l @ X 0 u e t i i ] i i ] ] ] ] i i i i ] ' ' ' u u ' @.4.9.9.9.9.9.9.9.9.9.9.9.9.9.9.9.9.9.9.9.9.9.9.7.7.q.9.6.1. .n x x x ",
"x x x l $   0 ' i t i i i i i i i ] ' ' i ] ] ] ] ' } u u { @.5.9.9.9.9.9.9.9.9.9.9.9.9.9.9.9.9.9.9.9.9.7.9.7.9.9.9.8.1...^ n ^ x ",
"v x x l @ X 0 i i i i i i } i ] ] ] i ] ] i ] ] ' ' ' u u { @.5.9.9.9.9.9.9.9.9.9.9.9.9.9.9.9.9.9.9.9.9.9.9.9.7.9.9.8.1. .n ^ / x ",
"x l / l @ X 0 i i i i i i i ] ] ] i ] i i ] ] ] ' ' ] u ' } @.5.9.9.9.9.9.9.9.9.9.9.9.9.9.9.9.9.7.9.9.9.9.9.9.9.9.9.7.;.m v n n z ",
"x x ^ l @ . 0 i t t i i ] i ] ] ] ] i ] ] i i ] ' ] ] u u } @.5.9.9.9.9.9.9.9.9.9.9.9.9.9.9.9.9.9.9.9.9.9.9.9.7.7.7.7.;.b x ^ n z ",
"n x x l @ . 0 ' e i i ] ] ] ] i ] ] i ] ] i ] ] ] ] ] u K ' @.5.9.9.9.9.9.9.9.9.9.9.9.9.9.9.9.9.9.9.9.9.9.9.7.9.7.9.7.-.M x ^ x z ",
"n n x l @ . 0 i i i ] ] ] ] i ] ] i ] i ] ] i ] ] ] ' u u { @.4.9.9.9.9.9.9.9.9.9.9.9.9.9.9.9.9.9.9.9.9.9.9.9.7.9.9.7.;.b z z z z ",
"x x x x @ . 9 i e u ' ] ] ] i ] ' ' ' ' ' ] ' ' ] ] ] u u ' @.5.9.0.9.9.0.0.0.7.9.9.9.9.9.9.9.0.9.9.9.9.9.0.0.9.9.9.7.-.M v z z z ",
"/ n n T @   9 i r u i ] ] ] ] ' ' ' ' ' ' ' ' ' ' ' i t t } @.5.9.9.0.0.0.0.0.0.9.9.9.9.7.9.9.0.9.9.9.9.9.9.9.9.9.9.7.1.B n z z z ",
"_ ^ n T @   9 i r u ' ] ] ] ] ] ] ' ' ' ' ' ' i u u t t u } @.4.9.0.0.0.9.0.0.0.9.9.7.9.0.0.0.0.9.9.9.9.9.9.9.9.7.9.6.;.N m z v z ",
"^ v x x @   9 u r u ' ] ] ] ] ] ' ' ' ' ' i u u t r u u ' ] @.4.9.7.7.7.7.7.7.7.7.7.7.8.8.9.8.8.9.7.7.7.7.7.7.9.7.7.6.-.N x x x z ",
"x x x E $   9 i t u ' ] ] ] ] ] ' ' u u u u t u i ' ] ' K K O.,.3.3.3.>.2.2.2.2.3.3.3.3.3.3.3.3.>.>.3.3.3.3.3.3.3.3.2.%.b z x x z ",
"x x x k $   9 ' t u ' ' ] ' i i u u y t u i ' ' ' ' J H L S Q ..X.X.X.X.X.B X.X.B X.X.X.B ..X.X.B B B B B B B X...X.N m v x x n / ",
"x x z k @ . 0 i t t i i i u r r y u i ' ' { [ J F L ~ Q l l z z z x x v n v n n n n n n n n n x b z n n n n v n _ ) n ^ v x x n / ",
"x x l l @ . 0 i t r t t u t t i ' ] { [ H P D ! E c x x l x x x v v n v n n n ^ n ^ n ^ ^ ^ n x z b _ / n n v n n n n v v x n v x ",
"x n / E @ . 0 i u t r t i i ' [ [ J U D ! T ^ ^ n z x z z / ^ x / ^ n n v n / / ( / n ) ^ n n x z v v v n ^ v v n n / v z v v v x ",
"z n ) E # . 0 i i i i i ' J H P ` ! W v v v / ^ v v n x n n x z v v x v v n ^ n n n x x x x x x v v z x v v x x v v n v v v v v n ",
"z x ^ l $ X 0 ' ' K G H L S Y T v v v z z x n n x v x n x x x v v v x z v v v v x x x z x ^ ^ ^ z z z v v z z z z z v v n v v v n ",
"x x x l p + q G F A S T E l z z x x z v x x v x v v n x z z x n v n v z z v v x x x x z x ^ / n z v v n n n x x v v v v n n v v n ",
"x x n x l g C ! T v v x x x n ^ z z z z z v x x n n n n x x v v x v v v v v z z x n x z z x z z z z z z n ^ v v ^ / v n ) n n v x ",
"x n x ^ ) v v v x x ^ ^ v x n ^ n z n n n v v v / / n x x ^ ^ z z x v ^ v z x v x n ^ x x z z x n v z z z z z x ^ n z v / n v v x ",
"n x x n ^ v x n v v ^ n z x v x z / ) ^ ^ n n n n x x x x / / x x v v n v v n n z x x n v x v n ^ n z z z z n n n ^ z v n n z z x ",
"x x x x x x ^ ) v v v v x v n v n ^ ^ ^ ^ n n ^ n z n n n n n n v v v x z v v n x x n ^ n n n z n v z v z x ^ / ^ / v v n / z v x ",
"x z x x x n n ^ n x x n x x x x n n x n x x x x x z x / ^ x n n n x x x x x x x x x n ^ x x x x x x x n x z x x x n x x n x x x x "
};
