/* XPM */
static char *_b990b501fc64810b2ad49780237cc06ujkVAg3hMRC0BEss[] = {
/* columns rows colors chars-per-pixel */
"64 64 143 2 ",
"   c None",
".  c #663D14",
"X  c #693F15",
"o  c #6B4116",
"O  c #6F4418",
"+  c #724619",
"@  c #754819",
"#  c #7A4B1B",
"$  c #82511E",
"%  c #8A5620",
"&  c #8D5822",
"*  c #935D25",
"=  c #976126",
"-  c #9D6426",
";  c #9C6428",
":  c #A06627",
">  c #A16728",
",  c #A36929",
"<  c #AC6E2E",
"1  c #AE702C",
"2  c #B3742E",
"3  c #B8772F",
"4  c #BA782E",
"5  c #AD6F31",
"6  c #AE7132",
"7  c #B27433",
"8  c #B97732",
"9  c #B67835",
"0  c #BD7B33",
"q  c #C57C2E",
"w  c #C37E33",
"e  c #C58034",
"r  c #C58134",
"t  c #C48135",
"y  c #C58135",
"u  c #C48034",
"i  c #C68034",
"p  c #C68134",
"a  c #C78134",
"s  c #C68135",
"d  c #C78234",
"f  c #C68235",
"g  c #C78235",
"h  c #C78335",
"j  c #C48136",
"k  c #C58236",
"l  c #C68336",
"z  c #C78336",
"x  c #C78337",
"c  c #C68134",
"v  c #C88031",
"b  c #C88132",
"n  c #C88133",
"m  c #C98232",
"M  c #CA8333",
"N  c #C88134",
"B  c #C88234",
"V  c #C88235",
"C  c #C98235",
"Z  c #C88335",
"A  c #C98335",
"S  c #C88336",
"D  c #C98435",
"F  c #CA8434",
"G  c #C88436",
"H  c #C98436",
"J  c #C98536",
"K  c #C98537",
"L  c #CA8436",
"P  c #CA8536",
"I  c #CA8537",
"U  c #CB8537",
"Y  c #CA8637",
"T  c #CB8637",
"R  c #C88335",
"E  c #CA8638",
"W  c #B99469",
"Q  c #BB9569",
"!  c #BB956A",
"~  c #BA946B",
"^  c #BB956B",
"/  c #BB966B",
"(  c #BC966A",
")  c #BD976A",
"_  c #BC966B",
"`  c #BB966D",
"'  c #BB976D",
"]  c #BC966C",
"[  c #BC976C",
"{  c #BC976D",
"}  c #BC976E",
"|  c #BC966C",
" . c #BD986C",
".. c #BC986D",
"X. c #BD986D",
"o. c #BE986D",
"O. c #BD986E",
"+. c #BC986F",
"@. c #BD996F",
"#. c #BE996E",
"$. c #BE996E",
"%. c #BC9970",
"&. c #BE9B71",
"*. c #9FC3E7",
"=. c #A1C2E4",
"-. c #A2C3E4",
";. c #A3C3E4",
":. c #A0C3E7",
">. c #A3C4E5",
",. c #A0C4E7",
"<. c #A1C4E7",
"1. c #A4C4E5",
"2. c #A5C5E5",
"3. c #A6C5E5",
"4. c #A4C5E6",
"5. c #A5C5E6",
"6. c #A5C6E6",
"7. c #A5C6E7",
"8. c #A6C6E6",
"9. c #A7C6E6",
"0. c #A7C7E6",
"q. c #A3C4E6",
"w. c #A8C7E6",
"e. c #A8C8E7",
"r. c #A1C4E8",
"t. c #A2C4E8",
"y. c #A2C5E8",
"u. c #A3C5E8",
"i. c #A3C6E8",
"p. c #A4C6E8",
"a. c #A4C6E9",
"s. c #A5C6E9",
"d. c #A4C7E9",
"f. c #A5C7E9",
"g. c #A6C7E9",
"h. c #A4C6E9",
"j. c #A6C8E9",
"k. c #A7C8E9",
"l. c #A7C8EA",
"z. c #A7C9EA",
"x. c #A6C8E9",
"c. c #A8C9EA",
"v. c #A8C9EA",
/* pixels */
"                                                                                                                                ",
"                                                                                                                                ",
"                                                        o #                                                                     ",
"                                                  + # & , 4 W 9.a.a.a.a.k.k.a.i.>.i.a.k.k.a.a.k.k.a.k.c.k.k.k.k.k.a.a.a.a.a.    ",
"                                          X o # * < 0 g H m X.9.i.a.a.a.a.i.>.i.>.i.a.c.k.i.i.k.k.a.a.a.i.i.i.a.a.i.a.a.k.k.    ",
"                                    . o # * < 0 A H H A H w { 9.a.i.a.a.i.i.>.=.=.a.a.k.k.a.i.a.k.a.a.a.i.i.i.i.i.a.a.k.a.a.    ",
"                            o o o $ = 2 w g A g i A A g g q W 9.i.i.a.a.a.a.i.=.i.k.a.a.k.a.i.a.a.a.i.i.=.i.a.i.i.a.a.i.i.a.    ",
"                    o . X @ % > 2 g H H H H H g w 8 9 0 g w { =.=.i.i.a.a.i.a.i.a.a.i.i.a.k.a.i.a.a.a.a.a.a.k.a.i.a.a.a.a.i.    ",
"              . . o # & , 3 g H H H H H g w 7 7 6 7 7 < g m W =.a.a.i.a.a.a.a.a.i.i.*.i.a.i.i.a.a.a.a.a.a.a.a.=.i.a.k.a.i.a.    ",
"        o o o # & , 0 g A A A H H g 0 9 7 6 9 0 w i w 6 w m _ 9.a.a.a.a.a.a.i.a.a.i.i.i.a.i.i.a.a.i.i.i.a.a.a.i.=.a.a.a.a.a.    ",
"    o o # = 1 0 i i A A A g u 0 9 7 9 0 w g i i A A g 7 w m { >.i.a.k.k.a.a.i.a.a.a.i.i.i.>.i.i.a.a.a.a.a.k.a.i.i.i.a.a.a.a.    ",
"    o o ; H A g w i g w 0 7 7 9 0 g g g A A g H H A g 7 0 m { 9.a.i.a.a.a.a.a.k.a.a.i.i.i.=.i.i.a.a.k.k.a.k.k.a.i.k.a.a.a.a.    ",
"    o o > H g g 0 9 6 7 9 0 g A A A A g g H A H A A g 6 0 m X.9.a.i.a.a.k.i.a.a.i.i.a.i.i.i.i.a.a.a.a.k.a.a.a.>.a.k.k.k.c.k.    ",
"    o o > A g 0 6 9 0 g A A A g A g g g g H A i A A g < 0 m X.=.i.>.i.a.k.a.i.a.a.a.i.a.a.a.k.k.a.a.a.a.a.i.i.i.i.k.k.a.k.k.    ",
"    X X - A w 6 w g A g A g A A A A A H A A A g A H g 6 0 m X.9.i.i.i.a.a.a.i.i.a.a.i.>.a.a.a.a.k.i.a.a.i.=.i.a.a.a.k.a.k.k.    ",
"    o o - A w 6 w g g g g g g A A H A H A A g g H H g 7 0 m ` >.a.a.a.a.a.>.i.a.a.k.k.a.a.a.i.a.a.i.a.a.a.i.i.a.a.a.a.a.k.k.    ",
"    o X - H w 5 w A A A g g i g g g g A A H A g H A g 7 0 w W >.a.k.k.a.a.i.a.i.a.k.a.a.a.a.a.a.a.a.a.a.a.a.i.a.a.a.i.i.a.k.    ",
"    o X : H w 7 g H H H g g g w i g A A A H H A A g g 7 w i ` 9.k.k.k.k.a.i.a.a.a.a.a.a.a.a.a.a.k.a.a.i.i.a.a.a.a.a.a.a.i.i.    ",
"    o o - H u 7 g H A A g g g w g A g A A g A A H H A 7 u m X.9.a.k.a.a.a.i.i.a.a.a.a.a.i.a.k.a.a.a.a.a.i.i.i.i.a.a.a.i.a.i.    ",
"    o o , H w 6 g A A g i g A g g A A A g g g A H H g 7 0 m X.9.k.k.k.k.k.k.i.i.a.i.i.i.i.a.k.a.a.a.a.a.a.a.i.a.a.i.i.i.a.i.    ",
"    o o , H g 7 g H H g g H H A g g A H A A g A A A g 6 w H X.9.k.k.a.a.a.a.i.i.a.i.i.i.i.i.k.c.a.k.k.a.a.a.a.a.a.a.a.a.a.a.    ",
"    o o : A u 7 g A g g w g A A g g g g g g i w w i g 7 w H X.w.c.k.k.k.a.a.a.a.a.a.a.i.i.a.k.k.k.k.c.k.k.a.a.a.i.a.k.a.a.a.    ",
"    o X - A w 7 g H H A i g g i g H H g g i i w g g g 7 u m X.9.k.k.k.a.a.a.k.a.a.a.a.a.a.a.a.k.k.a.a.k.a.a.k.k.a.a.a.a.a.a.    ",
"    o X - i w 6 g H H H g A A g A H H A A g i w w g g 7 w m _ 9.a.a.i.a.a.a.a.a.a.a.k.a.a.a.a.k.k.k.k.c.k.k.k.a.a.a.a.a.k.k.    ",
"    o o - w w 6 g A A H H H H A g g A A H A g g A H w 7 w m _ 9.i.i.=.i.a.i.i.a.k.a.a.i.a.i.a.k.k.c.c.k.a.a.a.a.k.k.k.a.a.k.    ",
"    X X > A w 6 w g A A A H H A A g A A A w g A H H g 6 w m { 9.i.i.i.i.a.a.a.a.k.a.k.a.a.a.a.a.c.k.k.k.i.i.a.a.k.a.a.a.a.i.    ",
"    X . > A w < w A g A A A A A A A H H H A g A g g g 6 0 w { 9.i.i.i.i.i.>.i.k.a.i.a.a.a.a.a.i.a.k.k.i.i.i.i.i.a.a.a.a.a.a.    ",
"    X X - A w 6 w A g A A g g A H H A H H H A g w w w 5 0 m X.9.i.a.a.a.i.>.i.a.i.i.i.a.i.a.a.i.i.a.a.a.a.i.i.i.a.i.a.a.a.k.    ",
"    . X - H g 6 w A A H A A g A H H A H H A H g w i i 6 w m X.9.i.a.i.a.i.i.i.a.i.i.i.i.i.a.a.a.a.i.i.a.i.i.i.i.i.i.a.a.a.a.    ",
"    . . : H g 7 w g g A g A g g g g g H H H H A A A A 7 0 m W 9.a.a.i.a.a.a.i.i.a.a.i.i.a.a.i.a.a.a.i.i.i.a.a.a.a.a.i.a.a.a.    ",
"    . . - m w 6 w A A g g g i w i g A H H H g A H A g 7 w m W =.i.i.a.a.a.i.a.i.i.i.i.a.a.a.i.a.a.a.a.a.k.k.a.k.a.i.i.i.i.>.    ",
"    X X > H w 6 g H H g g g i i g g g g g g i A H A g 7 0 m %.9.i.a.a.a.i.i.a.>.=.i.a.a.k.k.a.a.a.a.a.a.k.k.a.a.i.i.a.i.i.=.    ",
"    o o - g , * 0 H H A H H g w w g i i i i i g H E g 7 u m %.9.a.a.a.a.a.a.a.a.i.i.i.a.a.a.a.a.a.k.k.a.k.c.a.a.i.i.i.i.i.i.    ",
"    o X > 0 # o $ 0 A A A g g i g A g g A g g g H H H 7 u H X.9.a.a.i.a.k.k.a.a.a.i.i.i.a.a.a.a.a.a.k.c.c.a.a.a.i.i.a.a.a.i.    ",
"    X . - g 2 & o = H A g i g H H H g g A g A A A H H 7 w H X.9.k.k.a.a.a.a.a.a.i.>.>.a.a.a.a.a.a.a.a.a.a.i.i.a.a.a.k.a.a.a.    ",
"    X . : H g 6 $ # u H g g A H g A A g H A g A A H H 7 u H X.9.k.a.a.a.a.a.k.k.a.a.a.i.a.a.a.a.a.a.i.>.i.i.a.a.k.a.a.a.a.i.    ",
"    o X > H g 7 * @ 8 H g g A g i A H H A g g g g H H 9 u H X.9.a.a.k.k.k.a.a.k.a.a.a.>.=.a.a.i.a.a.a.i.a.a.a.a.k.i.a.a.a.i.    ",
"    o o : H w 7 & + 8 H A i g g g A H A H H A A A H E 7 w m ` >.i.a.k.k.a.a.a.i.i.a.a.a.a.a.a.i.a.a.a.a.a.a.a.a.a.a.a.k.k.a.    ",
"    X X - A 2 * O % w A g i g w i H g i g A g A g g g 7 w m ` >.i.i.a.a.i.a.a.a.a.a.a.k.a.a.a.a.a.a.a.a.a.i.i.a.a.i.a.k.a.i.    ",
"    . X > 0 # o # 2 i g A g i w g A g w g A g g g i w 7 w m { =.i.i.a.i.a.a.a.a.k.a.a.a.i.a.a.a.i.i.>.a.a.i.>.i.k.a.a.a.i.a.    ",
"    o o > g ; = 8 g g A g g i g A A g i w g g g A A g 6 0 m W =.i.i.i.i.a.a.a.a.a.i.>.a.a.a.i.a.i.i.i.a.k.a.i.i.a.a.a.a.a.k.    ",
"    o o - H w 7 g A g i w i g g A H g w w i g A g g g 7 0 w W 9.a.a.a.a.i.a.a.i.i.i.>.i.>.i.a.a.a.a.a.k.a.>.i.>.i.a.a.k.k.a.    ",
"    o o ; H w 7 g g w g g w i g A g g g g A H g g g g 7 0 m X.9.k.k.a.i.i.i.a.>.i.i.i.>.=.i.i.i.a.i.a.a.a.i.i.i.i.a.k.k.a.i.    ",
"    o o > A g 7 g g g w g A H H A g i g A g A A A g g 7 w m X.9.a.a.i.i.a.i.i.=.i.a.i.i.a.a.a.a.a.a.a.a.a.a.a.i.i.i.i.i.a.a.    ",
"    o o , H g 7 g g g w w A H g i i g i g i A A g A g 7 u m X.e.k.a.i.i.i.i.i.i.a.a.i.i.a.a.a.a.a.a.i.i.a.a.i.=.i.i.i.i.a.k.    ",
"    o o > H w 5 w i w g i g A A g g i g i w g A A H g 7 u H &.9.a.a.i.i.a.a.a.i.a.a.a.i.i.a.a.k.a.a.a.a.a.a.a.i.a.a.a.a.a.a.    ",
"    o o > H w 6 w i g H A g g A A i g g w g g H H H E 7 u m X.9.i.a.a.a.k.a.a.a.i.a.a.a.k.a.a.a.a.k.a.k.a.i.i.i.i.i.i.a.i.a.    ",
"    o X : H w 6 g H H A A g g A g i i A g g g A H A g 7 0 m _ 9.i.a.k.a.a.a.a.i.i.a.a.i.a.i.i.a.k.a.i.a.a.i.a.a.i.i.a.k.i.i.    ",
"    X X - A w 5 g A A g A w w g g i g H H A g A H A g 7 w m X.9.a.a.k.i.a.a.a.i.i.i.a.i.i.>.i.i.a.a.i.a.a.a.a.k.i.i.a.k.a.i.    ",
"    o . - m w 6 g A A A H g i i g g i A A g g g A A g 6 w m X.9.a.a.a.a.a.k.k.a.a.a.a.a.a.i.i.a.a.a.i.i.a.a.a.a.a.a.i.a.i.i.    ",
"    . . = A w 6 g H A H H A A g g g i i i A A g w 8 7 7 g m X.9.a.a.a.i.a.k.k.a.a.i.i.i.a.k.k.a.a.i.i.a.a.k.c.a.a.i.i.i.i.=.    ",
"    X . = A w 6 g A H H H g g A g A A g g u 0 9 6 7 8 w g i { 9.a.a.k.a.a.a.i.a.a.i.i.i.a.k.k.k.k.a.a.i.a.a.a.i.i.i.i.i.i.i.    ",
"    X . - A w 6 g g A A g A H A g g g 0 9 7 7 0 w g g w w m _ 9.a.a.a.a.a.a.a.k.k.a.a.a.k.k.k.k.k.i.i.a.k.a.a.a.a.i.a.i.i.i.    ",
"    . . - A w 7 w g A A H H A u 0 7 6 7 0 g A A g i g i i A                                                                     ",
"    X X - A w 5 w A H H u 0 7 7 9 0 u A H A A g g i A                                                                           ",
"    o o > H w < w w 0 7 6 7 8 w g H H H H g g                                                                                   ",
"    X o , A w 6 6 5 7 8 w i i i H A A H                                                                                         ",
"    o o , A w w 0 w g A g g H H A                                                                                               ",
"    o o - A g i A g i g g A                                                                                                     ",
"    o o - A g w g i w                                                                                                           ",
"      . - A i                                                                                                                   ",
"                                                                                                                                ",
"                                                                                                                                ",
"                                                                                                                                "
};
