/* XPM */
static char *_df54d5293134efb8481d2738aadf5a4cDdYeSZV5lzp9fU1[] = {
/* columns rows colors chars-per-pixel */
"64 64 129 2 ",
"   c #676161",
".  c #6B6565",
"X  c #6C6668",
"o  c #6E6869",
"O  c #726C6D",
"+  c #756F71",
"@  c #786F72",
"#  c #767072",
"$  c #7A7375",
"%  c #7D7679",
"&  c #7E7879",
"*  c #80777B",
"=  c #827C7D",
"-  c #857E81",
";  c #887F83",
":  c #868082",
">  c #8A8485",
",  c #8D8689",
"<  c #8E898A",
"1  c #90878A",
"2  c #928C8D",
"3  c #958E91",
"4  c #988F92",
"5  c #969192",
"6  c #9A9395",
"7  c #9D9599",
"8  c #9E989A",
"9  c #A1969D",
"0  c #A29B9D",
"q  c #A397A0",
"w  c #A59DA1",
"e  c #A99EA4",
"r  c #AB9EA8",
"t  c #A6A1A2",
"y  c #ACA2A6",
"u  c #AAA4A4",
"i  c #ABA5A5",
"p  c #A9A5A6",
"a  c #AAA4A6",
"s  c #ABA5A7",
"d  c #ADA4A5",
"f  c #ADA4A7",
"g  c #ACA6A6",
"h  c #ADA7A7",
"j  c #AAA3A5",
"k  c #AEA3A9",
"l  c #AAA4A8",
"z  c #AEA5A8",
"x  c #ACA6A8",
"c  c #ADA7A9",
"v  c #AFA6A9",
"b  c #ADA6A9",
"n  c #AEA8A8",
"m  c #AFA9A9",
"M  c #ADA9AA",
"N  c #AEA8AA",
"B  c #AFA9AB",
"V  c #AEAAAB",
"C  c #AFABAC",
"Z  c #AEA8AA",
"A  c #B0A5AB",
"S  c #B0A7AA",
"D  c #B2A7AD",
"F  c #B0A7AA",
"G  c #B1A8AB",
"H  c #B0AAAA",
"J  c #B1A8AD",
"K  c #B3A8AC",
"L  c #B2A9AC",
"P  c #B0AAAC",
"I  c #B1ABAD",
"U  c #B3AAAD",
"Y  c #B4ABAC",
"T  c #B4ABAE",
"R  c #B0ACAD",
"E  c #B1ADAE",
"W  c #B2ACAE",
"Q  c #B3ADAF",
"!  c #B2AEAF",
"~  c #B5ACAF",
"^  c #B4AEAE",
"/  c #B5AFAF",
"(  c #B2ABAD",
")  c #B4B0AF",
"_  c #B4ABB0",
"`  c #B6ADB0",
"'  c #B4AEB0",
"]  c #B5AFB1",
"[  c #B7AEB1",
"{  c #B7ACB2",
"}  c #B5AEB1",
"|  c #B8ADB1",
" . c #B8AFB0",
".. c #B8ADB3",
"X. c #B8AFB2",
"o. c #B8AFB2",
"O. c #B4B0B1",
"+. c #B6B0B0",
"@. c #B6B0B2",
"#. c #B7B1B3",
"$. c #B6B2B3",
"%. c #B7B3B4",
"&. c #B7B1B2",
"*. c #B9B0B3",
"=. c #BAB1B2",
"-. c #B9B3B3",
";. c #BAB1B4",
":. c #B8B2B4",
">. c #B9B3B5",
",. c #BBB2B5",
"<. c #BCB3B6",
"1. c #BBB5B5",
"2. c #BAB4B6",
"3. c #BBB5B7",
"4. c #BAB6B7",
"5. c #BDB4B7",
"6. c #BAB3B5",
"7. c #BEB5B8",
"8. c #BCB6B8",
"9. c #BDB6B9",
"0. c #BEB8BA",
"q. c #BFB9BB",
"w. c #BEB8BA",
"e. c #C0B7BA",
"r. c #C1BBBD",
"t. c #C3BABD",
"y. c #C2BCBE",
"u. c #C1BBBD",
"i. c #C5BFC1",
/* pixels */
"t w j , G y G S x x 0 > 5 6 5 4 3 6 3 , m 2.E C ` O.0 3 p t p 0 t p 2 t x L S D 8 , 5 6 3 5 6 5 2 0 w t p 2 m m L G S G ~ 7 3 j ",
"t 0 j 2 S x f S L ` j - 6 6 6 3 3 3 5 , x ,.L O.` O.t < p m t j p p = p x S y X.0 2 6 2 5 6 5 6 , x t w w 2 w E x ~ ~ S L 5 5 p ",
"p j x , 0 7.,.G j 5 : = 0 6 3 6 6 5 6 : m i.0.2.2.y.w 3 p 0 t t G f : ~ L L S S 0 , 7 3 6 6 3 7 : 8 t 0 f , t ~ S X.L j ` 7 6 w ",
": = - - , : = * & 2 , = * > < > < 2 < & 3 t t t 9 7 * X 2 0 0 0 5 * O 9 m f *.*.0 > 6 7 3 2 6 8 : 2 f f p = t O.T T G T ,.2 5 m ",
"w & x x t 9 $ w ` 7.7.` < O $ & * = O $ - > > 2 > . * 9 , O O O O > 5 , = % & * # + : 3 2 2 > = o # & : %   # , w ~ ,.t 2 X $ 3 ",
"E 6 L L L G 7 <.` L O.,.p , 8 6 5 6 * 5 w k e w w > T L X.m # < w p p j t 2 O > 0 w - . % : , 2 9 2 $ $ 0 t 7 2 6 - % % > < > % ",
"O.6 j x T f 6 ~ O.E O.O.m > 6 3 3 6 > 6 9 w 9 9 9 1 D x T G - t l j 0 t j x , G ,.r.t * w p p x t m w < 2.O.2.7.r.2 2 m ,.0.2.,.",
"C 8 L L ` x 7 <.E %.E O.m , 5 3 6 3 > 6 q 9 9 e 9 1 ` _ x m < 0 j 0 j x 0 j 3 x O.O.m - j w 0 j 0 t 0 3 E ` O.E ,.2 0 2.x ` O.O.",
"` 0 ` G L x 9 <.O.` ,.,.x , 3 6 6 6 - 7 e 9 7 w 9 2 X.y e E > t p 0 j w x p 6 m ,.O.` , 0 j j x t j w 5 ,.E L ` 7.3 t O.E O.O.m ",
"` 0 L x S j 7 *.O.` O.7.j > 6 2 3 3 ; 7 w r w 9 j 3 e L S w 2 0 p w w w w j 6 L ,.2.L : j j j 0 p 0 0 6 O.` ,.m 7.7 t 2.2.E m ,.",
"x 9 X.,.5.x 0 7.~ 2.~ *.p , 5 5 6 5 > 9 9 7 w q 7 3 x f T x > t 8 p t w 0 x 3 m 2.m ` > x p 0 x t t j 5 ,.E E E ,.8 p 0.E L E L ",
"= # > > > $ & t ~ m O.E < & 5 6 6 6 * 7 r w x e w * t G ~ m > 0 p m 0 w m x 2 O.0.,.7.* 3 j t x p 0 2 = x ,.,.r.7.3 5 0.2.7.0.2.",
"9 9 5 O : 0 8 2 & # : : : = & & % - O $ - > = ; $ # * > 2 * O % < 8 t 0 5 > $ < j j 0 $ % = < * % # + $ > 3 > > & + + > : < , 2 ",
"p j p 6 L 2.2.7.0 = 9 t p f 6 + > 6 0 0 9 5 O & < 6 3 > # > f t < + # $ % : : & o $ 0 E ,.E E j # : 2 6 3 2 # * 6 0 8 < # 6 j x ",
"j t t 6 E L E 2.x 3 x 0 j j 0 , O.G ~ L T L > 6 6 6 5 5 < p *.2.r., > 6 7 6 6 6 , < 0.` O.2.` O.5 8 3 3 6 6 : 0 x t j x 3 O.2.` ",
"0 w w 3 L E O.` E 2 p 8 w w x 2 f m f x x S 5 2 6 5 5 7 : f *.E ` 7 3 3 3 3 3 6 3 2 O.C 7.E E E 2 2 6 6 3 3 > 0 t j t w 3 ,.E ,.",
"j 0 8 6 O.` E 2.x 2 w 0 j j j 5 x L S S x S 2 3 5 7 2 6 , x 2.E O.6 2 3 2 3 6 3 3 2 O.` O.` E E 3 5 6 6 3 6 , 0 p t 0 t 7 O.` ` ",
"8 j j 2 L ` E E m < x w w t j 2 L j G ` L x , 4 6 6 6 0 > j 7.m 5.5 < 6 5 2 5 2 < 2 O.E 2.E m ` , 5 6 5 6 6 > 0 0 0 x w 6 O.O.O.",
"j p t 5 2.2.,.2.L 2 j 0 j x p 5 G G ` x G X.2 3 2 6 5 6 2 x 7.2.e.2 , 7 5 3 8 7 3 < ,.,.2.O.7.,.< 6 5 6 8 8 : 0 t t j w 3 0.E L ",
"6 2 : # 2 0 7 2 O % 8 w w 3 - $ y x f 0 0 6 % 3 7 6 7 5 * 2 t f 9 * # > < < < = $ O > 2 6 7 2 & X * : > , > % 2 p m t 0 > E O.7.",
"$ # # #   O * 2 6 6 1 : $ o O O O + $ & > 2 > , = # $ = & & $ O   $ = > - % # X $ 2 8 7 6 6 % % < 2 5 6 3 , # X * > < = % = 2 2 ",
"5 6 7 6 * 0 ` ~ S ` L ~ 2 & 6 6 8 * 2 O.2.,.7.,.f * 6 ,.L X.` 2 $ 5 7 6 7 7 2 $ 9 ` T ` T <.6 4 E p j p m x 9 * X = > 2 5 3 6 2 ",
"6 6 6 7 - 0 S S T S L ~ 6 : 8 5 6 > t 7.E L ,.` 5.6 e ~ x x T e = 6 6 5 6 7 7 : w x x T j ~ 9 7 0 0 j w t 0 p 5 = 8 6 8 3 6 5 6 ",
"6 6 6 7 , j T x T S T x 0 - 5 5 6 3 p ` ` O.L ` 5.9 e G ` G x w > 3 3 6 6 7 7 > f L x T T ` 7 6 t 0 j w x 0 p 5 = 5 5 2 6 7 5 6 ",
"6 3 3 6 > t T S ` S S G e = 6 3 6 3 x 2.L E 2.,.5.7 t T x x L 0 = 7 2 6 6 2 6 > y ` L L y G 6 7 j w j j t p j 5 = 6 6 7 5 5 2 6 ",
"6 6 2 6 > j S T x x L T w > 7 5 6 2 j ,.,.2.` E *.w j x y L x 0 : 5 5 6 5 5 5 > y S S G S ~ 9 7 p 0 w m t 0 m 5 * 6 3 6 6 6 6 3 ",
"5 2 2 7 * y X.S G S T ` 9 > 6 2 6 2 p E L 2.` m ,.7 w S L G S 0 = 6 7 5 2 2 5 > S *.L L L ` 6 7 t j w 0 w t m 6 * 6 6 7 6 5 6 3 ",
"6 6 7 6 $ w ,.T m L ` ` 4 - 5 6 0 : w y.2.` ` ,.e.7 G G G T *.9 O 2 5 5 5 5 5 o 1 t w S G L , 5 m 0 m f m m 7 % o $ $ > 3 5 2 : ",
"> 2 , $ . $ 2 w O.y 6 , O O = = & X $ 8 L ` 2.O.0 # = 2 2 , , : : $ o & = & * #   o + # $ % O O : , = % : % $ , 7 2 - @ O = * & ",
"> # # - 5 2 - % = > , > > 2 > o = 7 6 , > : - $ & > , O . 3 w O.0.f 5 O O 0 ~ 5.2 = 0 8 0 6 8 = O > : , : # 7 k 0 e j 6 > j t p ",
"p , 3 p x p p t % 3 k y r y 9 , ~ ,.X.~ ` x 4 $ t L x 2 8 0.O.,.E O.y.0 2 y.,.,.f < m p f t E 2 : 0 5 6 7 , w 0 w w q 7 , x t 0 ",
"p 5 5 t w w w j 1 6 e 9 w w 9 4 ,.j G L S X.j - j 0 j 2 x O.` ` O.O.,.t 3 2.E ` p 3 j t t t j 2 < 5 3 7 6 , r q e w 7 e 2 j w t ",
"p 2 6 x t t j p 2 3 r 7 q w 0 3 X.L L G G T w > r 0 j 5 p E L ,.` ,.` f 5 ,.,.E p 5 j p t t m 3 < 5 6 7 6 , w 9 w 9 w 7 2 j t t ",
"p 6 6 p t w 0 x 2 3 w w w 7 7 7 ~ S G X.f j j > x j f 5 t 2.` O.O.E O.f 5 2.O.2.p 6 w w x j j 5 , 6 6 2 8 , 7 r 9 9 9 9 3 j t t ",
"x 7 6 p j w j x 2 6 e e w q 7 3 ~ x y G x m w - j t x 6 0 *.E ` ,.m 2.f 5 7.` 0.p 5 x j 0 t L 3 , 8 6 2 2 ; w 7 q w 0 9 , t p p ",
"x 3 6 L w w L p * 5 w r w 0 6 > ` ` ,.G ` 2.6 , p t p 7 t r.O.m E O.y.f 2 7.,.0.0 6 m x p j p 5 - 8 3 7 8 - 0 j 9 w r 0 > w x j ",
"6 * * 2 : * * $ O # % % ; 1 - # # : 7 6 2 , # & L t 0 : > p E O.,.,.p = # j E t : # 3 0 0 0 7 - - 6 5 5 : + - , 6 2 2 , + * * $ ",
"0 j G S 6 ; - w E j 5 % , y T x 9 - + > 2 6 6 5 * O * % $ * * : , $ % > : + $ < 2 2 - X + - & - : $ # O : t 0 2 * X * 3 3 5 2 > ",
"x L L L ` y 6 7.L 2.y.8 9 ` ~ L <.w 3 x j j x p 0 = 4 w r q 4 6 & , j f t , 7 O.~ ,.` 6 2 E O.` ,.E 0 2 2.e.O.y.*.> 2 5 6 7 6 7 ",
"S f S S S j 6 ,.O.E 2.6 9 G x ~ L p 8 j w t 0 p 0 2 w q 9 q e e 3 8 x 9 p 5 0 L S j S y 6 O.O.` ` 7.m 6 y.) ) ` O.: 6 2 5 6 5 5 ",
"T G f L G f 9 ` E O.r.0 0 L S L ,.t 6 x j j j t 7 3 q 7 9 r 9 r 2 8 t w m 2 t L L S ` 0 9 O.O.` %.O.t 0 2.~ 2.O.E 2 5 3 2 5 5 5 ",
"S L L ~ S j 0 7.E E ` 0 0 S L T x e 3 x j 0 t w w , 7 9 w w 9 k 2 6 j p w 2 m ~ S L L 0 9 2.2.` E ` G 9 ~ G 2.O.O.> 3 6 6 5 6 6 ",
"L G x G L p 0 ` O.O.7.0 0 X.L y ` e 3 x x t j m 9 2 j 0 w w w w 3 7 p j j 5 x x L y T t 9 O.m L 2.O.m 9 5.G E E ` 2 6 3 7 3 2 2 ",
"*.x L ,.` 0 7 2.2.,.,., : y L *.G : O = 6 0 2 5 , # > 3 e j 0 0 O < t 0 t < t X.T ~ 7.8 3 y.5.7.O.2.m , ~ 0.` 0.2.: , 6 6 6 3 2 ",
"6 7 9 5 > : % : 6 > * $ % , > ; # % = = % O   X X O O O $ * O + , 2 , = # o = 5 9 0 0 < $ < > < 5 2 , , - > t 7 2 - : - & * O $ ",
"w j 9 > # 5 6 5 > * o 6 m t 0 * 7 ,.7.2.L t 6 $ < < < 4 1 * & m ,.2.E E % & > 6 6 - $ 0 f p w 0 # O j ` L 7 X & 8 0 j 3 % 0 y x ",
",.,.2.` < 6 6 8 6 8 > t p 0 x 2 T e.L L O.7.` : 6 6 3 6 3 2 2 2.` ` L 7.< w x x x p 8 0.*.O.7.r.6 , ` f L ~ , t t t j 0 7 X.x x ",
"E E O.E > 7 6 5 3 5 2 t t t j 2 X.,.` E ` ,.m , 6 2 3 6 6 < 6 2.L ,.O.O.5 w j w p w 0 ~ f ,.E 2.7 2 G x ,.S 2 0 j w j 7 3 L L S ",
"O.O.7.L > 5 6 2 5 3 , 0 t w j 6 E O.O.O.*.L E < 6 6 5 6 6 < 5 2.O.` O.O.6 t 8 p w t 8 ` O.2.L 7.0 < *.` T x 2 t w w t 8 6 O.x m ",
",.E ` O.2 5 5 5 5 5 , 0 t w p 5 O.O.O.,.` O.E , 5 6 5 6 2 2 5 ,.O.` E ,.5 j j j j 8 5 2.L E 2.O.j , *.y y T 2 p p w p 6 3 O.p E ",
"q.r.,.x - 2 3 6 6 6 = 6 x x 7 $ 3 t x ` O.L 2 $ 2 6 7 8 5 6 6 2.2.O.E 7.5 j L 0 0 t 5 2.0.E O.2.m 2 *.T ~ ~ , p w j x 3 2 ` E E ",
"2 2 , > O # % : * : X # : * O & & % # = = * O : < , : = , = o : 9 f ~ t & : 9 p 0 2 # 7 m ~ O.G = % 2 9 0 4 $ : t 7 , % O $ > 2 ",
"6 6 0 w 0 6 , $ 5 8 t 2 X > 8 5 7 7 6 , % f *.5.t O = 2 6 8 6 = O & 3 < 5 2 = O & < < 7 5 = O $ , < = O O # # % O % 2 0 w 6 6 6 ",
"q q w 7 0 w w , x p L w > 6 2 6 3 3 6 6 , O.O.O.m > p j x t p L 0 : 2.7.O.2.7.: t e.5.O.5.0 % 5 6 7 7 > : 7 6 9 2 5 m j p m p p ",
"w 7 9 r r 9 w 3 j w t 8 > 7 3 5 3 7 6 3 2 2.` O.E > t w j t j p 0 6 ,.m O.L ` 6 ` O.` ` ` t > 6 6 2 6 < > 6 2 7 3 2 x j p t 0 w ",
"r 9 9 w w 0 w 2 j j j w > 6 6 6 6 3 3 6 2 E ` ,.L > p t 0 t t p 0 7 O.O.O.L ,.3 m O.` O.2.w > 0 6 5 6 < > 7 5 6 2 3 p w p t j w ",
"e q q q q q 9 3 j w t 9 > 5 5 5 5 6 6 5 < ` ,.2.m : f 0 t p j p 0 8 2.O.` O.2.2 m ,.,.O.2.t > 6 6 6 5 < > 6 2 6 2 2 x j p t j t ",
"q q 7 q 9 9 0 3 x x t 9 = 5 5 5 2 6 2 5 < E ` 2.0 : E t w t t p 0 7 7.E L m *.2 L O.` ,.2.8 > 6 6 6 6 < = 6 5 3 2 2 m j j p t t ",
"r k q r 0 w 0 , p w t 0 % 6 0 6 5 6 0 3 & E 7.0.2 # 6 t m x m L 6 7 e.*.0.y.*.= 5 *.0.5.5.5 = 6 6 6 7 2 = 7 6 2 2 2 x 8 8 w t p ",
"% > 1 3 3 9 1 # 7 p 8 = . # - 6 6 , * $ X $ < : # & : = = > < ,   # 5 5 2 < > = % # : > : # # # < 2 2 = & 6 5 7 : : t j x p t t ",
"9 7 2 O O , = % X O % $ = = # O $ , 6 3 7 7 % * t j w p 7 > o = 8 2 = o $ > 2 6 6 < :   & t E 9 O * = & & , $ : = @ $ * < : , : ",
"m p p : 2 2.~ 2., * 6 0 5 5 8 : * <.` ~ S T 9 7 p j t t t G : p *.5.~ = 5 8 7 5 5 5 5 & f 2.m 0.< 9 p t p p > 6 0 0 7 2 > + 6 O.",
"0 0 t , 0 5.G ~ 7 2 2 3 5 5 6 2 , S x T j ` 6 9 t 0 t p t t < *.E E O.> 3 2 2 3 6 3 6 : L ,.` ,.2 7 t 0 0 p 2 w 9 w w q e 2 0 ,.",
"t 0 0 : t ,.L ,.6 2 5 6 3 3 6 2 - X.L S L L 6 0 j p w 0 0 t 0 G ,.O.O.< 2 5 5 3 3 6 6 : E E E ,.2 7 p j 0 p 3 q q w q 7 r 3 9 ,."
};
