/* XPM */
static char *_31207d9d5f543d6e287e201441fd85ackPCHiaFCjlf4OE1[] = {
/* columns rows colors chars-per-pixel */
"64 64 223 2 ",
"   c #BF050F",
".  c #BE2216",
"X  c #B82917",
"o  c #BD2C19",
"O  c #AF3B1A",
"+  c #B9361B",
"@  c #B43C1B",
"#  c #BF2E38",
"$  c #BC333B",
"%  c #C3050F",
"&  c #CA030F",
"*  c #C50510",
"=  c #CB0511",
"-  c #C60B13",
";  c #CC0A14",
":  c #CD0D18",
">  c #D30612",
",  c #D90613",
"<  c #D20C16",
"1  c #D90A16",
"2  c #D40E19",
"3  c #D80F18",
"4  c #C51314",
"5  c #CB1316",
"6  c #C21C16",
"7  c #CA1816",
"8  c #CC131A",
"9  c #CE1A1D",
"0  c #D21317",
"q  c #D4121A",
"w  c #DA141B",
"e  c #D41B1D",
"r  c #DB191E",
"t  c #C62419",
"y  c #CC241B",
"u  c #C42D1B",
"i  c #D3231E",
"p  c #D0291F",
"a  c #C3341D",
"s  c #C8301D",
"d  c #CA1924",
"f  c #CD1C24",
"g  c #D21621",
"h  c #D31D23",
"j  c #DC1D21",
"k  c #D31E29",
"l  c #CA272B",
"z  c #CD242B",
"x  c #D52424",
"c  c #DC2324",
"v  c #D82826",
"b  c #DA2927",
"n  c #D3242A",
"m  c #D52C2B",
"M  c #DC2C2B",
"N  c #CB3A24",
"B  c #CF3C28",
"V  c #DD332E",
"C  c #D4392B",
"Z  c #C72B35",
"A  c #C32C34",
"S  c #CC2B33",
"D  c #D32C32",
"F  c #D42B34",
"G  c #C7343B",
"H  c #CB333B",
"J  c #CA363A",
"K  c #D33334",
"L  c #DC3431",
"P  c #DD3A33",
"I  c #D63B3B",
"U  c #E02426",
"Y  c #E12A2A",
"T  c #E0352F",
"R  c #E03432",
"E  c #E23C33",
"W  c #AB481C",
"Q  c #B3441D",
"!  c #B3491F",
"~  c #A4561F",
"^  c #BA4921",
"/  c #AB5521",
"(  c #A45D22",
")  c #AC5C23",
"_  c #B45725",
"`  c #9D6B24",
"'  c #9D7226",
"]  c #957C27",
"[  c #997A28",
"{  c #A36423",
"}  c #AA6325",
"|  c #A56B27",
" . c #B6622B",
".. c #A37529",
"X. c #A1782A",
"o. c #C54527",
"O. c #C7552F",
"+. c #CF4432",
"@. c #DA4639",
"#. c #E44136",
"$. c #E34539",
"%. c #E64D3D",
"&. c #E84F3F",
"*. c #E8503F",
"=. c #BF3640",
"-. c #BD3C43",
";. c #CA3740",
":. c #C43B43",
">. c #CB3C44",
",. c #C83F48",
"<. c #D33B42",
"1. c #B94249",
"2. c #BC434C",
"3. c #B54C54",
"4. c #BC4A53",
"5. c #B7535B",
"6. c #B55C65",
"7. c #BA636B",
"8. c #AF6C73",
"9. c #BB757A",
"0. c #CC4244",
"q. c #C4424A",
"w. c #CB424A",
"e. c #CC494B",
"r. c #D44445",
"t. c #D94543",
"y. c #D2454A",
"u. c #D34D4D",
"i. c #DB514C",
"p. c #C84650",
"a. c #C44B54",
"s. c #CD4C53",
"d. c #D34D52",
"f. c #C05057",
"g. c #C2535A",
"h. c #CA545B",
"j. c #CC585E",
"k. c #D35657",
"l. c #E74F41",
"z. c #E75140",
"x. c #E85140",
"c. c #C35B63",
"v. c #CE5E65",
"b. c #D35E64",
"n. c #CB6166",
"m. c #C8676D",
"M. c #D46467",
"N. c #C86C72",
"B. c #D06C72",
"V. c #C9747B",
"C. c #D07174",
"Z. c #7C9929",
"A. c #75A72B",
"S. c #7DA42D",
"D. c #76AB2D",
"F. c #79AD2F",
"G. c #7BAE30",
"H. c #7DB032",
"J. c #8B8627",
"K. c #8E8C2A",
"L. c #94852A",
"P. c #95872B",
"I. c #85962B",
"U. c #8B942C",
"Y. c #849C2D",
"T. c #8E992F",
"R. c #899D2E",
"E. c #9A9833",
"W. c #A5822F",
"Q. c #A38931",
"!. c #81A32E",
"~. c #88A431",
"^. c #82AD32",
"/. c #8CAC35",
"(. c #94A334",
"). c #83B334",
"_. c #89B537",
"`. c #8BB738",
"'. c #8EB83A",
"]. c #91BA3C",
"[. c #B67D84",
"{. c #C97C83",
"}. c #9A8B93",
"|. c #9C949C",
" X c #B3858C",
".X c #B88B92",
"XX c #A9979E",
"oX c #B59399",
"OX c #8F99A0",
"+X c #959CA3",
"@X c #9A9BA2",
"#X c #B099A1",
"$X c #9DA5AC",
"%X c #9EA9B1",
"&X c #A4A6AE",
"*X c #B7A2A9",
"=X c #A4ACB3",
"-X c #A8AEB5",
";X c #AEAFB8",
":X c #B6ABB2",
">X c #A8B0B7",
",X c #ACB4BB",
"<X c #B6B5BC",
"1X c #C98286",
"2X c #CE8C90",
"3X c #C6949A",
"4X c #C79EA4",
"5X c #CAADB3",
"6X c #C4B3BA",
"7X c #D4B8BD",
"8X c #AFB8C0",
"9X c #B4BCC3",
"0X c #BBBEC5",
"qX c #C5BCC2",
"wX c #B9C0C7",
"eX c #BDC3CA",
"rX c #C7C5CB",
"tX c #C1C6CC",
"yX c #C5CAD1",
"uX c #CACDD3",
"iX c #CBD1D7",
"pX c #CED4D9",
"aX c #D1D5DA",
/* pixels */
"F.F.G.F.G.G.F.G.G.H.G.F.H.F.F.G.G.H.G.F.D.F.F.G.F.G.D.D.F.D.F.G.G.F.F.D.F.F.G.D.H.G.G.D.F.G.H.H.D.G.H.D.D.D.D.F.F.F.G.H.G.G.G.H.",
"F.F.F.G.G.H.H.G.G.G.F.G.'.G.F.F.H.H.'.G.G.G.F.F.G.G.G.F.G.`.H.F.D.D.F.G.).G.G.G.).G.F.F.F.F.G.D.D.)._.F.D.D.F.H.F.F.F.H.).G.H.H.",
"F.F.F.`.).).F.G.F.H.G.G.).F.G.).G.H.).G.G.D.D.D._.H.H.H.H.`.H.F.D.F.F.G.`.H.H.G.F.G.G._.G.).G.D.).H.G.H.H.F.).).F.F.G.).).F.H.H.",
"G.D.F._.).).D.F.H.G.F.G.H.F.H.`.G.F.G._.G.).G.D.G.G.H.G.H.G.G.G.F.!.P.] !.G.G.F.G.G.G.'.).'.H.G.`.).G.F.).G.F.G.F.F.F.F.D.D.F.G.",
"F.F.F.D.D.F.F.G.`._.F.G.H.G.F.G.F.F.H.`.H.).G.F.F.H.H.H.G.G.!.U.` + e x o...Y.S.).G.G.H.G.G.H.G.F.F.D.D.).).F.F.F.F.).H.F.G.`.F.",
"F.F.F.F.D.G.G.F.G.H.G.G.`.H.F.G.G.G.H.H.H.G.H.G.F.H.'._.~.P.) s e M L r.r.P o.| E.!.F.G.G.G.G.G.F.G.G.F.D.F.G.).F.F._.H.F.F.).F.",
"D.).).`.D.F.F.F.F.G.G.F.).F.G.G.H.G.G.G.G.F.`.H.F.!.E...^ p c L k.9.9.XX5X2XM.r.o.} P.!.G.F.G.H.G.F.F.F.F.F.F.).G.G.F.F.F.D.G.F.",
"F.'.`.).F.F.G.G.G.G.F.F.F.F.G.H.H.F.F.F.F.G.^.R.P.) a i c r.M.1X#X+XOX>XiXpX6XoXm.I o._ Q.Y.^.H.G.F.G.G.G.H.F.F.F.G.F.F.D.F.F.D.",
"F.H.H.G.F.D.G.G.).H.G.G.F.F.F.G.).G.).F.F.R.X.^ t e M <.n.3XqXuX9X=X>X9X0X,X9X0X:X9.g.r.+._ W.T.G.).`.G.G.G.F.G.).H._.G.G.).G.G.",
"D.F.F.G.G.F.'.H.'.H._.H.D.D.D.D._.)./.~.F.' N j q x c.3X6XeXyXuXwXwXuXuX-X$XeXpXyX=X|..XC.k.@._ X.U.^.H.H.G.G.H.`.H.'.G.).`.F.G.",
"D.D.F.G.G.G.).H.H.G.F.D.F.D.D.F.U.' / _ [ ' o.c j x >.V.5XtX9X,X,X8XwXwX,XtXpXiXwX,X,XeXrX7X2Xu.+.o.| K.S.G.G.H.G.F.H.G.F.F.F.G.",
"G.G.`.G._.H.G.H.F.F.H.F.G.S.J.( a i c M B o./ t 2 r c L y.m. X@X=X,X,X=X-XtXuX0X=X,XuXpXuXeX<X*X1Xd.+.o.} K./.H.H.).).F.F.G.G.G.",
"F.G.H.G.G.G.G.H.G.G._.~.X.! y i M r.h.N.B.i.C e ; * < r c m G 3..XrXyX$X+X$X,X$X+X$XwXtX,X$XwXiXuX:X Xr.C N _ P.G.).H.G.G.H.H.H.",
"H.H.H.G.F.F.F.G.F.U.{ a e c L u.9.XX|.<XuX7X1Xj.M w ; * ; w c b K j.3X&X%X,X9X-X$X-X0XeX,X-XwXyX9X=X-XoXg.8 2 y ) R.G.H.G.G.G.H.",
"G.H.H.H.F.F.S.P./ y w c M n.4X<X-X+X+X,XuXuX9X-X9.I M w ; * = w c c S 4..XuXpXeX,X0XaXaXeX,XwXeX,X}.8.-.d r c U b P.G.G.H.G.H.G.",
").`.H.`.G.P.^ 0 3 b I h..X<XpXaXeX,XeXeX-X=X9XtX9X}.8.u.L r ; * = w c c x s.3X:X$X=X0X0X,X,XrX5XN.l < w c c r u | /.F.).].H._.).",
").).G.).!.} c j q G [.6XyXwXwXyX0XeXpXyX-X-XuXaXyX$X$X:X2XM.t.x : * = 3 M T n -.8.XX0X0X*X[.a.z 3 r U j w > 6 ' ^.).F.H.).G.G.G.",
"F.F.F.D.F.K.^ i c c K n.3X:X&X=X>X,X9X9X0XuXpXeX,X,XeXyXpXrX3Xn.<.x 8 - 5 M E V m e.V.V.>.g w r c w 2 = * * O K.F.D.D.F.G.G.G.G.",
"F.G.D.F.G.H.U.O ; q j j D a.8.}.&X0X,X=X-XwXeX,X$X,XpXpXeX<X9X<X3XN.r.x q - 5 x V V M x w j j w ; & % * = 4 ~ S.D.F.F.F.G.F.G.F.",
"F.G.F.D.F.F.S.~ - * ; 0 w r z 1.V.5X0X$X+X-X,X$X+X&XeXeX=X$XeXiXeX;X.Xj.K 2 = ; 8 x V R j q ; * & * * > = . ] F.F.G.F.D.D.H.H.F.",
"F.F.G.F.F.D.F.] . * * * * 2 r j D d.N. X&XwXeX,X=X,XyXyX<X,XwXeX,X&XXX8.A 2 w w q 8 8 8 ; * * * = > > > ; + E.`.`.).F.D.F.].).D.",
"D.F.].`.).F.F.I.@ ; > > * * * 2 r j m >.m.4XrX0X-X9XiXyX0X9XyXrXoX6.-.S h j j j U P b - * > > * > , > , 2 s ..R.^.F.D.F.F.G.F.A.",
"F.F.).).G.D.G.^.( 4 = > = > = * * 2 w j L r.n.[.|.-XeXeX,X:X3Xm.;.h j j j r q M $.&.#.w > > , = & = f ;.:.9 t ^ [ S.F.H.H.D.D.D.",
"H.G.F.D.D.D.^.(./ 4 * > > > , = * * * : c E P J 1. X6X6X9.2.z h c j r 3 ; * ; E &.z.E r > > > 2 S 2.5.4.Z q w b N J.F.H._.D.D.D.",
"G.G.F.D.D.I.} a 9 2 > > , > , > = = > = - 9 M E P K >.H h j c c w < * * * & S t.$.%.E q > 8 y.B.N.-.d g j c j i / I.D.G.H.G.F.F.",
"D.D.D.F.!.} b r q z H g > * > > > , , > ; : ; 8 M #.E R Y j w ; * * * > = * h -.2.u.L n p.7.m.>.g r c U w 3 4 ( Y.F.F.H.G.G.G.F.",
"F.D.D.G.G.P.s j c n G h.d.f * * > , > * ; M L 9 * ; c M 3 * * * * = = = * q #.V l p.C.{.c.l 2 r Y U w > & % X J.).G.G.H.H.G.G.F.",
"F.F.).H.F.^.P.o 2 j c b J f.=.d ; > * * > c %.%.P f - * * = = * > , , > * ; h E $.V n g q j U j 3 = & & * - W Y.].).F.G._.).F.D.",
"D.G.].H.D.G.~.~ * * < w c x A 1.w.n 8 * > w #.*.x.%.V ; = , > = > > 1 3 q 2 * ; h L E E M w 1 * * * * > > 6 ` F.).H.D.F.H.H.G.D.",
"F.F.G.F.F.F.F.' 6 * * * < w c x H s.w.z 8 q P %.%.x.#.3 > > , > : d H a.H : 1 3 : ; e h : * * * * > > > * + U.F.F.G.F.F.G.G.H.F.",
"D.D.D.F.D.F.H.K.+ * > > * * < r j x S :.>.H I %.%.x.E 1 > < g F ,.4.5.:.f w j U c b 9 - * = = * > , , > ; + J.S.H.G.F.F.G.H.H.F.",
"H.G.G.F.D.F.G.!._ - > > = > = * ; q w x K y.e.e.t.l.V 2 f G h.v.a.A h j j j r c E %.E q = > , = = > 2 k z y @ { E.^.D.H.H.G.).).",
"_.).).).D.F.G.!.} 4 = > > > > * % & ; q b L I G -.d.u.s.f.4.,.D g j j j q ; : E x.x.E r > > > > g A 2.a.G q q x ^ U.F.`.).D.G.).",
"G.F.F.F.F.!.P./ u 2 = > > > , > * * = * 8 b T L K >.s.s.Z h j j r w 2 * * * h @.%.&.E w > < n d.v.4.-.S h j j c ^ K.F.).).F.G.G.",
"G.G.G.D.S.X.N e 2 f z q > * > > > > , > * ; 8 x V E P L c j r q ; * * > = * z q.0.@.V g S a.c.h.;.z j j j r 9 ! J.S.G.G.G.G.G.H.",
"`.)._.F.S...x c c z >.s.F : * = > , > = ; c x 8 8 h V R r 2 ; * * * = > = 2 L S A p.M.B.c.:.z h c c r w < * . ] A.D.F.G.H.H.).G.",
"G.F.F.F.F.!.` t w c M K >.p.A : = > * * > M $.#.m 8 - ; * * * * > > > > * < b E E K H S h j c c r 3 * * * - @ I.D.).G.G.H.H.`.G.",
"G.).H.H.G.G.I.W - ; w c b z $ 1.H g * * > j $.l.*.%.m - = > > * > , , , > < * 8 c E E R M c w ; * % * > > 4 { F.D._.G.D.F.F.F.F.",
").].'.).D.H./.` 4 * % * 3 U c x w.j.<.q > 3 E %.%.x.#.3 > , , = * = g >.H 8 > = * ; x M q * %   * = * = = o J.D.D.D.D.D.D.D.F.G.",
"F.).H.G.D.G.H.J.o * = * * = 3 j c n :.a.>.h V %.%.%.E 1 > > 1 q l 2.7.5.l < r j r 9 - * * * * * > , , > ; Q Y.F.F.F.F.F.F.F.F.G.",
"F.D.G.G.G.F.F.Y.! ; > , = * * = 3 j c m 0.s.y.@.$.%.E 1 2 f >.M.m.1.d q r U j r Y $.L 8 = > > = = > , 3 q u ( J.S.F.G.F.F.G.F.F.",
"F.F.F.F.H.).D.S.{ 4 = > = > > * * * 3 j M K >.-.:.i.I F p.c.n.w.h w r c w 2 ; V %.%.#.w = > , > ; 8 Z q.:.8 2 s } R.).).).F.G.F.",
"G.F.D.F.H./.I.] Q 5 = > > > , > * * * ; h V T m G s.b.m.g.S g r j j q ; * % 8 $.%.%.E w > > q D w.1.3.2.z w w c N P._.).).).`.F.",
"F.D.).G.S.P.^ y 0 q g 1 > = , , > > > = ; 8 x V E L I D j r j w q ; * * * & n e.t.%.R q d G s.v.h.A f r r j e a | Z.D.F.G.H.H.D.",
"F.F.`.F.S.| x j r z ;.<.k < > > > , > > ; e 9 8 h M T R j w 2 * * * * > * : D J G e.i.d.g.4.w.F h r j r q ; 6 ..S.D.G.D.F.).H.F.",
"G.F.F.F.F.U./ y w c K <.>.;.d ; = > > * < M E V 9 8 9 h ; * * * * > > > * 2 V P K J s.s.;.z j j j r 2 ; * * + U.F.G.G.D.F._.G.D.",
"H.G.G.F.F.F.K.@ ; q w c D H $ $ z 2 * * > c %.%.$.V f - * > = * > , , > = < 8 x V E P D x j r q ; * * = = - / !.F.F.D.D.D.F.D.D.",
"G.F.G.F.F.F.S.( 4 * ; 2 r c m Z w.s.F : > q #.%.%.%.E : = > > = = > 1 n S 8 > ; 5 h V R j 2 ; * * * * > = . ] F.G.F.D.D.F.D.D.D.",
").G.H.).G.).G.] . & * * * < r c b J :.:.z q V %.%.%.E 1 > > > > 8 A 6.7.A ; 3 r w 8 - ; * * * * > , > > ; @ Y.G.].`.).).).D.D.F.",
"].).H.'.H.).G.U.@ * > > * * * > w c x l q.s.t.$.%.%.T , > = n k.V.5.# 8 r c U j c E m - * > > * > , , , 7 { S.G.).).G.).).F.F.D.",
").H.G.H.H.G.G.S.( 4 = > = > > * * = w c b S q.4.0.$.b 2 S c.{.m.S q r Y U w < b %.%.#.r = > , > * = : a | !.F.D.G.H.G.G.F.F.F.D.",
"G.F.F.`.).G.G.G.] . * > > > , = * % * < M E M l $ j.k.B.7.2.f w j U j 3 = & 4 @.*.%.E w > > > ; 6 Q ] S.F.F.D.D.F.G.G.F.D.F.F.D.",
"F.F.F.G.G.F.G.H.R.! : , , = , > = = > * ; e V E V K e.;.g r j U w 1 = * & % u +.@.%.T q ; 4 o ( K.S.D.F.G.D.G.).).G.G.G.F.F.G.).",
"D.F.D.D.D.G.G.).^.P.! y 2 * > > > , , > = 8 8 e M E T Y U j w < * * * > = - ] U.| O.B u ! ' U.F.G.).H.F.F.F.).].`.H._.G.F.F.).`.",
"F.D.D.F.G.G.G._.`.`.!.] W o 4 = > , > = ; M V f 8 9 b M q = * * * = = > * o ~.H.^.U.W.P.~.).D.F.H.].`.G.).F.G.).G.G.G.G.G.G.F.G.",
"F.G.`.).).F.G.H.G.G.F.G.S.P./ o 4 > * * > c $.$.P x 8 ; * = = * > , > > ; } '.).'.H.'.).).).G.F.F.H.H.G.`.G.H.H.H.`.F.F.G.G.F.G.",
"D.H.].).'.F.F.F.D.D.F.F.F.D.~.E.} + 4 ; > r #.%.%.%.V ; = > > = = > > 0 @ R.).G.).F.F.F.D.D.F.G.G.D.F.G.G.F.F.F.F.).F.F.H.G.G.G.",
"D.G.H.G.H.G.G.F.D.D.D.F.F.D.F.G.!.U.` @ 7 2 P %.%.%.E 1 > > > = ; 6 Q | U.G.F.F.G.F.D.D.).).).F.D.D.F.G.D.D.D.D.D.F.H.H.G.H.G.H.",
"F.G.G.F.G.G.H.G.F.D.F.F.F.F.D.D.F.F.S.I.' ! C $.%.z.E 1 > = ; o / ] I.S.G.G.F.F.F.F.D.D.)._.).F.F.F.F.H.).F.F.G.G.F.G.H.H.H.G.H.",
"F.G.G.G.G.H.H.H.G.G.F.F.F.F.H.).D.D.G.F.S.Y.P._ @.%.V > 4 @ ` K.!.S.F.F.G.F.D.F.F.G.D.D.F.D.D.D.D.D.D.G.`.G.F.).`.F.G.'.).G.G.F.",
"F.H.G.).'.G.H.G.F.G.).).F.G.).).D.F.G.F.G.G.F.!.E. .o./ ] (.S.F.F.F.).G.F.F.F.F.G.`.F.F.F.D.D.).F.D.D.D.D.D.D.).).D.G._.H.F.F.G.",
"G.G.F.H.).G.F.G.G.G.).H.D.G.G.F.G.`.`.).).H.H.).G.G.S.F.G.'.H.F.F.G.).G.F.G.).D.D.G.F.F.F.F.F._.).D.D.D.D.H.H.H.).D.F.H.H.F.D.G.",
"G.F.D.F.G.F.).'.G.G.G.G.F.G.H.G.H.).).).).F.).).D.D.G.).H.H.H.H.G.G.F.F.F.F.).F.F.G.`.F.).).D.F.G.F.G.D.A.)._.).'.G.D.).`.F.F.F.",
"F.D.F.F.G.G.H.).H.G.G.G.G.G.F.F.H.G.G.G.G.F.D.F.A.A.H.'.G.G.H.H.G.F.F.F.F.F.F.F.F.G.).G.G.G.D.F.F.G.G.F.D.G.D.G.G.G.F.G.G.D.F.F."
};
