/* XPM */
static char *_3e7358036ea42cfacb3314044bd5ef9jZCggg8l6mGmyAEp[] = {
/* columns rows colors chars-per-pixel */
"64 64 232 2 ",
"   c None",
".  c black",
"X  c #070D0F",
"o  c #080F12",
"O  c #0E191D",
"+  c #132126",
"@  c #152429",
"#  c #15252B",
"$  c #1A2E35",
"%  c #1A2F36",
"&  c #1D343C",
"*  c #1E353D",
"=  c #3A6676",
"-  c #3B6979",
";  c #3D6E80",
":  c #43788B",
">  c #4B8497",
",  c #4A8599",
"<  c #5395AC",
"1  c #5AA1BA",
"2  c #5AA1BB",
"3  c #5AA3BD",
"4  c #5BA4BE",
"5  c #5CA4BD",
"6  c #369AC6",
"7  c #379AC6",
"8  c #399DC8",
"9  c #3B9EC8",
"0  c #3B9FC9",
"q  c #3C9FC9",
"w  c #3EA0CA",
"e  c #3FA1CA",
"r  c #3FA2CC",
"t  c #40A3CC",
"y  c #42A4CD",
"u  c #43A5CE",
"i  c #47A7CF",
"p  c #5EA7C0",
"a  c #4DACD2",
"s  c #53B1D6",
"d  c #54B2D6",
"f  c #55B2D6",
"g  c #57B5DD",
"h  c #58B5D8",
"j  c #59B5D9",
"k  c #5AB6D9",
"l  c #5AB6DA",
"z  c #5CB7DA",
"x  c #58B6DD",
"c  c #59B6DE",
"v  c #5AB6DE",
"b  c #5AB7DE",
"n  c #5BB7DE",
"m  c #5BB8DE",
"M  c #5AB8DF",
"N  c #5BB8DF",
"B  c #5CB8DE",
"V  c #5CB8DF",
"C  c #5CB9DF",
"Z  c #5DB9DF",
"A  c #5EB9DF",
"S  c #5EBADF",
"D  c #61AEC9",
"F  c #67B5D0",
"G  c #65B6D2",
"H  c #67B7D3",
"J  c #67B9D7",
"K  c #62BCDE",
"L  c #63BDDE",
"P  c #64BDDF",
"I  c #64BEDF",
"U  c #65BEDF",
"Y  c #6ABDDA",
"T  c #5DB9E0",
"R  c #5EB9E0",
"E  c #5EBAE0",
"W  c #5FBAE0",
"Q  c #5FBBE0",
"!  c #60BBE0",
"~  c #60BBE1",
"^  c #60BCE0",
"/  c #61BCE0",
"(  c #60BCE1",
")  c #61BCE1",
"_  c #62BCE1",
"`  c #62BDE1",
"'  c #63BDE1",
"]  c #63BEE1",
"[  c #63BDE2",
"{  c #64BEE1",
"}  c #64BEE2",
"|  c #65BEE2",
" . c #65BFE2",
".. c #66BFE2",
"X. c #6AC0DE",
"o. c #6BC1DF",
"O. c #6DC0DE",
"+. c #66C0E2",
"@. c #67C0E2",
"#. c #67C1E2",
"$. c #67C0E3",
"%. c #67C1E3",
"&. c #68C0E2",
"*. c #68C1E3",
"=. c #69C2E2",
"-. c #68C2E3",
";. c #69C2E3",
":. c #69C3E3",
">. c #6AC2E2",
",. c #6BC3E2",
"<. c #6AC2E3",
"1. c #6AC3E3",
"2. c #6BC3E3",
"3. c #6AC2E4",
"4. c #6AC3E4",
"5. c #6BC3E4",
"6. c #6CC3E4",
"7. c #6BC4E4",
"8. c #6CC4E4",
"9. c #6DC4E4",
"0. c #6CC5E4",
"q. c #6DC5E4",
"w. c #6CC5E5",
"e. c #6DC5E5",
"r. c #6EC5E4",
"t. c #6FC5E4",
"y. c #6EC5E5",
"u. c #6DC6E5",
"i. c #6FC6E4",
"p. c #6EC6E5",
"a. c #6FC6E5",
"s. c #6FC7E5",
"d. c #6DC6E6",
"f. c #6FC7E6",
"g. c #6FC7E7",
"h. c #6FC8E8",
"j. c #70C6E5",
"k. c #71C6E5",
"l. c #70C7E5",
"z. c #71C7E5",
"x. c #72C7E5",
"c. c #73C7E5",
"v. c #70C7E6",
"b. c #71C7E6",
"n. c #72C7E6",
"m. c #73C7E6",
"M. c #70C8E6",
"N. c #71C8E6",
"B. c #70C8E7",
"V. c #71C8E7",
"C. c #72C8E6",
"Z. c #73C8E6",
"A. c #72C9E6",
"S. c #73C9E6",
"D. c #72C9E7",
"F. c #73C9E7",
"G. c #74C8E6",
"H. c #74C9E6",
"J. c #75C9E6",
"K. c #74C9E7",
"L. c #76C9E6",
"P. c #77C9E6",
"I. c #77C9E7",
"U. c #74CAE7",
"Y. c #75CAE7",
"T. c #76CAE7",
"R. c #77CAE7",
"E. c #79CAE7",
"W. c #7ACBE7",
"Q. c #7BCBE7",
"!. c #7ECBE7",
"~. c #7CCCE7",
"^. c #7DCCE7",
"/. c #71CAE9",
"(. c #73CAE9",
"). c #7CCCE8",
"_. c #7DCCE8",
"`. c #7FCDE8",
"'. c #84C9E6",
"]. c #80CCE8",
"[. c #80CDE8",
"{. c #81CDE9",
"}. c #81CEE8",
"|. c #82CEE8",
" X c #83CEE9",
".X c #84CEE8",
"XX c #84CFE9",
"oX c #85CFE9",
"OX c #86CFE9",
"+X c #85D0E9",
"@X c #87D0E9",
"#X c #87D0EA",
"$X c #88D1EA",
"%X c #89D1EA",
"&X c #8AD1EA",
"*X c #8DD2EA",
"=X c #8ED3EB",
"-X c #8FD3EB",
";X c #93D1EA",
":X c #90D3EB",
">X c #92D5EB",
",X c #93D5EC",
"<X c #94D5EC",
"1X c #94D6EC",
"2X c #95D6EC",
"3X c #96D6EC",
"4X c #97D7EC",
"5X c #99D7ED",
"6X c #9BD8ED",
"7X c #A6DCEF",
"8X c #A7DDEF",
"9X c #A9DEEF",
"0X c #B4E2F1",
"qX c #C1E7F3",
"wX c #C3E8F4",
"eX c #C5E9F4",
"rX c #C8EAF5",
"tX c #CCEBF5",
"yX c #CDECF6",
"uX c #CEECF6",
"iX c #D1EDF6",
"pX c #D3EEF7",
"aX c #D9F0F8",
"sX c #D9F1F8",
"dX c #DAF1F8",
"fX c #DBF1F8",
"gX c #DBF2F8",
"hX c #DCF2F8",
"jX c #DDF2F8",
"kX c #DDF2F9",
"lX c #DEF3F9",
"zX c #DFF3F9",
/* pixels */
"                                                                                                                                ",
"                                                                                                                                ",
"                                                                                                                                ",
"                                                                                                                                ",
"                                                                                                                                ",
"                                                                                                                                ",
"                                                                                                                                ",
"                                                                                                                                ",
"                                                                                                                                ",
"                                                  C.C.C.l.p.p.l.p.p.p.4.;.p.p.                                                  ",
"                                            C.l.p.C.p.p.p.;.;.;.;.;.%.%.;.p.p.C.C.C.                                            ",
"                                        C.l.l.p.p.;.` ! E E Z E Z b b b b Z  .p.C.l.p.p.                                        ",
"                                      l.l.`. X;.` E Z Z Z E Z b b b b b b M E ! %.4.p.p.p.                                      ",
"                                  p.p.~.8XyXiX'.g E E Z Z Z E Z Z Z b b b E E Z ` ` ` %.p.p.                                    ",
"                                p.p.&XeXfXfXhX;XM Z Z ` `  . . .` E Z b Z E Z Z E ` ` E ;.p.p.                                  ",
"                              7.p.;XyXhXfXfXtX!.%.;.;.p.p.p.p.p.p.p.;. .! E b b Z E E Z Z ;.l.l.                                ",
"                              7.OXyXfXfXfXyX-Xp.p.p.p.l.p.p.p.p.p.p.l.l.;. .Z b Z Z Z Z Z ` p.p.p.                              ",
"                            p.l.0XhXfXfXrX&Xp.p.p.p.l.l.l.l.p.l.l.p.7.l.p.p.;.%.` E Z Z Z  .p.p.p.p.                            ",
"                          l.p.OXiXhXhXyX@Xp.l.p.p.p.p.p.C.C.C.l.p.p.p.p.l.p.p.p.p.%.` ` ` p.l.l.p.l.                            ",
"                          l.p.6XhXhXyX-Xp.p.p.l.p.p.p.p.p.C.C.p.l.l.C.C.l.p.p.p.p.p.;.p.p.p.p.C.L.C.l.                          ",
"                        p.l.l.-XyXqX&Xp.p.p.p.l.C.C.C.l.p.l.l.C.l.p.l.l.p.p.C.p.p.p.p.7.p.p.l.p.l.C.C.                          ",
"                        p.C.C.p.~.L.p.p.7.p.p.C.H J p.p.p.p.p.C.p.p.p.l.l.o.2 D p.p.p.l.l.l.l.l.l.l.l.p.                        ",
"                      l.p.L.-X Xp.l.l.l.p.p.p., @ * 3 p.7.p.p.l.l.p.p.l.p.= X @ 5 C.p.l.C.l.l.p.l.l.p.p.                        ",
"                      C.p.6XfXwXL.l.C.C.p.p.O.* . . - h.p.l.p.l.l.p.p.p.Y $ . . : (.p.p.p.C.l.p.p.p.p.;.;.                      ",
"                    l.C.p.8XhXwXL.C.L.L.L.L.l.; o O < (.l.C.l.p.7.p.p.p.l.> + $ p C.l.l.L.L.p.p.p.p.C.l.p.p.                    ",
"                    p.l.p.`.9X-Xl.L.`. XOX XL.o.2 4 p.C.C.C.l.C.p.p.p.p.l.C.H H C.L.W. X@XOXW.C.C.l.l.l.p.p.                    ",
"                  l.l.p.p.l.C.p.C.`.&X3X3X-X~.l.p.C.C.C.C.C.C.l.p.p.p.l.l.l.C.p.C.W.&X3X5X3X@XL.p.p.p.p.p.l.p.                  ",
"                  p.p.p.l.p.l.l.C.`.&X,X3X-X XC.l.p.C.C.C.l.C.C.p.p.p.C.l.l.l.l.l.L.@X,X3X>XOXL.l.p.p.p.p.p.p.                  ",
"                l.p.p.l.l.p.p.p.l.L.`. X X`.L.l.l.p.;.;.C.C.C.l.C.p.p.I d ;.p.p.p.l.W.OXOX X`.C.p.p.p.p.p.p.p.C.                ",
"              p.l.l.l.l.p.p.p.p.l.C.C.l.l.l.l.C.C.C.d r h p.C.C.L.p.h w 0 I p.p.p.p.l.L.L.C.l.l.p.l.l.C.l.p.l.p.                ",
"              p.p.p.p.l.p.l.p.p.p.p.p.p.p.p.C.C.l.l.L u 0 u s h d i 7 q h p.p.p.p.p.p.C.L.C.C.C.L.C.l.l.p.l.l.p.l.              ",
"            l.p.p.p.p.p.p.p.p.p.p.p.p.p.C.C.l.C.l.C.C.;.s t 0 7 0 w a I p.p.l.p.p.p.p.C.C.C.C.C.C.C.C.C.l.C.l.p.l.C.            ",
"          p.p.p.l.C.l.p.p.p.p.p.p.p.p.p.l.C.C.C.l.C.C.C.C.;.L z L ;.C.C.p.p.l.p.p.l.l.l.C.C.C.l.C.C.l.l.l.C.C.l.l.l.            ",
"        l.p.p.p.l.C.l.p.l.p.p.p.p.p.p.p.l.C.C.l.l.l.C.C.l.l.C.l.C.l.l.l.l.p.l.C.l.p.l.l.l.C.C.l.C.C.C.C.C.C.C.l.l.l.l.          ",
"        C.C.p.l.l.l.l.l.C.l.p.p.p.p.l.p.l.C.C.p.p.l.p.p.p.;.p.p.l.p.p.l.l.l.l.p.p.p.p.p.l.C.C.L.L.C.l.l.C.l.l.C.l.l.C.C.        ",
"      C.C.C.l.p.p.p.l.l.l.p.p.p.C.C.C.p.p.C.l.p.p.l.p.p.p.4.p.p.p.p.p.l.C.l.l.l.p.l.p.p.l.C.C.C.C.C.p.p.l.p.l.C.C.C.l.l.        ",
"      l.C.C.;.` ;.p.l.l.l.p.p.p.l.l.l.l.p.p.p.p.p.p.p.p.p.p.p.p.p.p.p.C.l.p.l.C.p.p.p.p.l.C.C.C.C.l.p.p.p.p.l.l.4.%.p.C.C.      ",
"      l.p.p.! E ` p.C.C.C.C.p.p.p.p.p.p.p.l.p.p.p.p.p.p.p.p.p.p.p.4.p.l.p.p.p.p.p.p.l.p.p.p.l.C.C.p.p.p.p.p.p.%.E b %.l.p.      ",
"    C.p.p.;.E E ! %.l.C.C.C.l.l.p.7.7.p.7.p.p.p.p.l.p.p.p.p.l.p.7.p.p.l.p.p.p.p.p.p.p.p.p.p.p.p.l.p.l.p.p.p.%.E M Z  .l.l.      ",
"    l.p.l.;.E ! ` E ;.C.C.p.l.l.p.p.p.p.p.p.l.l.l.p.p.p.p.p.l.p.7.p.p.C.p.p.p.p.p.p.p.l.l.p.p.p.p.p.p.p.p.%.Z Z Z Z  .l.l.      ",
"      p.l.p.E Z Z Z E ;.l.C.C.C.p.p.l.C.l.p.p.p.p.p.p.l.p.p.p.p.p.p.p.p.p.p.p.p.p.p.l.p.p.p.l.p.7.p.p.4. .Z Z Z Z Z  .l.C.      ",
"      p.p.p.` b M Z E !  .p.l.l.C.C.l.l.l.p.l.p.p.p.l.p.p.p.p.l.p.p.p.p.p.p.p.p.p.l.l.p.p.l.C.l.p.p.%.` E E ` ` E E p.l.l.      ",
"      p.p.p.;.` E E E E E E `  .p.p.p.l.C.l.l.l.p.p.p.p.p.l.p.p.p.p.l.7.4.p.p.p.l.C.C.p.p.p.p.%.` ` ` ` ! E ` Z b ;.p.4.        ",
"        p.p.p.;.` Z Z Z Z Z M M E ` ` `  .%.%.4.p.p.p.p.p.p.p.p.p.p.p.;.;.;.p.p.4.6.4.;.%.` E ! E E E ! E E E Z %.p.p.p.        ",
"          p.p.;.p. .E b M b Z b Z ` ` E E ` ` E ! ! E ` ! ! ! ` ` ` ` ` Z Z Z Z E Z E E E E E ! ` E ` ` ` E ` ;.p.p.p.          ",
"            p.p.l.p.p.%.` E Z Z E ` ` ! ` ` ` ` E E E ! E Z E E ! Z E E E Z M M Z E E E E E E E ! ` ` ! ` ;.p.p.p.              ",
"                C.l.p.p.l.7.%.%.` ` ` ` E E E ! E E E ! ! Z E E Z Z E E Z b b M E Z Z E Z Z E E ! `  .;.p.p.l.C.                ",
"                    p.p.C.C.l.p.l.p.p.p.4.%.%.%. .` ` ` ` E ! ! ! ` ` ` ! E ! ` `  .` `  . .;.;.;.;.p.p.p.p.                    ",
"                          p.p.p.p.p.C.C.C.L.L.C.l.p.p.p.p.p.p.p.p.p.p.l.p.p.p.p.;.p.l.l.p.p.p.p.p.p.7.                          ",
"                                  l.C.C.C.L.C.C.p.l.l.l.C.L.C.C.l.l.C.l.p.p.p.p.7.p.C.l.p.                                      ",
"                                                                                                                                ",
"                                                                                                                                ",
"                                                                                                                                ",
"                                                                                                                                ",
"                                                                                                                                ",
"                                                                                                                                ",
"                                                                                                                                ",
"                                                                                                                                ",
"                                                                                                                                ",
"                                                                                                                                ",
"                                                                                                                                ",
"                                                                                                                                ",
"                                                                                                                                ",
"                                                                                                                                "
};
